<svg width="149" height="37" viewBox="0 0 149 37" fill="none" xmlns="http://www.w3.org/2000/svg">
<path d="M34.7 20.2799C33.2333 20.2799 31.9133 19.9733 30.74 19.3599C29.58 18.7333 28.6667 17.8666 28 16.7599C27.3333 15.6533 27 14.3999 27 12.9999C27 11.5999 27.3333 10.3466 28 9.23992C28.6667 8.13325 29.58 7.27325 30.74 6.65992C31.9133 6.03325 33.2333 5.71992 34.7 5.71992C35.98 5.71992 37.1333 5.94659 38.16 6.39992C39.1867 6.85326 40.04 7.50659 40.72 8.35992L38.2 10.6399C37.2933 9.54659 36.1933 8.99992 34.9 8.99992C34.14 8.99992 33.46 9.16659 32.86 9.49992C32.2733 9.83326 31.8133 10.3066 31.48 10.9199C31.16 11.5199 31 12.2133 31 12.9999C31 13.7866 31.16 14.4866 31.48 15.0999C31.8133 15.6999 32.2733 16.1666 32.86 16.4999C33.46 16.8333 34.14 16.9999 34.9 16.9999C36.1933 16.9999 37.2933 16.4533 38.2 15.3599L40.72 17.6399C40.04 18.4933 39.1867 19.1466 38.16 19.5999C37.1333 20.0533 35.98 20.2799 34.7 20.2799Z" fill="#C3CDDC"/>
<path d="M47.2098 8.97992C49.0098 8.97992 50.3832 9.39326 51.3298 10.2199C52.2765 11.0333 52.7498 12.2866 52.7498 13.9799V19.9999H49.2098V18.5999C48.6632 19.6533 47.5965 20.1799 46.0098 20.1799C45.1698 20.1799 44.4432 20.0333 43.8298 19.7399C43.2165 19.4466 42.7498 19.0533 42.4298 18.5599C42.1232 18.0533 41.9698 17.4799 41.9698 16.8399C41.9698 15.8133 42.3632 15.0199 43.1498 14.4599C43.9365 13.8866 45.1498 13.5999 46.7898 13.5999H48.9498C48.8832 12.4533 48.1165 11.8799 46.6498 11.8799C46.1298 11.8799 45.6032 11.9666 45.0698 12.1399C44.5365 12.2999 44.0832 12.5266 43.7098 12.8199L42.4298 10.2399C43.0298 9.83992 43.7565 9.53326 44.6098 9.31992C45.4765 9.09326 46.3432 8.97992 47.2098 8.97992ZM47.0698 17.7799C47.5098 17.7799 47.8965 17.6733 48.2298 17.4599C48.5632 17.2466 48.8032 16.9333 48.9498 16.5199V15.5799H47.3098C46.2032 15.5799 45.6498 15.9466 45.6498 16.6799C45.6498 17.0133 45.7765 17.2799 46.0298 17.4799C46.2832 17.6799 46.6298 17.7799 47.0698 17.7799Z" fill="#C3CDDC"/>
<path d="M59.1684 10.4599C59.5551 9.96659 60.0551 9.59992 60.6684 9.35992C61.2951 9.10659 62.0084 8.97992 62.8084 8.97992V12.3999C62.4618 12.3599 62.1751 12.3399 61.9484 12.3399C61.1351 12.3399 60.4951 12.5599 60.0284 12.9999C59.5751 13.4399 59.3484 14.1133 59.3484 15.0199V19.9999H55.5484V9.15992H59.1684V10.4599Z" fill="#C3CDDC"/>
<path d="M74.9759 20.1799C74.0693 20.1799 73.1759 20.0799 72.2959 19.8799C71.4159 19.6666 70.7093 19.3933 70.1759 19.0599L71.3159 16.4599C71.8093 16.7666 72.3959 17.0133 73.0759 17.1999C73.7559 17.3733 74.4293 17.4599 75.0959 17.4599C75.7093 17.4599 76.1426 17.3999 76.3959 17.2799C76.6626 17.1466 76.7959 16.9599 76.7959 16.7199C76.7959 16.4799 76.6359 16.3133 76.3159 16.2199C76.0093 16.1133 75.5159 16.0133 74.8359 15.9199C73.9693 15.8133 73.2293 15.6733 72.6159 15.4999C72.0159 15.3266 71.4959 15.0066 71.0559 14.5399C70.6159 14.0733 70.3959 13.4199 70.3959 12.5799C70.3959 11.8866 70.6026 11.2733 71.0159 10.7399C71.4293 10.1933 72.0293 9.76659 72.8159 9.45992C73.6159 9.13992 74.5693 8.97992 75.6759 8.97992C76.4626 8.97992 77.2426 9.05992 78.0159 9.21992C78.7893 9.37992 79.4359 9.60659 79.9559 9.89992L78.8159 12.4799C77.8559 11.9466 76.8159 11.6799 75.6959 11.6799C75.0959 11.6799 74.6559 11.7533 74.3759 11.8999C74.0959 12.0333 73.9559 12.2133 73.9559 12.4399C73.9559 12.6933 74.1093 12.8733 74.4159 12.9799C74.7226 13.0733 75.2293 13.1733 75.9359 13.2799C76.8293 13.4133 77.5693 13.5666 78.1559 13.7399C78.7426 13.9133 79.2493 14.2333 79.6759 14.6999C80.1159 15.1533 80.3359 15.7933 80.3359 16.6199C80.3359 17.2999 80.1293 17.9133 79.7159 18.4599C79.3026 18.9933 78.6893 19.4133 77.8759 19.7199C77.0759 20.0266 76.1093 20.1799 74.9759 20.1799Z" fill="#C3CDDC"/>
<path d="M93.4534 14.5999C93.4534 14.6266 93.4334 14.9399 93.3934 15.5399H85.5134C85.6734 16.0999 85.9801 16.5333 86.4334 16.8399C86.9001 17.1333 87.4801 17.2799 88.1734 17.2799C88.6934 17.2799 89.1401 17.2066 89.5134 17.0599C89.9001 16.9133 90.2868 16.6733 90.6734 16.3399L92.6734 18.4199C91.6201 19.5933 90.0801 20.1799 88.0534 20.1799C86.7868 20.1799 85.6734 19.9399 84.7134 19.4599C83.7534 18.9799 83.0068 18.3133 82.4734 17.4599C81.9534 16.6066 81.6934 15.6399 81.6934 14.5599C81.6934 13.4933 81.9468 12.5399 82.4534 11.6999C82.9734 10.8466 83.6868 10.1799 84.5934 9.69992C85.5001 9.21992 86.5201 8.97992 87.6534 8.97992C88.7334 8.97992 89.7134 9.20659 90.5934 9.65992C91.4734 10.0999 92.1668 10.7466 92.6734 11.5999C93.1934 12.4399 93.4534 13.4399 93.4534 14.5999ZM87.6734 11.6799C87.0868 11.6799 86.5934 11.8466 86.1934 12.1799C85.8068 12.5133 85.5601 12.9666 85.4534 13.5399H89.8934C89.7868 12.9666 89.5334 12.5133 89.1334 12.1799C88.7468 11.8466 88.2601 11.6799 87.6734 11.6799Z" fill="#C3CDDC"/>
<path d="M99.2255 10.4599C99.6121 9.96659 100.112 9.59992 100.725 9.35992C101.352 9.10659 102.065 8.97992 102.865 8.97992V12.3999C102.519 12.3599 102.232 12.3399 102.005 12.3399C101.192 12.3399 100.552 12.5599 100.085 12.9999C99.6321 13.4399 99.4055 14.1133 99.4055 15.0199V19.9999H95.6055V9.15992H99.2255V10.4599Z" fill="#C3CDDC"/>
<path d="M116.586 9.15992L112.106 19.9999H108.186L103.726 9.15992H107.626L110.226 15.7799L112.966 9.15992H116.586Z" fill="#C3CDDC"/>
<path d="M117.968 9.15992H121.768V19.9999H117.968V9.15992ZM119.868 7.95992C119.175 7.95992 118.615 7.76659 118.188 7.37992C117.761 6.99325 117.548 6.51325 117.548 5.93992C117.548 5.36659 117.761 4.88659 118.188 4.49992C118.615 4.11325 119.175 3.91992 119.868 3.91992C120.561 3.91992 121.121 4.10659 121.548 4.47992C121.975 4.83992 122.188 5.30659 122.188 5.87992C122.188 6.47992 121.975 6.97992 121.548 7.37992C121.121 7.76659 120.561 7.95992 119.868 7.95992Z" fill="#C3CDDC"/>
<path d="M130.177 20.1799C128.978 20.1799 127.904 19.9399 126.957 19.4599C126.011 18.9799 125.271 18.3133 124.737 17.4599C124.217 16.6066 123.957 15.6399 123.957 14.5599C123.957 13.4799 124.217 12.5199 124.737 11.6799C125.271 10.8266 126.011 10.1666 126.957 9.69992C127.904 9.21992 128.978 8.97992 130.177 8.97992C131.404 8.97992 132.464 9.24659 133.357 9.77992C134.251 10.2999 134.884 11.0266 135.257 11.9599L132.317 13.4599C131.824 12.4866 131.104 11.9999 130.157 11.9999C129.477 11.9999 128.911 12.2266 128.457 12.6799C128.017 13.1333 127.797 13.7599 127.797 14.5599C127.797 15.3733 128.017 16.0133 128.457 16.4799C128.911 16.9333 129.477 17.1599 130.157 17.1599C131.104 17.1599 131.824 16.6733 132.317 15.6999L135.257 17.1999C134.884 18.1333 134.251 18.8666 133.357 19.3999C132.464 19.9199 131.404 20.1799 130.177 20.1799Z" fill="#C3CDDC"/>
<path d="M148.051 14.5999C148.051 14.6266 148.031 14.9399 147.991 15.5399H140.111C140.271 16.0999 140.578 16.5333 141.031 16.8399C141.498 17.1333 142.078 17.2799 142.771 17.2799C143.291 17.2799 143.738 17.2066 144.111 17.0599C144.498 16.9133 144.884 16.6733 145.271 16.3399L147.271 18.4199C146.218 19.5933 144.678 20.1799 142.651 20.1799C141.384 20.1799 140.271 19.9399 139.311 19.4599C138.351 18.9799 137.604 18.3133 137.071 17.4599C136.551 16.6066 136.291 15.6399 136.291 14.5599C136.291 13.4933 136.544 12.5399 137.051 11.6999C137.571 10.8466 138.284 10.1799 139.191 9.69992C140.098 9.21992 141.118 8.97992 142.251 8.97992C143.331 8.97992 144.311 9.20659 145.191 9.65992C146.071 10.0999 146.764 10.7466 147.271 11.5999C147.791 12.4399 148.051 13.4399 148.051 14.5999ZM142.271 11.6799C141.684 11.6799 141.191 11.8466 140.791 12.1799C140.404 12.5133 140.158 12.9666 140.051 13.5399H144.491C144.384 12.9666 144.131 12.5133 143.731 12.1799C143.344 11.8466 142.858 11.6799 142.271 11.6799Z" fill="#C3CDDC"/>
<path d="M18.9575 8.61792H17.2141V8.49609C17.1603 7.8632 16.8781 7.11525 15.8704 7.07802C15.6713 7.06145 15.4717 7.10388 15.2962 7.20008C15.1208 7.29629 14.977 7.44208 14.8827 7.61952C14.8426 7.3103 14.6918 7.02649 14.4585 6.82145C14.2253 6.6164 13.9258 6.50426 13.6163 6.50606C13.3859 6.463 13.148 6.49024 12.9332 6.58431C12.7183 6.67838 12.5362 6.83498 12.4103 7.03403C12.5245 5.12184 12.7026 2.06574 12.7194 1.619C12.7388 1.40022 12.7133 1.17973 12.6446 0.971286C12.5758 0.762843 12.4652 0.570898 12.3196 0.407379C12.1595 0.259558 11.9702 0.147541 11.7641 0.0787099C11.558 0.00987905 11.3397 -0.0142042 11.1237 0.00802273C10.0252 0.0452511 9.65907 1.05718 9.61876 1.58514L9.2089 6.46882C8.9032 5.07445 8.33213 2.43802 8.32877 2.42448C8.30237 2.20624 8.23145 1.99585 8.12046 1.80656C8.00946 1.61727 7.8608 1.45317 7.68382 1.32456C7.49762 1.21391 7.29008 1.14458 7.07515 1.12123C6.86023 1.09789 6.64283 1.12106 6.4375 1.18917C6.05084 1.29823 5.71966 1.55102 5.51079 1.8965C5.30192 2.24198 5.23093 2.65443 5.31215 3.05059C5.57753 4.45173 6.65586 8.59761 6.65586 8.59761H4.92247C4.61927 8.19716 4.22616 7.87486 3.77534 7.65718C3.32453 7.4395 2.82888 7.33264 2.32912 7.34538C1.48608 7.34169 0.674021 7.6653 0.0616098 8.24901C0.032646 8.27795 0.0127553 8.31484 0.00440543 8.35506C-0.0039444 8.39529 -0.00036923 8.4371 0.0146571 8.47531C0.0296835 8.51351 0.0554886 8.54643 0.0889203 8.56998C0.122352 8.59352 0.161936 8.60666 0.202714 8.60776H1.99319C2.04754 8.60776 2.09968 8.6295 2.13811 8.66822C2.17654 8.70693 2.1981 8.75945 2.1981 8.8142V12.537C2.19855 12.564 2.19368 12.5908 2.18375 12.6158C2.17382 12.6408 2.15904 12.6636 2.14028 12.6828C2.12152 12.702 2.09914 12.7173 2.07447 12.7277C2.04979 12.7381 2.02331 12.7435 1.99655 12.7435H0.202714C0.165188 12.7464 0.129193 12.7598 0.0986799 12.782C0.0681672 12.8042 0.0443231 12.8344 0.0297476 12.8694C0.015172 12.9043 0.010427 12.9427 0.0160513 12.9802C0.0216757 13.0177 0.0374304 13.0529 0.0616098 13.0819C0.674663 13.6654 1.48574 13.9911 2.32912 13.9923C2.83235 14.0049 3.33151 13.8985 3.78654 13.6816C4.24157 13.4647 4.63983 13.1434 4.94937 12.7435H5.1845C5.1845 12.8416 5.161 12.9398 5.15764 13.0312C5.10725 14.2157 5.93363 15.6473 7.37811 16.9131C7.20464 17.17 7.11414 17.4747 7.11895 17.7854C7.12376 18.0962 7.22363 18.3979 7.40497 18.6493C7.9391 19.4006 8.81586 19.6646 9.96473 19.871C10.5482 19.9615 11.138 20.0045 11.7284 19.9996C12.2278 20.002 12.727 19.9749 13.2233 19.9184C13.9757 19.8237 15.5109 19.4378 15.9577 18.6594C16.1119 18.4523 16.188 18.1967 16.1727 17.9382C16.1573 17.6798 16.0513 17.4352 15.8737 17.2481C16.1899 16.9597 16.4647 16.6282 16.69 16.2633C17.4861 15.0449 17.4324 13.461 17.3619 12.7435H18.9844C19.5155 12.7435 20.0251 12.5324 20.4025 12.1559C20.78 11.7795 20.9947 11.2682 21 10.7332C21.0028 10.1812 20.7902 9.65025 20.4082 9.25462C20.0262 8.85899 19.5052 8.63034 18.9575 8.61792ZM14.8962 8.4047C14.9082 8.16316 15.0118 7.93547 15.1855 7.7686C15.3593 7.60173 15.59 7.50839 15.8301 7.50783C16.4347 7.50783 16.7169 7.75489 16.7841 8.52315C16.8614 9.42365 16.8704 10.3288 16.8109 11.2307C16.7605 11.7349 16.6027 12.4829 15.8032 12.4592C14.839 12.4287 14.7181 11.7417 14.7181 11.4168C14.7181 10.6012 14.8357 9.47079 14.8962 8.4047ZM12.4472 7.80566C12.4824 7.53991 12.6204 7.29895 12.8313 7.13537C13.0421 6.97178 13.3086 6.89885 13.5726 6.93248C14.2444 6.98663 14.4695 7.27093 14.4695 8.12718C14.4695 8.98343 14.231 10.8178 14.2008 11.0581C14.1706 11.2983 14.0261 12.114 12.9579 12.0158C12.8195 12.0127 12.6832 11.9809 12.5576 11.9225C12.4319 11.864 12.3196 11.78 12.2276 11.6759C12.1356 11.5717 12.0658 11.4496 12.0227 11.3171C11.9796 11.1846 11.964 11.0446 11.9769 10.9058C11.9971 10.4184 12.4472 7.80566 12.4472 7.80566ZM9.49447 7.76505L10.0118 1.61561C10.0362 1.40403 10.0989 1.19871 10.1965 1.00979C10.2782 0.835339 10.4076 0.687953 10.5694 0.584861C10.7312 0.481769 10.9188 0.427249 11.1103 0.427684C11.2686 0.408636 11.4292 0.423506 11.5814 0.471332C11.7337 0.519158 11.8742 0.598862 11.9937 0.705207C12.1996 0.953218 12.2998 1.27316 12.2726 1.5953C12.2457 2.23157 11.8762 8.49608 11.8728 8.557V8.59423H9.64562C9.61203 8.44193 9.55492 8.17456 9.48102 7.82935C9.49054 7.80931 9.49517 7.78725 9.49447 7.76505ZM5.69848 2.98967C5.67701 2.7785 5.6941 2.56516 5.74887 2.36018C5.79208 2.17331 5.88696 2.0026 6.02251 1.86783C6.15807 1.73306 6.32876 1.63974 6.5148 1.59869C6.66471 1.54633 6.82389 1.5265 6.98195 1.5405C7.14 1.5545 7.29333 1.60201 7.43187 1.67991C7.68488 1.87906 7.84917 2.17115 7.88873 2.49216L9.21226 8.58406H7.07577C7.07577 8.58406 5.95042 4.40773 5.69848 2.98967ZM4.60671 12.1546C4.37052 12.4897 4.0708 12.7744 3.72486 12.9922C3.37893 13.21 2.99363 13.3567 2.59115 13.4238H2.55757C2.52177 13.4183 2.48908 13.4002 2.46547 13.3725C2.44185 13.3449 2.42885 13.3096 2.42885 13.2732C2.42885 13.2367 2.44185 13.2014 2.46547 13.1738C2.48908 13.1461 2.52177 13.128 2.55757 13.1225C2.9213 13.061 3.26945 12.9279 3.58212 12.7308C3.89479 12.5337 4.16583 12.2765 4.37982 11.9738C4.59382 11.6712 4.74656 11.329 4.8293 10.9669C4.91203 10.6048 4.92314 10.2298 4.86202 9.86337C4.86141 9.8267 4.87396 9.79102 4.89737 9.76292C4.92077 9.73482 4.95347 9.71617 4.98943 9.71041C5.02539 9.70465 5.06219 9.71215 5.09309 9.73154C5.124 9.75094 5.14692 9.78093 5.15764 9.81599C5.22477 10.2231 5.21061 10.6397 5.11602 11.0412C5.02142 11.4428 4.84827 11.8213 4.60671 12.1546ZM16.3373 16.0433C15.9468 16.7608 15.2895 17.2928 14.5098 17.5223C13.8641 17.6982 13.1836 17.6982 12.5379 17.5223C12.5109 17.5098 12.4815 17.5033 12.4517 17.5031C12.4219 17.5029 12.3925 17.509 12.3652 17.521C12.338 17.5331 12.3135 17.5508 12.2935 17.573C12.2735 17.5952 12.2584 17.6214 12.2491 17.6499C12.2398 17.6784 12.2366 17.7085 12.2397 17.7383C12.2428 17.7682 12.2521 17.797 12.267 17.823C12.2819 17.8489 12.302 17.8715 12.3261 17.889C12.3503 17.9066 12.3778 17.9189 12.4069 17.925C12.7627 18.0286 13.1317 18.0788 13.5021 18.0739C13.8814 18.0739 14.2588 18.0215 14.624 17.9182C14.9471 17.8295 15.2543 17.6901 15.5344 17.5053C15.6645 17.624 15.7432 17.7893 15.7539 17.9657C15.7646 18.1422 15.7063 18.3158 15.5915 18.4496C15.2556 19.0317 13.9119 19.4006 13.1695 19.4954C12.1261 19.6142 11.072 19.6005 10.0319 19.4547C8.95362 19.2754 8.19441 19.0351 7.74762 18.4022C7.61847 18.2276 7.54514 18.0175 7.53734 17.7999C7.52954 17.5822 7.58763 17.3674 7.70395 17.1838C8.26434 17.6105 8.94997 17.8368 9.65235 17.8268C10.15 17.825 10.643 17.7309 11.1069 17.5493C11.1325 17.5383 11.1558 17.5222 11.1752 17.5021C11.1947 17.482 11.21 17.4582 11.2203 17.4321C11.2306 17.406 11.2357 17.3781 11.2352 17.35C11.2348 17.3219 11.2289 17.2942 11.2178 17.2684C11.1949 17.2177 11.1535 17.1778 11.1022 17.157C11.0509 17.1362 10.9937 17.1361 10.9423 17.1567C10.9221 17.1567 9.21564 17.881 7.88873 16.7912C6.41401 15.583 5.53724 14.148 5.57755 13.0481C5.61786 11.9482 6.18555 10.4455 7.60988 10.0021C8.8864 9.59938 10.5392 10.0664 10.9288 10.591C11.5738 11.4608 11.2648 12.2629 10.4955 12.6216C9.4172 13.1564 7.42176 12.8586 7.40161 12.8552C7.37402 12.8508 7.34589 12.8521 7.31878 12.8588C7.29166 12.8654 7.26613 12.8775 7.24365 12.8941C7.22117 12.9108 7.20216 12.9318 7.18776 12.9559C7.17336 12.98 7.16385 13.0067 7.15975 13.0345C7.15548 13.0621 7.15672 13.0903 7.1634 13.1174C7.17008 13.1445 7.18204 13.17 7.19863 13.1924C7.21521 13.2148 7.23608 13.2336 7.25997 13.2477C7.28387 13.2619 7.31033 13.2711 7.3378 13.2748C7.42514 13.2748 9.48438 13.5963 10.6971 13.0041C10.8297 12.938 10.9548 12.8574 11.0699 12.7638L16.9419 12.7367C16.9856 13.4001 17.0562 14.923 16.3239 16.0433H16.3373ZM20.234 10.9667C20.2016 11.2179 20.1199 11.4601 19.9935 11.6792C19.8672 11.8982 19.6989 12.0897 19.4983 12.2426C19.4696 12.2623 19.4357 12.2729 19.401 12.2731C19.3787 12.2718 19.3569 12.2657 19.3372 12.2552C19.3175 12.2447 19.3003 12.23 19.2867 12.2121C19.2747 12.1966 19.2659 12.1789 19.2608 12.1599C19.2556 12.1409 19.2542 12.1211 19.2567 12.1016C19.2592 12.0821 19.2656 12.0632 19.2753 12.0462C19.2851 12.0292 19.2981 12.0143 19.3136 12.0023C19.6539 11.7412 19.8775 11.3548 19.9354 10.9278C19.9933 10.5009 19.8809 10.0682 19.6226 9.7246C19.6074 9.70922 19.5957 9.69076 19.5882 9.67042C19.5806 9.65008 19.5775 9.62835 19.5789 9.60669C19.5804 9.58504 19.5865 9.56396 19.5967 9.54485C19.6069 9.52574 19.6211 9.50905 19.6382 9.49591C19.6554 9.48277 19.6751 9.47347 19.6961 9.46865C19.7171 9.46382 19.7389 9.46357 19.7601 9.46792C19.7812 9.47227 19.8011 9.48112 19.8185 9.49387C19.836 9.50662 19.8505 9.52298 19.8612 9.54185C20.1614 9.94726 20.2905 10.4557 20.2206 10.9565L20.234 10.9667Z" fill="#C3CDDC"/>
<path d="M28.52 34.5386C28.2779 34.5386 28.0612 34.5016 27.8698 34.4277C27.684 34.3537 27.5264 34.2513 27.3969 34.1205C27.2674 33.9896 27.1689 33.836 27.1013 33.6597C27.0338 33.4833 27 33.2928 27 33.088C27 32.6385 27.1379 32.283 27.4138 32.0213C27.6896 31.7596 28.1287 31.6288 28.7311 31.6288H29.7022V31.5093C29.7022 31.3614 29.6712 31.259 29.6093 31.2021C29.5474 31.1395 29.4657 31.1082 29.3644 31.1082C29.2574 31.1082 29.1786 31.1253 29.128 31.1594C29.0829 31.1879 29.0492 31.2334 29.0266 31.296H27.2533C27.2646 31.0741 27.3153 30.8693 27.4053 30.6816C27.4954 30.4939 27.6277 30.3317 27.8022 30.1952C27.9824 30.0587 28.2047 29.9534 28.4693 29.8795C28.7339 29.7998 29.0463 29.76 29.4066 29.76C29.7219 29.76 30.0118 29.7941 30.2764 29.8624C30.541 29.9307 30.7662 30.0416 30.9519 30.1952C31.1433 30.3431 31.2925 30.5394 31.3995 30.784C31.5065 31.0286 31.5599 31.3273 31.5599 31.68V33.2586C31.5599 33.4976 31.5656 33.708 31.5768 33.8901C31.5937 34.0664 31.6162 34.24 31.6444 34.4106H29.8711C29.8486 34.348 29.8288 34.2798 29.812 34.2058C29.7951 34.1319 29.7866 34.0295 29.7866 33.8986C29.736 33.984 29.6769 34.0664 29.6093 34.1461C29.5417 34.22 29.4573 34.2883 29.356 34.3509C29.2603 34.4078 29.1449 34.4533 29.0097 34.4874C28.8746 34.5215 28.7114 34.5386 28.52 34.5386ZM29.2377 33.1904C29.5474 33.1904 29.7022 33.0282 29.7022 32.704V32.6186H29.2377C29.0182 32.6186 28.9084 32.7125 28.9084 32.9002C28.9084 33.0937 29.0182 33.1904 29.2377 33.1904Z" fill="#C3CDDC"/>
<path d="M32.2784 29.888H34.6597L35.2592 31.5946L35.8588 29.888H38.1894V34.4106H36.5005V31.9786L35.825 33.6426H34.6428L33.9672 31.9786V34.4106H32.2784V29.888Z" fill="#C3CDDC"/>
<path d="M41.2676 34.5386C40.8961 34.5386 40.5583 34.4903 40.2543 34.3936C39.9503 34.2968 39.6885 34.1546 39.469 33.9669C39.2494 33.7735 39.0777 33.5345 38.9539 33.2501C38.8356 32.96 38.7765 32.6215 38.7765 32.2346V32.064C38.7765 31.6828 38.8328 31.3472 38.9454 31.057C39.0636 30.7669 39.2269 30.528 39.4352 30.3403C39.6491 30.1468 39.9024 30.0018 40.1952 29.9051C40.4935 29.8083 40.8229 29.76 41.1832 29.76C42.0051 29.76 42.6103 29.9591 42.9987 30.3573C43.3928 30.7498 43.5898 31.333 43.5898 32.1066V32.6186H40.6596C40.6821 32.8121 40.7356 32.9571 40.8201 33.0538C40.9101 33.1449 41.0593 33.1904 41.2676 33.1904C41.4252 33.1904 41.5406 33.1648 41.6138 33.1136C41.687 33.0567 41.7405 32.9913 41.7743 32.9173H43.5476C43.4631 33.4748 43.2267 33.8844 42.8383 34.1461C42.4554 34.4078 41.9319 34.5386 41.2676 34.5386ZM41.2254 31.1082C41.034 31.1082 40.8961 31.1594 40.8116 31.2618C40.7328 31.3586 40.685 31.4809 40.6681 31.6288H41.7489C41.732 31.4809 41.6842 31.3586 41.6054 31.2618C41.5266 31.1594 41.3999 31.1082 41.2254 31.1082Z" fill="#C3CDDC"/>
<path d="M44.1776 29.888H45.9002V30.4C45.9509 30.3033 46.0128 30.2151 46.086 30.1355C46.1592 30.0558 46.2493 29.9904 46.3562 29.9392C46.4632 29.8823 46.5899 29.8396 46.7362 29.8112C46.8826 29.7771 47.0571 29.76 47.2598 29.76C47.5244 29.76 47.7664 29.8083 47.986 29.9051C48.2055 30.0018 48.3913 30.1468 48.5433 30.3403C48.7009 30.528 48.822 30.7669 48.9064 31.057C48.9909 31.3472 49.0331 31.6828 49.0331 32.064V32.2346C49.0331 32.6329 48.9852 32.977 48.8895 33.2672C48.7938 33.5573 48.6644 33.7962 48.5011 33.984C48.3435 34.1717 48.1577 34.3111 47.9438 34.4021C47.7298 34.4931 47.5019 34.5386 47.2598 34.5386C47.0065 34.5386 46.7728 34.4903 46.5589 34.3936C46.3506 34.2912 46.1761 34.1404 46.0354 33.9413V36.1173H44.1776V29.888ZM46.6011 33.0197C46.7193 33.0197 46.8347 32.9628 46.9473 32.849C47.0656 32.7296 47.1247 32.5248 47.1247 32.2346V32.064C47.1247 31.7795 47.0712 31.5776 46.9642 31.4581C46.8573 31.3386 46.7334 31.2789 46.5927 31.2789C46.4463 31.2789 46.3168 31.3386 46.2042 31.4581C46.0917 31.5719 46.0354 31.7596 46.0354 32.0213V32.2773C46.0354 32.5447 46.0945 32.7353 46.2127 32.849C46.3309 32.9628 46.4604 33.0197 46.6011 33.0197Z" fill="#C3CDDC"/>
<path d="M49.6242 29.888H51.4819V31.7653L52.7064 29.888H54.2686V34.4106H52.4108V32.5333L51.1864 34.4106H49.6242V29.888Z" fill="#C3CDDC"/>
<path d="M55.0296 29.888H56.8873V31.424H57.0562L57.7993 29.888H59.7584L58.6944 31.9189L59.8428 34.4106H57.7486L57.0562 32.7893H56.8873V34.4106H55.0296V29.888Z" fill="#C3CDDC"/>
<path d="M61.5541 34.5386C61.312 34.5386 61.0953 34.5016 60.9039 34.4277C60.7181 34.3537 60.5605 34.2513 60.431 34.1205C60.3015 33.9896 60.203 33.836 60.1355 33.6597C60.0679 33.4833 60.0341 33.2928 60.0341 33.088C60.0341 32.6385 60.1721 32.283 60.4479 32.0213C60.7237 31.7596 61.1629 31.6288 61.7652 31.6288H62.7363V31.5093C62.7363 31.3614 62.7053 31.259 62.6434 31.2021C62.5815 31.1395 62.4999 31.1082 62.3985 31.1082C62.2916 31.1082 62.2128 31.1253 62.1621 31.1594C62.1171 31.1879 62.0833 31.2334 62.0608 31.296H60.2875C60.2987 31.0741 60.3494 30.8693 60.4395 30.6816C60.5295 30.4939 60.6618 30.3317 60.8363 30.1952C61.0165 30.0587 61.2389 29.9534 61.5034 29.8795C61.768 29.7998 62.0805 29.76 62.4408 29.76C62.756 29.76 63.0459 29.7941 63.3105 29.8624C63.5751 29.9307 63.8003 30.0416 63.9861 30.1952C64.1775 30.3431 64.3267 30.5394 64.4336 30.784C64.5406 31.0286 64.5941 31.3273 64.5941 31.68V33.2586C64.5941 33.4976 64.5997 33.708 64.611 33.8901C64.6278 34.0664 64.6504 34.24 64.6785 34.4106H62.9052C62.8827 34.348 62.863 34.2798 62.8461 34.2058C62.8292 34.1319 62.8208 34.0295 62.8208 33.8986C62.7701 33.984 62.711 34.0664 62.6434 34.1461C62.5759 34.22 62.4914 34.2883 62.3901 34.3509C62.2944 34.4078 62.179 34.4533 62.0439 34.4874C61.9088 34.5215 61.7455 34.5386 61.5541 34.5386ZM62.2719 33.1904C62.5815 33.1904 62.7363 33.0282 62.7363 32.704V32.6186H62.2719C62.0523 32.6186 61.9425 32.7125 61.9425 32.9002C61.9425 33.0937 62.0523 33.1904 62.2719 33.1904Z" fill="#C3CDDC"/>
<path d="M65.3125 29.888H67.1702V31.3557H68.0991V29.888H69.9569V34.4106H68.0991V32.8576H67.1702V34.4106H65.3125V29.888Z" fill="#C3CDDC"/>
<path d="M72.9134 34.5386C72.5531 34.5386 72.2266 34.4817 71.9338 34.368C71.6467 34.2542 71.399 34.0949 71.1907 33.8901C70.9881 33.6853 70.8304 33.4407 70.7178 33.1562C70.6053 32.8661 70.549 32.5447 70.549 32.192V32.0213C70.549 31.6914 70.6053 31.3898 70.7178 31.1168C70.8304 30.838 70.9881 30.5991 71.1907 30.4C71.399 30.1952 71.6467 30.0387 71.9338 29.9307C72.2266 29.8169 72.5531 29.76 72.9134 29.76C73.3412 29.76 73.7015 29.8112 73.9942 29.9136C74.287 30.016 74.5234 30.1582 74.7036 30.3403C74.8893 30.5223 75.0244 30.7356 75.1089 30.9802C75.199 31.2249 75.2553 31.4866 75.2778 31.7653H73.5382C73.5157 31.5833 73.4623 31.4581 73.3778 31.3898C73.2934 31.3159 73.1808 31.2789 73.04 31.2789C72.8486 31.2789 72.7023 31.3443 72.6009 31.4752C72.5052 31.6003 72.4574 31.7824 72.4574 32.0213V32.192C72.4574 32.7438 72.6516 33.0197 73.04 33.0197C73.1695 33.0197 73.2793 32.9856 73.3694 32.9173C73.4594 32.8433 73.5157 32.7153 73.5382 32.5333H75.2778C75.2553 32.8462 75.1962 33.1278 75.1004 33.3781C75.0047 33.6227 74.8612 33.8332 74.6698 34.0096C74.484 34.1802 74.2448 34.3111 73.952 34.4021C73.6649 34.4931 73.3187 34.5386 72.9134 34.5386Z" fill="#C3CDDC"/>
<path d="M75.8676 29.888H77.7253V31.424H77.8942L78.6373 29.888H80.5964L79.5324 31.9189L80.6808 34.4106H78.5866L77.8942 32.7893H77.7253V34.4106H75.8676V29.888Z" fill="#C3CDDC"/>
<path d="M81.1657 29.888H83.0235V31.7653L84.2479 29.888H85.8101V34.4106H83.9523V32.5333L82.7279 34.4106H81.1657V29.888Z" fill="#C3CDDC"/>
<path d="M87.4746 32.064L86.3769 29.888H88.3866L88.8595 30.9888L89.307 29.888H91.2746L90.1768 32.0213L91.359 34.4106H89.3493L88.7919 33.105L88.2684 34.4106H86.2924L87.4746 32.064Z" fill="#C3CDDC"/>
<path d="M93.6956 29.888H95.5534V31.7653L96.7778 29.888H98.34V34.4106H96.4823V32.5333L95.2578 34.4106H93.6956V29.888Z" fill="#C3CDDC"/>
<path d="M100.96 29.888H102.818V31.424H102.987L103.73 29.888H105.689L104.625 31.9189L105.774 34.4106H103.679L102.987 32.7893H102.818V34.4106H100.96V29.888Z" fill="#C3CDDC"/>
<path d="M108.283 34.5386C107.939 34.5386 107.619 34.4931 107.32 34.4021C107.022 34.3054 106.763 34.1603 106.543 33.9669C106.324 33.7735 106.149 33.5288 106.02 33.233C105.896 32.9372 105.834 32.5902 105.834 32.192V32.0213C105.834 31.6515 105.896 31.3273 106.02 31.0485C106.149 30.7641 106.324 30.528 106.543 30.3403C106.763 30.1468 107.022 30.0018 107.32 29.9051C107.619 29.8083 107.939 29.76 108.283 29.76C108.626 29.76 108.947 29.8083 109.246 29.9051C109.544 30.0018 109.803 30.1468 110.022 30.3403C110.242 30.528 110.414 30.7641 110.538 31.0485C110.667 31.3273 110.732 31.6515 110.732 32.0213V32.192C110.732 32.5788 110.667 32.9201 110.538 33.216C110.414 33.5061 110.242 33.7507 110.022 33.9498C109.803 34.1432 109.544 34.2912 109.246 34.3936C108.947 34.4903 108.626 34.5386 108.283 34.5386ZM108.283 33.0197C108.452 33.0197 108.584 32.9571 108.68 32.832C108.775 32.7068 108.823 32.4935 108.823 32.192V32.0213C108.823 31.7596 108.775 31.5719 108.68 31.4581C108.584 31.3386 108.452 31.2789 108.283 31.2789C108.114 31.2789 107.982 31.3386 107.886 31.4581C107.79 31.5719 107.742 31.7596 107.742 32.0213V32.192C107.742 32.4935 107.79 32.7068 107.886 32.832C107.982 32.9571 108.114 33.0197 108.283 33.0197Z" fill="#C3CDDC"/>
<path d="M111.326 29.888H113.048V30.4C113.099 30.3033 113.161 30.2151 113.234 30.1355C113.307 30.0558 113.397 29.9904 113.504 29.9392C113.611 29.8823 113.738 29.8396 113.884 29.8112C114.031 29.7771 114.205 29.76 114.408 29.76C114.673 29.76 114.915 29.8083 115.134 29.9051C115.354 30.0018 115.54 30.1468 115.692 30.3403C115.849 30.528 115.97 30.7669 116.055 31.057C116.139 31.3472 116.181 31.6828 116.181 32.064V32.2346C116.181 32.6329 116.133 32.977 116.038 33.2672C115.942 33.5573 115.813 33.7962 115.649 33.984C115.492 34.1717 115.306 34.3111 115.092 34.4021C114.878 34.4931 114.65 34.5386 114.408 34.5386C114.155 34.5386 113.921 34.4903 113.707 34.3936C113.499 34.2912 113.324 34.1404 113.184 33.9413V36.1173H111.326V29.888ZM113.749 33.0197C113.868 33.0197 113.983 32.9628 114.096 32.849C114.214 32.7296 114.273 32.5248 114.273 32.2346V32.064C114.273 31.7795 114.219 31.5776 114.112 31.4581C114.005 31.3386 113.882 31.2789 113.741 31.2789C113.595 31.2789 113.465 31.3386 113.352 31.4581C113.24 31.5719 113.184 31.7596 113.184 32.0213V32.2773C113.184 32.5447 113.243 32.7353 113.361 32.849C113.479 32.9628 113.609 33.0197 113.749 33.0197Z" fill="#C3CDDC"/>
<path d="M119.095 34.5386C118.723 34.5386 118.385 34.4903 118.081 34.3936C117.777 34.2968 117.515 34.1546 117.296 33.9669C117.076 33.7735 116.905 33.5345 116.781 33.2501C116.663 32.96 116.604 32.6215 116.604 32.2346V32.064C116.604 31.6828 116.66 31.3472 116.772 31.057C116.891 30.7669 117.054 30.528 117.262 30.3403C117.476 30.1468 117.729 30.0018 118.022 29.9051C118.321 29.8083 118.65 29.76 119.01 29.76C119.832 29.76 120.437 29.9591 120.826 30.3573C121.22 30.7498 121.417 31.333 121.417 32.1066V32.6186H118.487C118.509 32.8121 118.563 32.9571 118.647 33.0538C118.737 33.1449 118.886 33.1904 119.095 33.1904C119.252 33.1904 119.368 33.1648 119.441 33.1136C119.514 33.0567 119.567 32.9913 119.601 32.9173H121.375C121.29 33.4748 121.054 33.8844 120.665 34.1461C120.282 34.4078 119.759 34.5386 119.095 34.5386ZM119.052 31.1082C118.861 31.1082 118.723 31.1594 118.639 31.2618C118.56 31.3586 118.512 31.4809 118.495 31.6288H119.576C119.559 31.4809 119.511 31.3586 119.432 31.2618C119.354 31.1594 119.227 31.1082 119.052 31.1082Z" fill="#C3CDDC"/>
<path d="M122.005 29.888H123.862V31.7653L125.087 29.888H126.649V34.4106H124.791V32.5333L123.567 34.4106H122.005V29.888ZM124.327 29.4187C124.006 29.4187 123.733 29.3902 123.508 29.3333C123.288 29.2708 123.105 29.1854 122.959 29.0773C122.818 28.9636 122.714 28.827 122.646 28.6677C122.584 28.5084 122.553 28.3321 122.553 28.1387H123.989C123.989 28.3036 124.017 28.4203 124.073 28.4885C124.13 28.5511 124.214 28.5824 124.327 28.5824C124.439 28.5824 124.524 28.5511 124.58 28.4885C124.636 28.4203 124.665 28.3036 124.665 28.1387H126.1C126.1 28.3321 126.066 28.5084 125.999 28.6677C125.937 28.827 125.833 28.9636 125.686 29.0773C125.546 29.1854 125.363 29.2708 125.137 29.3333C124.918 29.3902 124.648 29.4187 124.327 29.4187Z" fill="#C3CDDC"/>
<path d="M129.605 34.5386C129.245 34.5386 128.919 34.4817 128.626 34.368C128.339 34.2542 128.091 34.0949 127.883 33.8901C127.68 33.6853 127.523 33.4407 127.41 33.1562C127.297 32.8661 127.241 32.5447 127.241 32.192V32.0213C127.241 31.6914 127.297 31.3898 127.41 31.1168C127.523 30.838 127.68 30.5991 127.883 30.4C128.091 30.1952 128.339 30.0387 128.626 29.9307C128.919 29.8169 129.245 29.76 129.605 29.76C130.033 29.76 130.394 29.8112 130.686 29.9136C130.979 30.016 131.216 30.1582 131.396 30.3403C131.581 30.5223 131.717 30.7356 131.801 30.9802C131.891 31.2249 131.947 31.4866 131.97 31.7653H130.23C130.208 31.5833 130.154 31.4581 130.07 31.3898C129.985 31.3159 129.873 31.2789 129.732 31.2789C129.541 31.2789 129.394 31.3443 129.293 31.4752C129.197 31.6003 129.149 31.7824 129.149 32.0213V32.192C129.149 32.7438 129.344 33.0197 129.732 33.0197C129.862 33.0197 129.971 32.9856 130.061 32.9173C130.152 32.8433 130.208 32.7153 130.23 32.5333H131.97C131.947 32.8462 131.888 33.1278 131.793 33.3781C131.697 33.6227 131.553 33.8332 131.362 34.0096C131.176 34.1802 130.937 34.3111 130.644 34.4021C130.357 34.4931 130.011 34.5386 129.605 34.5386Z" fill="#C3CDDC"/>
<path d="M132.56 29.888H134.417V31.424H134.586L135.329 29.888H137.288L136.224 31.9189L137.373 34.4106H135.279L134.586 32.7893H134.417V34.4106H132.56V29.888Z" fill="#C3CDDC"/>
<path d="M137.858 29.888H139.716V31.7653L140.94 29.888H142.502V34.4106H140.644V32.5333L139.42 34.4106H137.858V29.888Z" fill="#C3CDDC"/>
<path d="M144.167 32.064L143.069 29.888H145.079L145.552 30.9888L145.999 29.888H147.967L146.869 32.0213L148.051 34.4106H146.041L145.484 33.105L144.96 34.4106H142.985L144.167 32.064Z" fill="#C3CDDC"/>
</svg>
