<svg width="149" height="38" viewBox="0 0 149 38" fill="none" xmlns="http://www.w3.org/2000/svg">
<path d="M34.7 20.2799C33.2333 20.2799 31.9133 19.9733 30.74 19.3599C29.58 18.7333 28.6667 17.8666 28 16.7599C27.3333 15.6533 27 14.3999 27 12.9999C27 11.5999 27.3333 10.3466 28 9.23992C28.6667 8.13325 29.58 7.27325 30.74 6.65992C31.9133 6.03325 33.2333 5.71992 34.7 5.71992C35.98 5.71992 37.1333 5.94659 38.16 6.39992C39.1867 6.85326 40.04 7.50659 40.72 8.35992L38.2 10.6399C37.2933 9.54659 36.1933 8.99992 34.9 8.99992C34.14 8.99992 33.46 9.16659 32.86 9.49992C32.2733 9.83326 31.8133 10.3066 31.48 10.9199C31.16 11.5199 31 12.2133 31 12.9999C31 13.7866 31.16 14.4866 31.48 15.0999C31.8133 15.6999 32.2733 16.1666 32.86 16.4999C33.46 16.8333 34.14 16.9999 34.9 16.9999C36.1933 16.9999 37.2933 16.4533 38.2 15.3599L40.72 17.6399C40.04 18.4933 39.1867 19.1466 38.16 19.5999C37.1333 20.0533 35.98 20.2799 34.7 20.2799Z" fill="#164168"/>
<path d="M47.2098 8.97992C49.0098 8.97992 50.3832 9.39326 51.3298 10.2199C52.2765 11.0333 52.7498 12.2866 52.7498 13.9799V19.9999H49.2098V18.5999C48.6632 19.6533 47.5965 20.1799 46.0098 20.1799C45.1698 20.1799 44.4432 20.0333 43.8298 19.7399C43.2165 19.4466 42.7498 19.0533 42.4298 18.5599C42.1232 18.0533 41.9698 17.4799 41.9698 16.8399C41.9698 15.8133 42.3632 15.0199 43.1498 14.4599C43.9365 13.8866 45.1498 13.5999 46.7898 13.5999H48.9498C48.8832 12.4533 48.1165 11.8799 46.6498 11.8799C46.1298 11.8799 45.6032 11.9666 45.0698 12.1399C44.5365 12.2999 44.0832 12.5266 43.7098 12.8199L42.4298 10.2399C43.0298 9.83992 43.7565 9.53326 44.6098 9.31992C45.4765 9.09326 46.3432 8.97992 47.2098 8.97992ZM47.0698 17.7799C47.5098 17.7799 47.8965 17.6733 48.2298 17.4599C48.5632 17.2466 48.8032 16.9333 48.9498 16.5199V15.5799H47.3098C46.2032 15.5799 45.6498 15.9466 45.6498 16.6799C45.6498 17.0133 45.7765 17.2799 46.0298 17.4799C46.2832 17.6799 46.6298 17.7799 47.0698 17.7799Z" fill="#164168"/>
<path d="M59.1684 10.4599C59.5551 9.96659 60.0551 9.59992 60.6684 9.35992C61.2951 9.10659 62.0084 8.97992 62.8084 8.97992V12.3999C62.4618 12.3599 62.1751 12.3399 61.9484 12.3399C61.1351 12.3399 60.4951 12.5599 60.0284 12.9999C59.5751 13.4399 59.3484 14.1133 59.3484 15.0199V19.9999H55.5484V9.15992H59.1684V10.4599Z" fill="#164168"/>
<path d="M74.9759 20.1799C74.0693 20.1799 73.1759 20.0799 72.2959 19.8799C71.4159 19.6666 70.7093 19.3933 70.1759 19.0599L71.3159 16.4599C71.8093 16.7666 72.3959 17.0133 73.0759 17.1999C73.7559 17.3733 74.4293 17.4599 75.0959 17.4599C75.7093 17.4599 76.1426 17.3999 76.3959 17.2799C76.6626 17.1466 76.7959 16.9599 76.7959 16.7199C76.7959 16.4799 76.6359 16.3133 76.3159 16.2199C76.0093 16.1133 75.5159 16.0133 74.8359 15.9199C73.9693 15.8133 73.2293 15.6733 72.6159 15.4999C72.0159 15.3266 71.4959 15.0066 71.0559 14.5399C70.6159 14.0733 70.3959 13.4199 70.3959 12.5799C70.3959 11.8866 70.6026 11.2733 71.0159 10.7399C71.4293 10.1933 72.0293 9.76659 72.8159 9.45992C73.6159 9.13992 74.5693 8.97992 75.6759 8.97992C76.4626 8.97992 77.2426 9.05992 78.0159 9.21992C78.7893 9.37992 79.4359 9.60659 79.9559 9.89992L78.8159 12.4799C77.8559 11.9466 76.8159 11.6799 75.6959 11.6799C75.0959 11.6799 74.6559 11.7533 74.3759 11.8999C74.0959 12.0333 73.9559 12.2133 73.9559 12.4399C73.9559 12.6933 74.1093 12.8733 74.4159 12.9799C74.7226 13.0733 75.2293 13.1733 75.9359 13.2799C76.8293 13.4133 77.5693 13.5666 78.1559 13.7399C78.7426 13.9133 79.2493 14.2333 79.6759 14.6999C80.1159 15.1533 80.3359 15.7933 80.3359 16.6199C80.3359 17.2999 80.1293 17.9133 79.7159 18.4599C79.3026 18.9933 78.6893 19.4133 77.8759 19.7199C77.0759 20.0266 76.1093 20.1799 74.9759 20.1799Z" fill="#164168"/>
<path d="M93.4534 14.5999C93.4534 14.6266 93.4334 14.9399 93.3934 15.5399H85.5134C85.6734 16.0999 85.9801 16.5333 86.4334 16.8399C86.9001 17.1333 87.4801 17.2799 88.1734 17.2799C88.6934 17.2799 89.1401 17.2066 89.5134 17.0599C89.9001 16.9133 90.2868 16.6733 90.6734 16.3399L92.6734 18.4199C91.6201 19.5933 90.0801 20.1799 88.0534 20.1799C86.7868 20.1799 85.6734 19.9399 84.7134 19.4599C83.7534 18.9799 83.0068 18.3133 82.4734 17.4599C81.9534 16.6066 81.6934 15.6399 81.6934 14.5599C81.6934 13.4933 81.9468 12.5399 82.4534 11.6999C82.9734 10.8466 83.6868 10.1799 84.5934 9.69992C85.5001 9.21992 86.5201 8.97992 87.6534 8.97992C88.7334 8.97992 89.7134 9.20659 90.5934 9.65992C91.4734 10.0999 92.1668 10.7466 92.6734 11.5999C93.1934 12.4399 93.4534 13.4399 93.4534 14.5999ZM87.6734 11.6799C87.0868 11.6799 86.5934 11.8466 86.1934 12.1799C85.8068 12.5133 85.5601 12.9666 85.4534 13.5399H89.8934C89.7868 12.9666 89.5334 12.5133 89.1334 12.1799C88.7468 11.8466 88.2601 11.6799 87.6734 11.6799Z" fill="#164168"/>
<path d="M99.2255 10.4599C99.6121 9.96659 100.112 9.59992 100.725 9.35992C101.352 9.10659 102.065 8.97992 102.865 8.97992V12.3999C102.519 12.3599 102.232 12.3399 102.005 12.3399C101.192 12.3399 100.552 12.5599 100.085 12.9999C99.6321 13.4399 99.4055 14.1133 99.4055 15.0199V19.9999H95.6055V9.15992H99.2255V10.4599Z" fill="#164168"/>
<path d="M116.586 9.15992L112.106 19.9999H108.186L103.726 9.15992H107.626L110.226 15.7799L112.966 9.15992H116.586Z" fill="#164168"/>
<path d="M117.968 9.15992H121.768V19.9999H117.968V9.15992ZM119.868 7.95992C119.175 7.95992 118.615 7.76659 118.188 7.37992C117.761 6.99325 117.548 6.51325 117.548 5.93992C117.548 5.36659 117.761 4.88659 118.188 4.49992C118.615 4.11325 119.175 3.91992 119.868 3.91992C120.561 3.91992 121.121 4.10659 121.548 4.47992C121.975 4.83992 122.188 5.30659 122.188 5.87992C122.188 6.47992 121.975 6.97992 121.548 7.37992C121.121 7.76659 120.561 7.95992 119.868 7.95992Z" fill="#164168"/>
<path d="M130.177 20.1799C128.978 20.1799 127.904 19.9399 126.957 19.4599C126.011 18.9799 125.271 18.3133 124.737 17.4599C124.217 16.6066 123.957 15.6399 123.957 14.5599C123.957 13.4799 124.217 12.5199 124.737 11.6799C125.271 10.8266 126.011 10.1666 126.957 9.69992C127.904 9.21992 128.978 8.97992 130.177 8.97992C131.404 8.97992 132.464 9.24659 133.357 9.77992C134.251 10.2999 134.884 11.0266 135.257 11.9599L132.317 13.4599C131.824 12.4866 131.104 11.9999 130.157 11.9999C129.477 11.9999 128.911 12.2266 128.457 12.6799C128.017 13.1333 127.797 13.7599 127.797 14.5599C127.797 15.3733 128.017 16.0133 128.457 16.4799C128.911 16.9333 129.477 17.1599 130.157 17.1599C131.104 17.1599 131.824 16.6733 132.317 15.6999L135.257 17.1999C134.884 18.1333 134.251 18.8666 133.357 19.3999C132.464 19.9199 131.404 20.1799 130.177 20.1799Z" fill="#164168"/>
<path d="M148.051 14.5999C148.051 14.6266 148.031 14.9399 147.991 15.5399H140.111C140.271 16.0999 140.578 16.5333 141.031 16.8399C141.498 17.1333 142.078 17.2799 142.771 17.2799C143.291 17.2799 143.738 17.2066 144.111 17.0599C144.498 16.9133 144.884 16.6733 145.271 16.3399L147.271 18.4199C146.218 19.5933 144.678 20.1799 142.651 20.1799C141.384 20.1799 140.271 19.9399 139.311 19.4599C138.351 18.9799 137.604 18.3133 137.071 17.4599C136.551 16.6066 136.291 15.6399 136.291 14.5599C136.291 13.4933 136.544 12.5399 137.051 11.6999C137.571 10.8466 138.284 10.1799 139.191 9.69992C140.098 9.21992 141.118 8.97992 142.251 8.97992C143.331 8.97992 144.311 9.20659 145.191 9.65992C146.071 10.0999 146.764 10.7466 147.271 11.5999C147.791 12.4399 148.051 13.4399 148.051 14.5999ZM142.271 11.6799C141.684 11.6799 141.191 11.8466 140.791 12.1799C140.404 12.5133 140.158 12.9666 140.051 13.5399H144.491C144.384 12.9666 144.131 12.5133 143.731 12.1799C143.344 11.8466 142.858 11.6799 142.271 11.6799Z" fill="#164168"/>
<path d="M18.9575 8.61792H17.2141V8.49609C17.1603 7.8632 16.8781 7.11525 15.8704 7.07802C15.6713 7.06145 15.4717 7.10388 15.2962 7.20008C15.1208 7.29629 14.977 7.44208 14.8827 7.61952C14.8426 7.3103 14.6918 7.02649 14.4585 6.82145C14.2253 6.6164 13.9258 6.50426 13.6163 6.50606C13.3859 6.463 13.148 6.49024 12.9332 6.58431C12.7183 6.67838 12.5362 6.83498 12.4103 7.03403C12.5245 5.12184 12.7026 2.06574 12.7194 1.619C12.7388 1.40022 12.7133 1.17973 12.6446 0.971286C12.5758 0.762843 12.4652 0.570898 12.3196 0.407379C12.1595 0.259558 11.9702 0.147541 11.7641 0.0787099C11.558 0.00987905 11.3397 -0.0142042 11.1237 0.00802273C10.0252 0.0452511 9.65907 1.05718 9.61876 1.58514L9.2089 6.46882C8.9032 5.07445 8.33213 2.43802 8.32877 2.42448C8.30237 2.20624 8.23145 1.99585 8.12046 1.80656C8.00946 1.61727 7.8608 1.45317 7.68382 1.32456C7.49762 1.21391 7.29008 1.14458 7.07515 1.12123C6.86023 1.09789 6.64283 1.12106 6.4375 1.18917C6.05084 1.29823 5.71966 1.55102 5.51079 1.8965C5.30192 2.24198 5.23093 2.65443 5.31215 3.05059C5.57753 4.45173 6.65586 8.59761 6.65586 8.59761H4.92247C4.61927 8.19716 4.22616 7.87486 3.77534 7.65718C3.32453 7.4395 2.82888 7.33264 2.32912 7.34538C1.48608 7.34169 0.674021 7.6653 0.0616098 8.24901C0.032646 8.27795 0.0127553 8.31484 0.00440543 8.35506C-0.0039444 8.39529 -0.00036923 8.4371 0.0146571 8.47531C0.0296835 8.51351 0.0554886 8.54643 0.0889203 8.56998C0.122352 8.59352 0.161936 8.60666 0.202714 8.60776H1.99319C2.04754 8.60776 2.09968 8.6295 2.13811 8.66822C2.17654 8.70693 2.1981 8.75945 2.1981 8.8142V12.537C2.19855 12.564 2.19368 12.5908 2.18375 12.6158C2.17382 12.6408 2.15904 12.6636 2.14028 12.6828C2.12152 12.702 2.09914 12.7173 2.07447 12.7277C2.04979 12.7381 2.02331 12.7435 1.99655 12.7435H0.202714C0.165188 12.7464 0.129193 12.7598 0.0986799 12.782C0.0681672 12.8042 0.0443231 12.8344 0.0297476 12.8694C0.015172 12.9043 0.010427 12.9427 0.0160513 12.9802C0.0216757 13.0177 0.0374304 13.0529 0.0616098 13.0819C0.674663 13.6654 1.48574 13.9911 2.32912 13.9923C2.83235 14.0049 3.33151 13.8985 3.78654 13.6816C4.24157 13.4647 4.63983 13.1434 4.94937 12.7435H5.1845C5.1845 12.8416 5.161 12.9398 5.15764 13.0312C5.10725 14.2157 5.93363 15.6473 7.37811 16.9131C7.20464 17.17 7.11414 17.4747 7.11895 17.7854C7.12376 18.0962 7.22363 18.3979 7.40497 18.6493C7.9391 19.4006 8.81586 19.6646 9.96473 19.871C10.5482 19.9615 11.138 20.0045 11.7284 19.9996C12.2278 20.002 12.727 19.9749 13.2233 19.9184C13.9757 19.8237 15.5109 19.4378 15.9577 18.6594C16.1119 18.4523 16.188 18.1967 16.1727 17.9382C16.1573 17.6798 16.0513 17.4352 15.8737 17.2481C16.1899 16.9597 16.4647 16.6282 16.69 16.2633C17.4861 15.0449 17.4324 13.461 17.3619 12.7435H18.9844C19.5155 12.7435 20.0251 12.5324 20.4025 12.1559C20.78 11.7795 20.9947 11.2682 21 10.7332C21.0028 10.1812 20.7902 9.65025 20.4082 9.25462C20.0262 8.85899 19.5052 8.63034 18.9575 8.61792ZM14.8962 8.4047C14.9082 8.16316 15.0118 7.93547 15.1855 7.7686C15.3593 7.60173 15.59 7.50839 15.8301 7.50783C16.4347 7.50783 16.7169 7.75489 16.7841 8.52315C16.8614 9.42365 16.8704 10.3288 16.8109 11.2307C16.7605 11.7349 16.6027 12.4829 15.8032 12.4592C14.839 12.4287 14.7181 11.7417 14.7181 11.4168C14.7181 10.6012 14.8357 9.47079 14.8962 8.4047ZM12.4472 7.80566C12.4824 7.53991 12.6204 7.29895 12.8313 7.13537C13.0421 6.97178 13.3086 6.89885 13.5726 6.93248C14.2444 6.98663 14.4695 7.27093 14.4695 8.12718C14.4695 8.98343 14.231 10.8178 14.2008 11.0581C14.1706 11.2983 14.0261 12.114 12.9579 12.0158C12.8195 12.0127 12.6832 11.9809 12.5576 11.9225C12.4319 11.864 12.3196 11.78 12.2276 11.6759C12.1356 11.5717 12.0658 11.4496 12.0227 11.3171C11.9796 11.1846 11.964 11.0446 11.9769 10.9058C11.9971 10.4184 12.4472 7.80566 12.4472 7.80566ZM9.49447 7.76505L10.0118 1.61561C10.0362 1.40403 10.0989 1.19871 10.1965 1.00979C10.2782 0.835339 10.4076 0.687953 10.5694 0.584861C10.7312 0.481769 10.9188 0.427249 11.1103 0.427684C11.2686 0.408636 11.4292 0.423506 11.5814 0.471332C11.7337 0.519158 11.8742 0.598862 11.9937 0.705207C12.1996 0.953218 12.2998 1.27316 12.2726 1.5953C12.2457 2.23157 11.8762 8.49608 11.8728 8.557V8.59423H9.64562C9.61203 8.44193 9.55492 8.17456 9.48102 7.82935C9.49054 7.80931 9.49517 7.78725 9.49447 7.76505ZM5.69848 2.98967C5.67701 2.7785 5.6941 2.56516 5.74887 2.36018C5.79208 2.17331 5.88696 2.0026 6.02251 1.86783C6.15807 1.73306 6.32876 1.63974 6.5148 1.59869C6.66471 1.54633 6.82389 1.5265 6.98195 1.5405C7.14 1.5545 7.29333 1.60201 7.43187 1.67991C7.68488 1.87906 7.84917 2.17115 7.88873 2.49216L9.21226 8.58406H7.07577C7.07577 8.58406 5.95042 4.40773 5.69848 2.98967ZM4.60671 12.1546C4.37052 12.4897 4.0708 12.7744 3.72486 12.9922C3.37893 13.21 2.99363 13.3567 2.59115 13.4238H2.55757C2.52177 13.4183 2.48908 13.4002 2.46547 13.3725C2.44185 13.3449 2.42885 13.3096 2.42885 13.2732C2.42885 13.2367 2.44185 13.2014 2.46547 13.1738C2.48908 13.1461 2.52177 13.128 2.55757 13.1225C2.9213 13.061 3.26945 12.9279 3.58212 12.7308C3.89479 12.5337 4.16583 12.2765 4.37982 11.9738C4.59382 11.6712 4.74656 11.329 4.8293 10.9669C4.91203 10.6048 4.92314 10.2298 4.86202 9.86337C4.86141 9.8267 4.87396 9.79102 4.89737 9.76292C4.92077 9.73482 4.95347 9.71617 4.98943 9.71041C5.02539 9.70465 5.06219 9.71215 5.09309 9.73154C5.124 9.75094 5.14692 9.78093 5.15764 9.81599C5.22477 10.2231 5.21061 10.6397 5.11602 11.0412C5.02142 11.4428 4.84827 11.8213 4.60671 12.1546ZM16.3373 16.0433C15.9468 16.7608 15.2895 17.2928 14.5098 17.5223C13.8641 17.6982 13.1836 17.6982 12.5379 17.5223C12.5109 17.5098 12.4815 17.5033 12.4517 17.5031C12.4219 17.5029 12.3925 17.509 12.3652 17.521C12.338 17.5331 12.3135 17.5508 12.2935 17.573C12.2735 17.5952 12.2584 17.6214 12.2491 17.6499C12.2398 17.6784 12.2366 17.7085 12.2397 17.7383C12.2428 17.7682 12.2521 17.797 12.267 17.823C12.2819 17.8489 12.302 17.8715 12.3261 17.889C12.3503 17.9066 12.3778 17.9189 12.4069 17.925C12.7627 18.0286 13.1317 18.0788 13.5021 18.0739C13.8814 18.0739 14.2588 18.0215 14.624 17.9182C14.9471 17.8295 15.2543 17.6901 15.5344 17.5053C15.6645 17.624 15.7432 17.7893 15.7539 17.9657C15.7646 18.1422 15.7063 18.3158 15.5915 18.4496C15.2556 19.0317 13.9119 19.4006 13.1695 19.4954C12.1261 19.6142 11.072 19.6005 10.0319 19.4547C8.95362 19.2754 8.19441 19.0351 7.74762 18.4022C7.61847 18.2276 7.54514 18.0175 7.53734 17.7999C7.52954 17.5822 7.58763 17.3674 7.70395 17.1838C8.26434 17.6105 8.94997 17.8368 9.65235 17.8268C10.15 17.825 10.643 17.7309 11.1069 17.5493C11.1325 17.5383 11.1558 17.5222 11.1752 17.5021C11.1947 17.482 11.21 17.4582 11.2203 17.4321C11.2306 17.406 11.2357 17.3781 11.2352 17.35C11.2348 17.3219 11.2289 17.2942 11.2178 17.2684C11.1949 17.2177 11.1535 17.1778 11.1022 17.157C11.0509 17.1362 10.9937 17.1361 10.9423 17.1567C10.9221 17.1567 9.21564 17.881 7.88873 16.7912C6.41401 15.583 5.53724 14.148 5.57755 13.0481C5.61786 11.9482 6.18555 10.4455 7.60988 10.0021C8.8864 9.59938 10.5392 10.0664 10.9288 10.591C11.5738 11.4608 11.2648 12.2629 10.4955 12.6216C9.4172 13.1564 7.42176 12.8586 7.40161 12.8552C7.37402 12.8508 7.34589 12.8521 7.31878 12.8588C7.29166 12.8654 7.26613 12.8775 7.24365 12.8941C7.22117 12.9108 7.20216 12.9318 7.18776 12.9559C7.17336 12.98 7.16385 13.0067 7.15975 13.0345C7.15548 13.0621 7.15672 13.0903 7.1634 13.1174C7.17008 13.1445 7.18204 13.17 7.19863 13.1924C7.21521 13.2148 7.23608 13.2336 7.25997 13.2477C7.28387 13.2619 7.31033 13.2711 7.3378 13.2748C7.42514 13.2748 9.48438 13.5963 10.6971 13.0041C10.8297 12.938 10.9548 12.8574 11.0699 12.7638L16.9419 12.7367C16.9856 13.4001 17.0562 14.923 16.3239 16.0433H16.3373ZM20.234 10.9667C20.2016 11.2179 20.1199 11.4601 19.9935 11.6792C19.8672 11.8982 19.6989 12.0897 19.4983 12.2426C19.4696 12.2623 19.4357 12.2729 19.401 12.2731C19.3787 12.2718 19.3569 12.2657 19.3372 12.2552C19.3175 12.2447 19.3003 12.23 19.2867 12.2121C19.2747 12.1966 19.2659 12.1789 19.2608 12.1599C19.2556 12.1409 19.2542 12.1211 19.2567 12.1016C19.2592 12.0821 19.2656 12.0632 19.2753 12.0462C19.2851 12.0292 19.2981 12.0143 19.3136 12.0023C19.6539 11.7412 19.8775 11.3548 19.9354 10.9278C19.9933 10.5009 19.8809 10.0682 19.6226 9.7246C19.6074 9.70922 19.5957 9.69076 19.5882 9.67042C19.5806 9.65008 19.5775 9.62835 19.5789 9.60669C19.5804 9.58504 19.5865 9.56396 19.5967 9.54485C19.6069 9.52574 19.6211 9.50905 19.6382 9.49591C19.6554 9.48277 19.6751 9.47347 19.6961 9.46865C19.7171 9.46382 19.7389 9.46357 19.7601 9.46792C19.7812 9.47227 19.8011 9.48112 19.8185 9.49387C19.836 9.50662 19.8505 9.52298 19.8612 9.54185C20.1614 9.94726 20.2905 10.4557 20.2206 10.9565L20.234 10.9667Z" fill="#164168"/>
<path d="M28.52 35.6868C28.2779 35.6868 28.0612 35.6502 27.8698 35.577C27.684 35.5038 27.5264 35.4025 27.3969 35.273C27.2674 35.1435 27.1689 34.9915 27.1013 34.817C27.0338 34.6425 27 34.4539 27 34.2512C27 33.8065 27.1379 33.4546 27.4138 33.1957C27.6896 32.9367 28.1287 32.8072 28.7311 32.8072H29.7022V32.689C29.7022 32.5427 29.6712 32.4413 29.6093 32.385C29.5474 32.3231 29.4657 32.2921 29.3644 32.2921C29.2574 32.2921 29.1786 32.309 29.128 32.3428C29.0829 32.371 29.0492 32.416 29.0266 32.4779H27.2533C27.2646 32.2584 27.3153 32.0557 27.4053 31.8699C27.4954 31.6841 27.6277 31.5237 27.8022 31.3886C27.9824 31.2535 28.2047 31.1493 28.4693 31.0762C28.7339 30.9973 29.0463 30.9579 29.4066 30.9579C29.7219 30.9579 30.0118 30.9917 30.2764 31.0593C30.541 31.1268 30.7662 31.2366 30.9519 31.3886C31.1433 31.535 31.2925 31.7292 31.3995 31.9713C31.5065 32.2133 31.5599 32.5089 31.5599 32.8579V34.4201C31.5599 34.6566 31.5656 34.8648 31.5768 35.045C31.5937 35.2195 31.6162 35.3912 31.6444 35.5601H29.8711C29.8486 35.4982 29.8288 35.4306 29.812 35.3574C29.7951 35.2842 29.7866 35.1829 29.7866 35.0534C29.736 35.1379 29.6769 35.2195 29.6093 35.2983C29.5417 35.3715 29.4573 35.4391 29.356 35.501C29.2603 35.5573 29.1449 35.6023 29.0097 35.6361C28.8746 35.6699 28.7114 35.6868 28.52 35.6868ZM29.2377 34.3526C29.5474 34.3526 29.7022 34.1921 29.7022 33.8712V33.7868H29.2377C29.0182 33.7868 28.9084 33.8797 28.9084 34.0654C28.9084 34.2569 29.0182 34.3526 29.2377 34.3526Z" fill="#164168"/>
<path d="M32.2784 31.0846H34.6597L35.2592 32.7735L35.8588 31.0846H38.1894V35.5601H36.5005V33.1535L35.825 34.8001H34.6428L33.9672 33.1535V35.5601H32.2784V31.0846Z" fill="#164168"/>
<path d="M41.2676 35.6868C40.8961 35.6868 40.5583 35.6389 40.2543 35.5432C39.9503 35.4475 39.6885 35.3068 39.469 35.121C39.2494 34.9296 39.0777 34.6931 38.9539 34.4117C38.8356 34.1246 38.7765 33.7896 38.7765 33.4068V33.2379C38.7765 32.8607 38.8328 32.5286 38.9454 32.2415C39.0636 31.9544 39.2269 31.7179 39.4352 31.5322C39.6491 31.3407 39.9024 31.1972 40.1952 31.1015C40.4935 31.0058 40.8229 30.9579 41.1832 30.9579C42.0051 30.9579 42.6103 31.155 42.9987 31.549C43.3928 31.9375 43.5898 32.5145 43.5898 33.2801V33.7868H40.6596C40.6821 33.9782 40.7356 34.1217 40.8201 34.2174C40.9101 34.3075 41.0593 34.3526 41.2676 34.3526C41.4252 34.3526 41.5406 34.3272 41.6138 34.2766C41.687 34.2203 41.7405 34.1555 41.7743 34.0823H43.5476C43.4631 34.634 43.2267 35.0394 42.8383 35.2983C42.4554 35.5573 41.9319 35.6868 41.2676 35.6868ZM41.2254 32.2921C41.034 32.2921 40.8961 32.3428 40.8116 32.4441C40.7328 32.5398 40.685 32.6609 40.6681 32.8072H41.7489C41.732 32.6609 41.6842 32.5398 41.6054 32.4441C41.5266 32.3428 41.3999 32.2921 41.2254 32.2921Z" fill="#164168"/>
<path d="M44.1776 31.0846H45.9002V31.5913C45.9509 31.4956 46.0128 31.4083 46.086 31.3295C46.1592 31.2507 46.2493 31.1859 46.3562 31.1353C46.4632 31.079 46.5899 31.0368 46.7362 31.0086C46.8826 30.9748 47.0571 30.9579 47.2598 30.9579C47.5244 30.9579 47.7664 31.0058 47.986 31.1015C48.2055 31.1972 48.3913 31.3407 48.5433 31.5322C48.7009 31.7179 48.822 31.9544 48.9064 32.2415C48.9909 32.5286 49.0331 32.8607 49.0331 33.2379V33.4068C49.0331 33.8009 48.9852 34.1414 48.8895 34.4286C48.7938 34.7157 48.6644 34.9521 48.5011 35.1379C48.3435 35.3237 48.1577 35.4616 47.9438 35.5516C47.7298 35.6417 47.5019 35.6868 47.2598 35.6868C47.0065 35.6868 46.7728 35.6389 46.5589 35.5432C46.3506 35.4419 46.1761 35.2927 46.0354 35.0957V37.249H44.1776V31.0846ZM46.6011 34.1837C46.7193 34.1837 46.8347 34.1274 46.9473 34.0148C47.0656 33.8966 47.1247 33.6939 47.1247 33.4068V33.2379C47.1247 32.9564 47.0712 32.7566 46.9642 32.6384C46.8573 32.5201 46.7334 32.461 46.5927 32.461C46.4463 32.461 46.3168 32.5201 46.2042 32.6384C46.0917 32.7509 46.0354 32.9367 46.0354 33.1957V33.449C46.0354 33.7136 46.0945 33.9022 46.2127 34.0148C46.3309 34.1274 46.4604 34.1837 46.6011 34.1837Z" fill="#164168"/>
<path d="M49.6242 31.0846H51.4819V32.9424L52.7064 31.0846H54.2686V35.5601H52.4108V33.7023L51.1864 35.5601H49.6242V31.0846Z" fill="#164168"/>
<path d="M55.0296 31.0846H56.8873V32.6046H57.0562L57.7993 31.0846H59.7584L58.6944 33.0944L59.8428 35.5601H57.7486L57.0562 33.9557H56.8873V35.5601H55.0296V31.0846Z" fill="#164168"/>
<path d="M61.5541 35.6868C61.312 35.6868 61.0953 35.6502 60.9039 35.577C60.7181 35.5038 60.5605 35.4025 60.431 35.273C60.3015 35.1435 60.203 34.9915 60.1355 34.817C60.0679 34.6425 60.0341 34.4539 60.0341 34.2512C60.0341 33.8065 60.1721 33.4546 60.4479 33.1957C60.7237 32.9367 61.1629 32.8072 61.7652 32.8072H62.7363V32.689C62.7363 32.5427 62.7053 32.4413 62.6434 32.385C62.5815 32.3231 62.4999 32.2921 62.3985 32.2921C62.2916 32.2921 62.2128 32.309 62.1621 32.3428C62.1171 32.371 62.0833 32.416 62.0608 32.4779H60.2875C60.2987 32.2584 60.3494 32.0557 60.4395 31.8699C60.5295 31.6841 60.6618 31.5237 60.8363 31.3886C61.0165 31.2535 61.2389 31.1493 61.5034 31.0762C61.768 30.9973 62.0805 30.9579 62.4408 30.9579C62.756 30.9579 63.0459 30.9917 63.3105 31.0593C63.5751 31.1268 63.8003 31.2366 63.9861 31.3886C64.1775 31.535 64.3267 31.7292 64.4336 31.9713C64.5406 32.2133 64.5941 32.5089 64.5941 32.8579V34.4201C64.5941 34.6566 64.5997 34.8648 64.611 35.045C64.6278 35.2195 64.6504 35.3912 64.6785 35.5601H62.9052C62.8827 35.4982 62.863 35.4306 62.8461 35.3574C62.8292 35.2842 62.8208 35.1829 62.8208 35.0534C62.7701 35.1379 62.711 35.2195 62.6434 35.2983C62.5759 35.3715 62.4914 35.4391 62.3901 35.501C62.2944 35.5573 62.179 35.6023 62.0439 35.6361C61.9088 35.6699 61.7455 35.6868 61.5541 35.6868ZM62.2719 34.3526C62.5815 34.3526 62.7363 34.1921 62.7363 33.8712V33.7868H62.2719C62.0523 33.7868 61.9425 33.8797 61.9425 34.0654C61.9425 34.2569 62.0523 34.3526 62.2719 34.3526Z" fill="#164168"/>
<path d="M65.3125 31.0846H67.1702V32.537H68.0991V31.0846H69.9569V35.5601H68.0991V34.0232H67.1702V35.5601H65.3125V31.0846Z" fill="#164168"/>
<path d="M72.9134 35.6868C72.5531 35.6868 72.2266 35.6305 71.9338 35.5179C71.6467 35.4053 71.399 35.2477 71.1907 35.045C70.9881 34.8423 70.8304 34.6003 70.7178 34.3188C70.6053 34.0317 70.549 33.7136 70.549 33.3646V33.1957C70.549 32.8692 70.6053 32.5708 70.7178 32.3006C70.8304 32.0247 70.9881 31.7883 71.1907 31.5913C71.399 31.3886 71.6467 31.2338 71.9338 31.1268C72.2266 31.0142 72.5531 30.9579 72.9134 30.9579C73.3412 30.9579 73.7015 31.0086 73.9942 31.1099C74.287 31.2113 74.5234 31.352 74.7036 31.5322C74.8893 31.7123 75.0244 31.9234 75.1089 32.1655C75.199 32.4075 75.2553 32.6665 75.2778 32.9424H73.5382C73.5157 32.7622 73.4623 32.6384 73.3778 32.5708C73.2934 32.4976 73.1808 32.461 73.04 32.461C72.8486 32.461 72.7023 32.5258 72.6009 32.6552C72.5052 32.7791 72.4574 32.9592 72.4574 33.1957V33.3646C72.4574 33.9106 72.6516 34.1837 73.04 34.1837C73.1695 34.1837 73.2793 34.1499 73.3694 34.0823C73.4594 34.0092 73.5157 33.8825 73.5382 33.7023H75.2778C75.2553 34.012 75.1962 34.2906 75.1004 34.5383C75.0047 34.7804 74.8612 34.9887 74.6698 35.1632C74.484 35.3321 74.2448 35.4616 73.952 35.5516C73.6649 35.6417 73.3187 35.6868 72.9134 35.6868Z" fill="#164168"/>
<path d="M75.8676 31.0846H77.7253V32.6046H77.8942L78.6373 31.0846H80.5964L79.5324 33.0944L80.6808 35.5601H78.5866L77.8942 33.9557H77.7253V35.5601H75.8676V31.0846Z" fill="#164168"/>
<path d="M81.1657 31.0846H83.0235V32.9424L84.2479 31.0846H85.8101V35.5601H83.9523V33.7023L82.7279 35.5601H81.1657V31.0846Z" fill="#164168"/>
<path d="M87.4746 33.2379L86.3769 31.0846H88.3866L88.8595 32.1739L89.307 31.0846H91.2746L90.1768 33.1957L91.359 35.5601H89.3493L88.7919 34.2681L88.2684 35.5601H86.2924L87.4746 33.2379Z" fill="#164168"/>
<path d="M93.6956 31.0846H95.5534V32.9424L96.7778 31.0846H98.34V35.5601H96.4823V33.7023L95.2578 35.5601H93.6956V31.0846Z" fill="#164168"/>
<path d="M100.96 31.0846H102.818V32.6046H102.987L103.73 31.0846H105.689L104.625 33.0944L105.774 35.5601H103.679L102.987 33.9557H102.818V35.5601H100.96V31.0846Z" fill="#164168"/>
<path d="M108.283 35.6868C107.939 35.6868 107.619 35.6417 107.32 35.5516C107.022 35.4559 106.763 35.3124 106.543 35.121C106.324 34.9296 106.149 34.6875 106.02 34.3948C105.896 34.102 105.834 33.7586 105.834 33.3646V33.1957C105.834 32.8298 105.896 32.5089 106.02 32.233C106.149 31.9516 106.324 31.7179 106.543 31.5322C106.763 31.3407 107.022 31.1972 107.32 31.1015C107.619 31.0058 107.939 30.9579 108.283 30.9579C108.626 30.9579 108.947 31.0058 109.246 31.1015C109.544 31.1972 109.803 31.3407 110.022 31.5322C110.242 31.7179 110.414 31.9516 110.538 32.233C110.667 32.5089 110.732 32.8298 110.732 33.1957V33.3646C110.732 33.7474 110.667 34.0852 110.538 34.3779C110.414 34.665 110.242 34.9071 110.022 35.1041C109.803 35.2955 109.544 35.4419 109.246 35.5432C108.947 35.6389 108.626 35.6868 108.283 35.6868ZM108.283 34.1837C108.452 34.1837 108.584 34.1217 108.68 33.9979C108.775 33.874 108.823 33.6629 108.823 33.3646V33.1957C108.823 32.9367 108.775 32.7509 108.68 32.6384C108.584 32.5201 108.452 32.461 108.283 32.461C108.114 32.461 107.982 32.5201 107.886 32.6384C107.79 32.7509 107.742 32.9367 107.742 33.1957V33.3646C107.742 33.6629 107.79 33.874 107.886 33.9979C107.982 34.1217 108.114 34.1837 108.283 34.1837Z" fill="#164168"/>
<path d="M111.326 31.0846H113.048V31.5913C113.099 31.4956 113.161 31.4083 113.234 31.3295C113.307 31.2507 113.397 31.1859 113.504 31.1353C113.611 31.079 113.738 31.0368 113.884 31.0086C114.031 30.9748 114.205 30.9579 114.408 30.9579C114.673 30.9579 114.915 31.0058 115.134 31.1015C115.354 31.1972 115.54 31.3407 115.692 31.5322C115.849 31.7179 115.97 31.9544 116.055 32.2415C116.139 32.5286 116.181 32.8607 116.181 33.2379V33.4068C116.181 33.8009 116.133 34.1414 116.038 34.4286C115.942 34.7157 115.813 34.9521 115.649 35.1379C115.492 35.3237 115.306 35.4616 115.092 35.5516C114.878 35.6417 114.65 35.6868 114.408 35.6868C114.155 35.6868 113.921 35.6389 113.707 35.5432C113.499 35.4419 113.324 35.2927 113.184 35.0957V37.249H111.326V31.0846ZM113.749 34.1837C113.868 34.1837 113.983 34.1274 114.096 34.0148C114.214 33.8966 114.273 33.6939 114.273 33.4068V33.2379C114.273 32.9564 114.219 32.7566 114.112 32.6384C114.005 32.5201 113.882 32.461 113.741 32.461C113.595 32.461 113.465 32.5201 113.352 32.6384C113.24 32.7509 113.184 32.9367 113.184 33.1957V33.449C113.184 33.7136 113.243 33.9022 113.361 34.0148C113.479 34.1274 113.609 34.1837 113.749 34.1837Z" fill="#164168"/>
<path d="M119.095 35.6868C118.723 35.6868 118.385 35.6389 118.081 35.5432C117.777 35.4475 117.515 35.3068 117.296 35.121C117.076 34.9296 116.905 34.6931 116.781 34.4117C116.663 34.1246 116.604 33.7896 116.604 33.4068V33.2379C116.604 32.8607 116.66 32.5286 116.772 32.2415C116.891 31.9544 117.054 31.7179 117.262 31.5322C117.476 31.3407 117.729 31.1972 118.022 31.1015C118.321 31.0058 118.65 30.9579 119.01 30.9579C119.832 30.9579 120.437 31.155 120.826 31.549C121.22 31.9375 121.417 32.5145 121.417 33.2801V33.7868H118.487C118.509 33.9782 118.563 34.1217 118.647 34.2174C118.737 34.3075 118.886 34.3526 119.095 34.3526C119.252 34.3526 119.368 34.3272 119.441 34.2766C119.514 34.2203 119.567 34.1555 119.601 34.0823H121.375C121.29 34.634 121.054 35.0394 120.665 35.2983C120.282 35.5573 119.759 35.6868 119.095 35.6868ZM119.052 32.2921C118.861 32.2921 118.723 32.3428 118.639 32.4441C118.56 32.5398 118.512 32.6609 118.495 32.8072H119.576C119.559 32.6609 119.511 32.5398 119.432 32.4441C119.354 32.3428 119.227 32.2921 119.052 32.2921Z" fill="#164168"/>
<path d="M122.005 31.0846H123.862V32.9424L125.087 31.0846H126.649V35.5601H124.791V33.7023L123.567 35.5601H122.005V31.0846ZM124.327 30.6202C124.006 30.6202 123.733 30.592 123.508 30.5357C123.288 30.4738 123.105 30.3894 122.959 30.2824C122.818 30.1698 122.714 30.0347 122.646 29.8771C122.584 29.7194 122.553 29.5449 122.553 29.3535H123.989C123.989 29.5168 124.017 29.6322 124.073 29.6997C124.13 29.7617 124.214 29.7926 124.327 29.7926C124.439 29.7926 124.524 29.7617 124.58 29.6997C124.636 29.6322 124.665 29.5168 124.665 29.3535H126.1C126.1 29.5449 126.066 29.7194 125.999 29.8771C125.937 30.0347 125.833 30.1698 125.686 30.2824C125.546 30.3894 125.363 30.4738 125.137 30.5357C124.918 30.592 124.648 30.6202 124.327 30.6202Z" fill="#164168"/>
<path d="M129.605 35.6868C129.245 35.6868 128.919 35.6305 128.626 35.5179C128.339 35.4053 128.091 35.2477 127.883 35.045C127.68 34.8423 127.523 34.6003 127.41 34.3188C127.297 34.0317 127.241 33.7136 127.241 33.3646V33.1957C127.241 32.8692 127.297 32.5708 127.41 32.3006C127.523 32.0247 127.68 31.7883 127.883 31.5913C128.091 31.3886 128.339 31.2338 128.626 31.1268C128.919 31.0142 129.245 30.9579 129.605 30.9579C130.033 30.9579 130.394 31.0086 130.686 31.1099C130.979 31.2113 131.216 31.352 131.396 31.5322C131.581 31.7123 131.717 31.9234 131.801 32.1655C131.891 32.4075 131.947 32.6665 131.97 32.9424H130.23C130.208 32.7622 130.154 32.6384 130.07 32.5708C129.985 32.4976 129.873 32.461 129.732 32.461C129.541 32.461 129.394 32.5258 129.293 32.6552C129.197 32.7791 129.149 32.9592 129.149 33.1957V33.3646C129.149 33.9106 129.344 34.1837 129.732 34.1837C129.862 34.1837 129.971 34.1499 130.061 34.0823C130.152 34.0092 130.208 33.8825 130.23 33.7023H131.97C131.947 34.012 131.888 34.2906 131.793 34.5383C131.697 34.7804 131.553 34.9887 131.362 35.1632C131.176 35.3321 130.937 35.4616 130.644 35.5516C130.357 35.6417 130.011 35.6868 129.605 35.6868Z" fill="#164168"/>
<path d="M132.56 31.0846H134.417V32.6046H134.586L135.329 31.0846H137.288L136.224 33.0944L137.373 35.5601H135.279L134.586 33.9557H134.417V35.5601H132.56V31.0846Z" fill="#164168"/>
<path d="M137.858 31.0846H139.716V32.9424L140.94 31.0846H142.502V35.5601H140.644V33.7023L139.42 35.5601H137.858V31.0846Z" fill="#164168"/>
<path d="M144.167 33.2379L143.069 31.0846H145.079L145.552 32.1739L145.999 31.0846H147.967L146.869 33.1957L148.051 35.5601H146.041L145.484 34.2681L144.96 35.5601H142.985L144.167 33.2379Z" fill="#164168"/>
</svg>
