<svg width="1108" height="389" viewBox="0 0 1108 389" fill="none" xmlns="http://www.w3.org/2000/svg">
<path d="M1097.5 76.4746L1097.12 83.7191L1102.76 88.2879L1095.75 90.1699L1093.15 96.9406L1089.19 90.8593L1081.95 90.475L1086.51 84.8345L1084.64 77.8263L1091.41 80.4216L1097.5 76.4746Z" fill="#D34B3B"/>
<path d="M185.526 363.5L185.151 370.744L190.786 375.313L183.78 377.195L181.176 383.966L177.221 377.885L169.977 377.5L174.539 371.86L172.666 364.852L179.44 367.447L185.526 363.5Z" fill="#D34B3B"/>
<path d="M105.526 12.5L105.151 19.7445L110.786 24.3133L103.78 26.1953L101.176 32.966L97.2213 26.8847L89.9773 26.5004L94.5389 20.8599L92.6658 13.8517L99.4399 16.447L105.526 12.5Z" fill="#D34B3B"/>
<path d="M1070.5 281L1074.51 287.482L1081.75 285.094L1080.65 292.638L1087.73 295.461L1082.05 300.536L1085.66 307.25L1078.04 307.482L1076.49 314.945L1070.5 310.225L1064.51 314.945L1062.96 307.482L1055.34 307.25L1058.95 300.536L1053.27 295.461L1060.35 292.638L1059.25 285.094L1066.49 287.482L1070.5 281Z" fill="#D34B3B"/>
<path d="M1070.5 289L1073.05 293.993L1078.58 294.873L1074.62 298.84L1075.5 304.377L1070.5 301.835L1065.5 304.377L1066.38 298.84L1062.42 294.873L1067.95 293.993L1070.5 289Z" fill="#164168"/>
<path d="M11 218.5L13.5207 222.574L18.0707 221.074L17.3826 225.815L21.8329 227.59L18.258 230.78L20.5263 235L15.7373 235.146L14.7622 239.837L11 236.87L7.23778 239.837L6.26266 235.146L1.47372 235L3.74197 230.78L0.167114 227.59L4.61739 225.815L3.92934 221.074L8.47931 222.574L11 218.5Z" fill="#D34B3B"/>
<path d="M10.9991 223.529L12.6007 226.668L16.0805 227.221L13.5906 229.714L14.1396 233.195L10.9991 231.597L7.85865 233.195L8.40761 229.714L5.91775 227.221L9.39748 226.668L10.9991 223.529Z" fill="#164168"/>
<path d="M781.5 0.5L782.989 2.90764L785.678 2.02071L785.272 4.8225L787.901 5.87129L785.789 7.75624L787.129 10.25L784.299 10.3361L783.723 13.108L781.5 11.355L779.277 13.108L778.701 10.3361L775.871 10.25L777.211 7.75624L775.099 5.87129L777.728 4.8225L777.322 2.02071L780.011 2.90764L781.5 0.5Z" fill="#D34B3B"/>
<path d="M781.501 3.47266L782.447 5.32717L784.504 5.65419L783.032 7.12736L783.357 9.18398L781.501 8.23994L779.645 9.18398L779.97 7.12736L778.498 5.65419L780.554 5.32717L781.501 3.47266Z" fill="#164168"/>
</svg>
