<svg width="832" height="282" viewBox="0 0 832 282" fill="none" xmlns="http://www.w3.org/2000/svg">
<path d="M113.088 59.6047C107.136 66.8024 100.936 74.4964 94.488 82.6869C88.288 90.8774 82.212 99.4402 76.26 108.375C70.308 117.31 64.604 126.494 59.148 135.925C53.692 145.108 48.732 154.292 44.268 163.475H113.088V59.6047ZM156.984 4.13281V163.475H186V200.332H156.984V262.133H113.088V200.332H0V168.315C4.96 157.394 11.532 144.86 19.716 130.713C28.148 116.566 37.448 102.046 47.616 87.1544C57.784 72.2627 68.572 57.6191 79.98 43.2237C91.388 28.8283 102.796 15.798 114.204 4.13281H156.984Z" fill="#164168"/>
<path d="M126.088 69.6047C120.136 76.8024 113.936 84.4964 107.488 92.6869C101.288 100.877 95.212 109.44 89.26 118.375C83.308 127.31 77.604 136.494 72.148 145.925C66.692 155.108 61.732 164.292 57.268 173.475H126.088V69.6047ZM169.984 14.1328V173.475H199V210.332H169.984V272.133H126.088V210.332H13V178.315C17.96 167.394 24.532 154.86 32.716 140.713C41.148 126.566 50.448 112.046 60.616 97.1544C70.784 82.2627 81.572 67.6191 92.98 53.2237C104.388 38.8283 115.796 25.798 127.204 14.1328H169.984Z" fill="#F5EEE7"/>
<path fill-rule="evenodd" clip-rule="evenodd" d="M125.942 11.1328H172.984V170.475H202V213.332H172.984V275.133H123.088V213.332H10V177.665L10.2685 177.074C15.2806 166.039 21.9023 153.415 30.1192 139.211L30.129 139.194L30.139 139.177C38.6053 124.972 47.9389 110.401 58.1384 95.4628C68.3472 80.5113 79.1775 65.8105 90.6288 51.3604C102.094 36.8934 113.57 23.7835 125.059 12.0353L125.942 11.1328ZM128.469 17.1328C117.435 28.4842 106.388 41.1342 95.3312 55.087C83.9665 69.4277 73.2207 84.0141 63.0936 98.8461C52.9611 113.686 43.698 128.148 35.303 142.232C27.3042 156.06 20.8744 168.302 16 178.966V207.332H129.088V269.133H166.984V207.332H196V176.475H166.984V17.1328H128.469ZM129.088 61.2692V176.475H52.474L54.5699 172.163C59.0696 162.906 64.0667 153.655 69.5599 144.408C75.0445 134.928 80.7789 125.696 86.7632 116.712C92.7472 107.729 98.858 99.1169 105.096 90.8763L105.113 90.8536L105.131 90.8312C111.592 82.624 117.807 74.911 123.776 67.6929L129.088 61.2692ZM109.863 94.5204C103.707 102.654 97.6713 111.16 91.7568 120.038C85.8403 128.92 80.1696 138.05 74.7448 147.427L74.7361 147.442L74.7271 147.457C70.1666 155.133 65.9574 162.806 62.0987 170.475H123.088V77.9912C118.804 83.2537 114.395 88.7634 109.863 94.5204Z" fill="#164168"/>
<path d="M501.006 198.633L499.326 170.069C499.239 168.575 501.288 167.749 502.405 168.746C503.863 170.048 505.562 171.201 507.007 171.201C513.22 171.201 516.955 164.79 518.702 160.713C519.558 158.716 518.958 156.466 517.429 154.923L516.991 154.48C515.695 153.17 514.858 151.487 514.255 149.745C512.608 144.989 508.885 138.49 505.2 136.388C501.055 134.024 501.837 139.733 503.533 144.559C504.005 145.901 502.633 147.31 501.396 146.607C492.274 141.423 490.628 133.105 505.2 121.544C518.679 110.85 528.531 113.607 531.97 116.444C532.092 116.544 532.192 116.669 532.272 116.805C550.997 148.46 545.222 170.784 538.793 179.984C538.103 180.971 536.666 180.611 536.376 179.442L534.785 173.014C534.668 172.541 534.331 172.153 533.88 171.971L530.561 170.63C529.563 170.227 528.474 170.962 528.474 172.038V173.361C528.474 174.321 527.312 174.799 526.636 174.117C525.961 173.435 524.799 173.913 524.799 174.873V176.628C524.799 177.883 523.364 178.596 522.364 177.839L521.492 177.179C520.691 176.572 519.533 176.896 519.164 177.83L517.88 181.069C517.626 181.711 516.972 182.1 516.288 182.018L512.746 181.593C512.051 181.509 511.389 181.912 511.143 182.567L507.046 193.492C507.02 193.563 506.989 193.631 506.952 193.697L503.849 199.282C503.111 200.61 501.095 200.151 501.006 198.633Z" fill="#164168"/>
<path d="M334.402 88.3548L321.76 84.8646C321.344 84.7496 320.919 84.9877 320.826 85.4095C316.179 106.461 314.923 151.981 346.441 171.907C347.157 172.36 346.765 173.496 345.934 173.33C339.201 171.981 329.508 169.135 324.524 164.55C324.264 164.311 323.868 164.259 323.613 164.504C321.112 166.911 323.896 173.792 352.364 185.337C353.09 185.632 352.964 186.639 352.181 186.669C339.038 187.181 314.682 180.867 301.524 151.584C301.217 150.899 300.227 150.992 300.136 151.737C298.314 166.689 304.472 194.763 342.175 206.593C342.933 206.831 342.897 207.863 342.106 207.946C332.96 208.904 315.281 207.496 298.017 195.921C297.507 195.579 296.828 195.931 296.909 196.54C298.321 207.213 315.354 227.285 375.069 233.262C375.799 233.335 376.023 234.249 375.355 234.554C370.823 236.618 362.664 238.804 353.739 236.937C352.93 236.768 352.386 237.793 353.057 238.277C361.169 244.112 376.933 251.481 394.16 247.874C396.164 247.455 398.529 247.459 399.793 249.07C401.134 250.777 398.514 252.064 396.343 252.064H383.995C383.351 252.064 383.027 252.788 383.507 253.217C386.227 255.646 391.979 259.01 400.378 259.447C401.054 259.482 401.359 260.274 400.815 260.677C398.543 262.362 394.544 264.448 389.813 264.448C387.223 264.448 385.165 263.823 383.598 262.98C380.814 261.482 377.901 259.494 374.739 259.494H345.171C341.293 259.107 331.156 256.394 320.086 248.695C319.456 248.256 318.612 248.91 318.898 249.623L320.265 253.036C320.334 253.209 320.464 253.35 320.631 253.433L347.563 266.882C347.622 266.912 347.685 266.934 347.749 266.947L389.696 275.572C389.774 275.588 389.853 275.591 389.932 275.583L422.777 271.938C423.088 271.903 423.346 271.681 423.427 271.379L428.023 254.166C428.144 253.714 427.831 253.262 427.365 253.215L416.741 252.153C416.276 252.106 415.963 251.653 416.083 251.201L420.558 234.442C420.687 233.96 420.324 233.487 419.825 233.487H398.745C398.125 233.487 397.766 232.783 398.132 232.281L406.51 220.777C406.827 220.341 406.602 219.724 406.08 219.593L383.825 214.036C383.222 213.886 383.045 213.114 383.523 212.716L389.074 208.095C389.451 207.781 389.436 207.198 389.044 206.904L371.797 193.987C371.213 193.55 371.522 192.62 372.252 192.62H385.141C385.628 192.62 385.989 192.168 385.881 191.693L380.166 166.579C380.041 166.027 380.541 165.537 381.09 165.674L397.55 169.783C398.255 169.959 398.781 169.139 398.327 168.572L394.917 164.315C394.823 164.197 394.697 164.111 394.553 164.065C379.168 159.093 364.907 136.779 359.239 125.378C359.018 124.933 358.441 124.817 358.11 125.186C353.734 130.069 355.776 141.143 357.949 148.01C358.179 148.737 357.326 149.334 356.75 148.834C342.192 136.205 344.474 120.161 347.627 113.412C347.644 113.375 347.658 113.337 347.669 113.298C354.886 88.0174 347.531 77.9388 341.796 74.1779C341.23 73.807 340.555 74.3679 340.705 75.0275C341.369 77.9566 341.809 83.1686 340.211 93.545C338.414 105.209 332.414 117.752 328.841 124.001C328.493 124.61 327.619 124.436 327.556 123.737C326.528 112.362 331.724 96.7985 334.901 89.3954C335.084 88.9687 334.85 88.4784 334.402 88.3548Z" fill="#D34B3B"/>
<path d="M345.597 242.502C328.543 234.728 298.382 212.692 284.893 202.137C284.515 201.841 283.981 201.98 283.847 202.441C282.359 207.555 283.355 223.177 284.126 230.733C284.155 231.013 284.342 231.249 284.604 231.353C315.788 243.744 337.089 244.917 345.442 243.811C346.163 243.715 346.259 242.803 345.597 242.502Z" fill="#D34B3B"/>
<path d="M302.498 114.317C303.899 125.139 313.726 139.096 319.062 146.283C319.491 146.862 318.958 147.63 318.274 147.403C311.579 145.177 300.489 139.653 296.866 130.832C296.829 130.743 296.811 130.65 296.81 130.553C296.804 125.811 296.532 116.392 301.508 113.739C301.942 113.508 302.435 113.829 302.498 114.317Z" fill="#D34B3B"/>
<path d="M411.166 119.178C397.679 117.254 370.333 113.767 359.442 115.389C357.978 115.607 358.335 116.496 359.809 116.628C368.734 117.43 380.535 125.841 386.092 130.697C391.478 136.076 405.17 137.829 415.479 138.152C420.662 138.315 425.848 138.765 430.879 140.021L433.214 140.604L437.53 142.041C442.072 143.553 446.393 145.664 450.378 148.317L451.679 149.183C451.768 149.242 451.869 149.282 451.975 149.3L458.37 150.364C458.833 150.442 459.254 150.085 459.254 149.616V144.403C459.254 144.347 459.248 144.291 459.236 144.237C457.622 137.091 453.418 132.392 449.043 130.406C447.861 129.869 447.566 128.336 448.807 127.953C456.9 125.455 473.656 128.93 479.078 130.174C479.732 130.323 480.231 129.623 479.839 129.079C469.88 115.261 440.751 117.222 426.697 119.089C421.537 119.774 416.32 119.913 411.166 119.178Z" fill="#D34B3B"/>
<path d="M350.131 62.5823C348.231 55.9397 349.212 45.7373 350.025 40.8981C350.085 40.5419 349.89 40.194 349.555 40.0601L338.521 35.6522C338.1 35.484 337.625 35.718 337.534 36.1622C334.745 49.8368 352.562 71.0784 350.131 62.5823Z" fill="#D34B3B"/>
<path d="M334.859 53.4809L330.385 34.4975C330.326 34.2483 330.146 34.0455 329.905 33.9581L317.425 29.4256C317.008 29.2741 316.547 29.5129 316.461 29.9482C314.5 39.8903 326.295 49.7592 333.769 54.2895C334.333 54.6311 335.01 54.1225 334.859 53.4809Z" fill="#D34B3B"/>
<path d="M395.857 22.0624C392.735 28.8288 380.221 43.0994 373.42 50.4026C373.006 50.8472 373.265 51.4982 373.864 51.397C381.239 50.1509 400.404 34.7504 409.653 26.6692C415.22 22.0358 432.793 22.0963 442.483 22.7986C443.167 22.8482 443.521 22.0896 442.963 21.6919C434.305 15.5241 408.981 18.9224 396.386 21.6328C396.146 21.6844 395.96 21.8398 395.857 22.0624Z" fill="#D34B3B"/>
<path d="M409.543 37.9549C402.714 46.5745 381.733 59.633 371.052 65.6911C370.558 65.9711 370.54 66.6658 371.057 66.8998C380.461 71.1557 399.671 57.7399 408.413 50.1996C414.259 45.3338 437.334 44.8491 448.728 45.2246C449.086 45.2365 449.393 44.9945 449.51 44.6554C451.748 38.1687 463.182 35.2947 470.906 34.3849C471.703 34.291 471.891 33.1394 471.153 32.8235L456.774 26.6692C452.958 24.7636 445.013 32.6318 441.102 37.2763C440.846 37.5798 440.402 37.6373 440.069 37.4224C430.244 31.093 415.985 34.9134 409.815 37.7404C409.705 37.7905 409.618 37.8606 409.543 37.9549Z" fill="#D34B3B"/>
<path d="M458.804 52.5287C434.955 44.8114 415.293 56.0898 406.162 64.7154C405.555 65.2888 406.228 66.1804 406.993 65.8453C430.04 55.7455 455.382 61.9337 466.711 66.9721C467.252 67.213 467.871 66.778 467.894 66.1858C468.244 57.3369 480.429 49.3419 487.766 45.8233C488.306 45.5644 488.364 44.8121 487.866 44.4803L481.718 40.3874C481.624 40.3246 481.518 40.2833 481.406 40.27C474.621 39.4634 464.268 47.7644 459.585 52.3497C459.38 52.5507 459.077 52.6171 458.804 52.5287Z" fill="#D34B3B"/>
<path d="M460.494 20.477C467.419 23.441 479.03 33.2194 484.013 37.777C484.042 37.8033 484.071 37.826 484.104 37.8476L487.027 39.7936C487.418 40.0542 487.95 39.8999 488.141 39.4703L492.598 29.4548C492.685 29.2583 492.689 29.0356 492.592 28.8434C487.123 17.9779 451.893 16.7956 460.494 20.477Z" fill="#D34B3B"/>
<path d="M526.56 83.2419C521.803 86.4277 513.227 90.4358 508.266 92.0961C507.897 92.2194 507.664 92.6032 507.833 92.9529C509.833 97.0837 522.38 96.8316 529.266 96.097C529.648 96.0562 529.936 95.7317 529.936 95.3467V84.7713C529.936 83.9102 527.276 82.7628 526.56 83.2419Z" fill="#D34B3B"/>
<path fill-rule="evenodd" clip-rule="evenodd" d="M450.336 21.1177C461.717 24.6809 473.401 30.2228 485.101 38.2832C486.133 37.2752 487.139 35.7878 488.083 33.8797C489.341 31.3357 490.36 28.3086 491.162 25.3381C492.764 19.4028 493.421 13.9883 493.445 13.7842C493.447 13.7705 493.45 13.7495 493.453 13.7244C493.457 13.6964 493.461 13.6699 493.466 13.6446L493.47 13.6245C493.47 13.6222 493.47 13.6196 493.471 13.6168C493.513 13.3774 493.825 11.5957 494.056 9.59548C494.173 8.58212 494.265 7.5452 494.294 6.64088C494.308 6.23349 494.307 5.89046 494.296 5.61056C487.408 3.18719 478.51 5.17119 469.646 9.22579C462.299 12.5866 455.368 17.1903 450.336 21.1177ZM488.852 40.9533C490.785 42.3751 492.718 43.8671 494.649 45.4316L496.301 33.8668C496.673 31.2642 500.017 30.2814 501.687 32.4318C503.278 34.4809 505.297 37.1984 507.135 39.9125C508.45 41.8555 509.721 43.8683 510.67 45.6636L523.309 32.0524C525.037 30.1915 528.15 31.1472 528.536 33.6571L530.276 44.9722L536.548 41.4872C539.108 40.0648 542 42.7323 540.788 45.3982L536.408 55.0358L542.51 58.5233C544.12 59.4432 544.537 61.5781 543.391 63.0359L530.903 78.9329C531.514 83.7865 532.259 90.9346 532.636 97.6652C532.833 101.179 532.931 104.613 532.852 107.562C532.796 109.634 532.653 111.592 532.35 113.205C534.016 114.432 536.004 116.206 537.734 118.377C539.495 120.588 541.101 123.354 541.698 126.482C542.244 126.407 542.801 126.328 543.37 126.248C548.969 125.461 555.634 124.523 562.43 124.491C570.969 124.451 580.027 125.823 587.943 130.847C589.005 131.521 589.319 132.928 588.645 133.99C587.971 135.052 586.564 135.367 585.501 134.693C578.612 130.32 570.541 129.008 562.452 129.046C555.997 129.077 549.728 129.957 544.148 130.74C543.614 130.815 543.087 130.889 542.566 130.962C543.295 133.693 544.026 136.834 544.668 140.2C545.272 140.132 545.904 140.058 546.56 139.98C550.755 139.484 555.952 138.87 561.063 139.194C568.097 139.64 575.504 141.854 581.058 148.67C581.853 149.645 581.706 151.08 580.731 151.874C579.756 152.669 578.321 152.523 577.527 151.547C573.049 146.053 567.055 144.138 560.775 143.74C556.114 143.444 551.581 143.98 547.48 144.464C546.79 144.546 546.112 144.626 545.448 144.7C545.689 146.252 545.906 147.834 546.091 149.43C546.135 149.438 546.178 149.447 546.222 149.455C549.083 149.989 553.083 150.737 556.904 152.344C561.688 154.355 566.487 157.814 569.023 164.121C569.492 165.288 568.926 166.614 567.759 167.084C566.592 167.553 565.266 166.987 564.796 165.82C562.85 160.981 559.19 158.247 555.138 156.543C552.183 155.3 549.174 154.658 546.534 154.153C546.896 159.283 546.855 164.446 546.127 169.103C545.263 174.635 543.38 179.768 539.722 183.158C537.799 184.941 535.057 183.543 534.757 181.35C534.48 179.336 534.105 176.436 533.876 174.128L533.746 174.194C532.878 174.628 531.877 174.613 531.04 174.199L530.994 174.385C530.552 176.153 528.707 177.078 527.085 176.532V178.491C527.085 180.852 524.51 182.31 522.486 181.095L520.216 179.733L519.79 181.861C519.418 183.723 517.448 184.79 515.685 184.085L512.856 182.954C512.136 186.067 511.036 189.931 509.586 193.574C507.897 197.821 505.555 202.246 502.439 204.55C501.45 205.281 500.213 205.284 499.267 204.746C499.176 204.694 499.089 204.639 499.006 204.578C500.274 209.389 500.499 214.38 500.237 218.453C500.379 218.345 500.524 218.23 500.673 218.106C501.742 217.216 502.852 216.012 503.932 214.607C506.098 211.791 507.983 208.384 509.072 205.661C509.461 204.689 510.462 204.107 511.499 204.25C512.537 204.394 513.342 205.227 513.452 206.268C514.492 216.153 512.332 223.23 509.036 228.26C506.227 232.546 502.686 235.202 499.932 236.842C499.937 237.051 499.938 237.259 499.935 237.464L516.578 246.196C519.094 247.516 518.581 251.259 515.804 251.855L502.466 254.713L503.413 267.037C503.619 269.714 500.504 271.322 498.441 269.602L488.698 261.482V271.98C488.698 275.184 484.378 276.204 482.945 273.338L477.634 262.714L469.295 277.543C468.101 279.665 465.02 279.59 463.931 277.412L458.611 266.77L446.183 280.158C444.248 282.242 440.767 280.763 440.925 277.924L441.828 261.65L436.713 264.208C434.533 265.298 432.022 263.506 432.344 261.09L433.742 250.604L431.484 252.863L425.586 272.921C425.282 273.954 424.438 274.809 423.281 275.039C411.819 277.319 393.197 278.943 373.918 276.513C354.704 274.092 334.53 267.605 320.246 253.397C316.561 250.702 310.523 247.121 304.133 244.908C297.59 242.641 291.251 242.004 286.63 244.437C285.037 245.276 282.534 244.617 282.152 242.264C279.54 226.185 278.764 199.135 282.935 169.499C287.016 140.499 295.861 108.828 312.527 82.4684C307.3 77.8884 300.364 68.9711 295.646 57.9617C290.394 45.7033 287.745 30.502 293.606 15.5194C293.92 14.7175 294.659 14.161 295.517 14.0813C296.374 14.0016 297.203 14.4123 297.659 15.1426C298.571 16.6023 300.462 19.0251 303.061 21.3095C305.636 23.5726 308.777 25.5877 312.218 26.4844C322.12 27.4669 337.885 30.4104 349.96 36.0709C367.56 23.3021 403.817 8.79675 444.991 19.5816C450.321 15.1104 458.698 9.22436 467.751 5.08334C477.223 0.750502 488.058 -1.95824 496.918 1.73997C497.628 2.03638 498.372 2.68024 498.629 3.70243C498.86 4.62217 498.881 5.77234 498.847 6.7896C498.812 7.86727 498.705 9.04027 498.581 10.1175C498.343 12.1839 498.026 14.0175 497.962 14.3823C497.879 15.053 497.181 20.5204 495.56 26.5253C494.717 29.6462 493.606 32.9862 492.166 35.8991C491.261 37.7277 490.172 39.5029 488.852 40.9533ZM354.506 38.4445C361.183 42.3421 366.518 47.5673 367.331 54.4763C367.478 55.7256 366.584 56.8575 365.335 57.0045C364.086 57.1514 362.954 56.2578 362.807 55.0085C362.155 49.469 357.112 44.6849 349.197 40.7602C337.643 35.0302 321.653 31.9871 311.655 31.0062C311.505 30.9915 311.356 30.9657 311.209 30.9283C306.793 29.81 302.983 27.3057 300.054 24.731C299.392 24.1496 298.769 23.5589 298.188 22.9715C299.036 29.7262 301.967 38.052 308.515 45.7768C317.324 56.1691 332.841 65.6578 359.129 68.5791C360.379 68.718 361.28 69.8442 361.141 71.0944C361.002 72.3446 359.876 73.2454 358.626 73.1065C331.419 70.0831 314.742 60.1688 305.04 48.7223C299.81 42.5525 296.654 35.9908 294.964 29.9348C294.276 39.1855 296.429 48.2225 299.833 56.1675C304.69 67.5003 311.951 76.2789 316.552 79.8945L335.903 84.736C337.123 85.0413 337.865 86.2781 337.559 87.4984C337.254 88.7187 336.017 89.4604 334.797 89.1551L316.572 84.5952C300.245 110.281 291.49 141.395 287.446 170.134C283.497 198.191 284.064 223.798 286.348 239.577C292.342 237.294 299.409 238.45 305.624 240.603C312.59 243.016 319.078 246.885 323.037 249.795C323.166 249.89 323.28 249.99 323.382 250.092C336.66 263.347 355.725 269.63 374.487 271.994C392.713 274.29 410.362 272.852 421.477 270.749L426.323 254.266L418.447 255.055C416.28 255.272 414.596 253.206 415.246 251.127L420.173 235.365H398.98C396.344 235.365 394.96 232.237 396.733 230.286L405.175 220.998L382.363 217.03C379.833 216.59 378.957 213.404 380.907 211.733L386.07 207.307L368.368 195.503C365.868 193.836 367.048 189.94 370.052 189.94H384.106L375.753 166.964C374.961 164.785 376.802 162.559 379.09 162.928L394.987 165.492V144.73C394.987 141.911 398.495 140.613 400.329 142.754L410.888 155.075L414.614 138.307C415.076 136.229 417.477 135.258 419.253 136.432L435.076 146.89C441.723 146.766 448.803 147.09 454.395 148.35C455.77 148.66 457.096 149.035 458.326 149.493C458.429 146.813 459.345 144.089 461.107 141.44C464.916 135.714 472.716 130.264 485.398 125.787L458.745 92.2183C458.451 91.8474 458.247 91.4128 458.15 90.9492L452.94 65.9369L441.68 79.076C440.457 80.5032 438.244 80.4879 437.041 79.0438L422.207 61.2399L419.816 75.2787C419.497 77.1545 417.55 78.2778 415.766 77.6163L391.634 68.6677L398.703 84.5756C399.738 86.9037 397.619 89.3941 395.155 88.7457L386.356 86.4296L392.177 90.3108C394.351 91.7608 393.8 95.0982 391.274 95.7717L380.92 98.5334C385.541 100.299 390.706 102.07 396.11 103.654C399.677 97.2771 406.384 89.7539 416.088 85.9912C426.815 81.8317 440.792 82.4256 457.513 93.4206C458.549 94.1017 459.104 95.3917 458.801 96.6573C457.462 102.253 454.362 106.332 450.054 109.094C445.808 111.815 440.494 113.197 434.734 113.684C423.233 114.658 409.288 112.119 396.645 108.548C388.663 106.293 381.116 103.602 374.903 101.049C372.178 99.9293 372.516 96.0603 375.279 95.3234L386.853 92.2364L376.258 85.172C373.405 83.2694 375.4 78.8355 378.716 79.7084L393.256 83.5355L386.008 67.2242C384.917 64.768 387.319 62.2091 389.839 63.1436L415.633 72.7084L418.27 57.2256C418.705 54.6696 421.937 53.7995 423.597 55.7915L439.39 74.7474L451.491 60.6276C453.132 58.7132 456.256 59.5162 456.77 61.9845L462.536 89.6677L495.634 131.353C496.417 132.339 496.252 133.771 495.267 134.553C494.282 135.336 492.849 135.171 492.067 134.186L488.402 129.57C475.19 134.013 468.042 139.239 464.9 143.963C463.327 146.327 462.771 148.537 462.886 150.507C462.92 151.102 463.016 151.691 463.173 152.272C463.913 152.949 464.539 153.728 464.991 154.615C468.052 153.496 470.875 152.499 473.301 151.669C474.491 151.262 475.786 151.897 476.193 153.087C476.6 154.277 475.965 155.572 474.775 155.979C472.639 156.71 470.184 157.574 467.526 158.54C470.387 161.149 474.262 163.612 478.659 165.827C478.794 165.895 478.929 165.963 479.065 166.03L484.599 158.65C485.353 157.644 486.781 157.44 487.787 158.194C488.794 158.949 488.998 160.377 488.243 161.383L483.289 167.989C487.002 169.6 490.839 170.992 494.472 172.125L496.527 167.684C497.886 164.745 502.32 165.685 502.32 168.957V197.952C503.394 196.317 504.42 194.237 505.354 191.891C506.969 187.83 508.137 183.415 508.778 180.278C509.157 178.423 511.123 177.354 512.891 178.061L515.682 179.178L516.172 176.727C516.583 174.667 518.911 173.638 520.712 174.718L522.53 175.809V173.82C522.53 171.457 525.097 170.023 527.095 171.196L527.226 170.673C527.798 168.383 530.651 167.593 532.32 169.262L532.687 169.63L533.079 169.434C533.178 169.28 533.289 169.121 533.411 168.968C533.528 168.822 533.685 168.643 533.883 168.471C534.062 168.315 534.393 168.061 534.861 167.911C535.393 167.741 536.133 167.706 536.848 168.118C537.486 168.485 537.793 169.032 537.933 169.362C538.196 169.979 538.23 170.663 538.23 171.163C538.23 172.175 538.49 174.614 538.795 177.088C540.149 174.816 541.083 171.877 541.627 168.4C542.416 163.348 542.332 157.466 541.741 151.574C541.452 148.689 541.042 145.82 540.562 143.069C539.668 137.952 538.534 133.273 537.482 129.697C537.421 129.488 537.39 129.272 537.39 129.054C537.39 126.306 536.069 123.598 534.171 121.216C532.286 118.849 530.011 117.035 528.554 116.124L528.542 116.116C520.901 111.276 507.953 101.513 497.12 89.6267C493.932 86.1282 490.914 82.4317 488.264 78.6085C485.283 74.309 482.75 69.8235 480.967 65.2565C480.177 63.233 481.702 61.1366 483.79 61.1366H493.532L494.001 50.8033C490.623 47.9636 487.244 45.3598 483.869 42.9773C470.691 33.6734 457.577 27.7329 444.958 24.2881C406.332 13.7442 372.049 26.5258 354.506 38.4445ZM498.598 50.0016L498.016 62.7929C497.943 64.4148 496.606 65.6918 494.982 65.6918H486.086C487.276 68.3546 488.744 71.0158 490.431 73.6495C493.876 70.1331 498.73 66.0459 504.025 63.2555C510.372 59.9104 518.07 58.0871 524.586 62.5818C525.297 63.0719 525.788 63.8633 525.871 64.7752C526.251 68.9688 525.33 75.0818 521.32 80.3303C517.847 84.8767 512.217 88.5651 503.639 89.896C512.13 98.5872 521.47 105.873 528.134 110.398C528.213 109.537 528.269 108.548 528.298 107.44C528.372 104.665 528.281 101.369 528.088 97.9195C527.702 91.0244 526.919 83.6495 526.304 78.8766C526.197 78.0478 526.438 77.2425 526.929 76.6182L538.723 61.6053L532.946 58.3041C531.585 57.5258 531.04 55.8388 531.688 54.411L534.736 47.7055L530.582 50.0135C528.734 51.0407 526.427 49.911 526.106 47.8206L524.511 37.4526L512.571 50.3116C510.888 52.1237 508.179 51.2277 507.391 49.3483C506.66 47.6056 505.156 45.1156 503.362 42.4659C502.364 40.9905 501.304 39.5074 500.292 38.1368L498.598 50.0016ZM499.76 85.7529C509.28 85.0599 514.686 81.5109 517.701 77.5649C520.656 73.6961 521.51 69.1898 521.383 65.9364C517.106 63.4018 511.749 64.334 506.149 67.2853C501.041 69.9773 496.273 74.0934 493.055 77.4905C495.105 80.3163 497.368 83.0819 499.76 85.7529ZM492.774 176.367C488.787 175.11 484.559 173.551 480.483 171.731L471.277 184.008C471.983 184.41 472.737 184.78 473.528 185.12C476.901 186.566 480.545 187.268 482.839 187.466C483.013 187.481 483.181 187.51 483.345 187.553C490.967 189.543 495.377 194.869 497.764 200.808V175.898L493.524 188.016C493.108 189.203 491.809 189.829 490.622 189.413C489.434 188.998 488.809 187.698 489.224 186.511L492.774 176.367ZM464.915 184.899L462.309 188.374C461.555 189.38 461.759 190.808 462.765 191.563C463.772 192.317 465.199 192.113 465.954 191.107L468.527 187.676C469.576 188.307 470.662 188.847 471.733 189.306C475.566 190.95 479.627 191.746 482.314 191.992C488.683 193.702 492.24 198.403 494.104 204.06C495.999 209.81 496.033 216.301 495.437 220.758C495.221 222.375 496.539 224.565 498.907 224.079C500.619 223.728 502.207 222.756 503.587 221.607C504.99 220.439 506.328 218.963 507.543 217.384C508.002 216.787 508.449 216.168 508.88 215.536C508.305 219.876 506.904 223.202 505.226 225.763C502.71 229.602 499.456 231.893 496.993 233.279C494.964 233.228 492.911 232.91 490.803 232.51C490.171 232.391 489.523 232.261 488.868 232.129C487.207 231.797 485.498 231.455 483.878 231.239C479.227 230.62 474.318 230.894 470.331 235.363L469.765 235.997C469.267 236.555 468.664 236.951 468.014 237.156C466.716 237.564 464.909 238.087 463.377 238.374C462.562 238.527 461.626 238.108 460.463 236.334C447.711 216.878 431.054 204.661 420.497 199.742C420.912 199.047 421.39 198.389 421.915 197.767C424.372 194.854 427.778 192.849 430.177 191.906L438.326 189.683C437.126 194.487 439.335 199.881 444.043 202.435C446.995 204.036 450.28 203.953 453.322 203.348C456.006 202.813 458.809 201.802 461.384 200.872C461.711 200.754 462.034 200.638 462.352 200.524C465.303 199.467 467.879 198.621 470.099 198.436C472.213 198.26 473.694 198.703 474.835 199.948C476.361 201.614 477.294 204.198 477.919 207.279C478.224 208.785 478.442 210.33 478.638 211.843C478.679 212.162 478.719 212.483 478.76 212.802C478.907 213.963 479.052 215.109 479.221 216.123C479.428 217.364 480.601 218.202 481.842 217.995C483.083 217.789 483.921 216.615 483.714 215.374C483.561 214.457 483.432 213.431 483.286 212.287C483.244 211.955 483.201 211.612 483.155 211.259C482.957 209.725 482.722 208.047 482.383 206.373C481.717 203.092 480.586 199.483 478.194 196.871C475.803 194.26 472.732 193.645 469.721 193.896C466.814 194.139 463.691 195.206 460.816 196.235C460.49 196.352 460.166 196.469 459.844 196.585C457.217 197.531 454.757 198.417 452.432 198.88C449.84 199.396 447.811 199.297 446.215 198.431C442.245 196.277 441.405 191.106 444.253 188.066L457.301 184.507L457.328 184.499C459.42 183.901 461.207 183.078 462.708 182.061C463.318 183.113 464.07 184.055 464.915 184.899ZM467.688 181.201L476.288 169.732C473.547 168.337 470.902 166.799 468.517 165.128C468.883 167.074 469.047 169.112 468.881 171.125C468.663 173.768 467.869 176.441 466.15 178.777C466.177 178.829 466.202 178.881 466.225 178.935C466.573 179.746 467.069 180.501 467.688 181.201ZM459.298 155.015C457.958 154.127 455.965 153.374 453.394 152.794C448.145 151.611 441.194 151.301 434.466 151.459C431.106 151.539 427.951 151.999 424.992 152.431C423.638 152.629 422.325 152.821 421.052 152.967C419.802 153.111 418.673 152.214 418.529 150.965C418.385 149.715 419.282 148.585 420.531 148.442C421.559 148.324 422.727 148.154 423.995 147.969C425.149 147.801 426.385 147.621 427.673 147.458L418.582 141.449L414.676 159.028C414.134 161.471 411.035 162.246 409.406 160.346L399.542 148.835V167.275C399.542 169.145 397.868 170.571 396.021 170.273L380.917 167.837L389.128 190.42C389.848 192.401 388.381 194.495 386.274 194.495H375.067L390.264 204.628C391.938 205.745 392.084 208.151 390.556 209.461L386.317 213.094L408.677 216.983C411.036 217.394 412.014 220.246 410.404 222.018L402.412 230.81H422.239C424.288 230.81 425.749 232.797 425.137 234.753L420.279 250.294L428.427 249.478L433.693 244.21C435.746 242.156 439.234 243.88 438.851 246.758L437.238 258.852L442.13 256.405C444.216 255.362 446.65 256.962 446.521 259.29L445.706 273.976L456.764 262.065C458.207 260.511 460.758 260.876 461.706 262.773L466.727 272.816L475.066 257.988C476.26 255.865 479.341 255.94 480.43 258.118L484.143 265.547V258.24C484.143 255.665 487.146 254.259 489.124 255.907L498.596 263.801L497.822 253.74C497.705 252.224 498.727 250.856 500.213 250.537L510.746 248.28L498.795 242.01C498.053 243.619 497.127 244.906 495.982 245.892C494.266 247.37 492.29 247.973 490.324 248.218C488.656 248.425 486.83 248.387 485.075 248.351C484.835 248.346 484.596 248.341 484.358 248.336C482.317 248.299 480.249 248.301 478.083 248.619C474.815 249.098 471.358 250.287 467.925 251.575C458.74 255.022 449.109 253.011 442.298 245.854C432.575 235.637 421.18 219.809 415.248 210.92C415.058 210.634 414.925 210.329 414.842 210.018C413.862 206.311 414.187 202.999 415.266 200.139C415.277 200.106 415.289 200.073 415.302 200.041C415.306 200.031 415.31 200.022 415.314 200.012C416.065 198.068 417.164 196.334 418.433 194.83C421.53 191.158 425.703 188.746 428.646 187.614C428.717 187.587 428.79 187.563 428.864 187.543L456.076 180.119C456.08 180.118 456.084 180.117 456.088 180.116C459.165 179.235 461.099 177.846 462.315 176.296C463.542 174.734 464.169 172.84 464.341 170.751C464.637 167.157 463.562 163.227 462.234 160.241C446.087 164.14 435.095 167.509 422.402 180.204C421.513 181.094 420.071 181.094 419.181 180.205C418.292 179.315 418.292 177.873 419.181 176.984C432.404 163.759 444.124 159.973 459.81 156.142C459.623 155.773 459.452 155.397 459.298 155.015ZM418.932 204.04C418.724 205.452 418.782 206.974 419.185 208.611C425.112 217.473 436.227 232.867 445.598 242.714C451.101 248.497 458.785 250.14 466.324 247.31C469.765 246.019 473.625 244.669 477.422 244.112C479.98 243.736 482.364 243.744 484.441 243.782C484.69 243.786 484.933 243.791 485.169 243.796C486.978 243.832 488.446 243.861 489.763 243.697C491.183 243.521 492.197 243.14 493.009 242.441C493.816 241.746 494.643 240.546 495.327 238.327C495.346 238.144 495.361 237.953 495.37 237.756C493.493 237.613 491.673 237.312 489.954 236.986C489.214 236.845 488.504 236.703 487.815 236.565C486.219 236.246 484.741 235.949 483.277 235.755C479.215 235.214 476.226 235.598 473.73 238.396L473.163 239.03C472.164 240.15 470.876 241.03 469.382 241.501C468.037 241.924 466.022 242.513 464.216 242.852C460.494 243.549 458.021 240.917 456.653 238.831C444.485 220.266 428.695 208.688 418.932 204.04ZM400.642 104.92C412.287 108.014 424.449 109.983 434.349 109.145C439.682 108.694 444.191 107.441 447.595 105.259C450.67 103.287 452.927 100.508 454.092 96.6319C438.811 86.8879 426.678 86.7704 417.735 90.2384C409.7 93.3539 403.923 99.485 400.642 104.92Z" fill="#164168"/>
<path d="M461.572 240.377L447.027 221.009C451.846 226.784 464.079 211.206 470.077 201.986C470.342 201.579 470.867 201.578 470.918 202.061C471.298 205.677 466.042 217.532 462.596 224.573C462.318 225.14 462.811 225.782 463.431 225.658L467.2 224.905C467.67 224.811 468.108 225.171 468.108 225.65V229.65C468.108 230.401 469.082 230.696 469.499 230.071L475.035 221.778C475.3 221.38 475.864 221.324 476.203 221.662L479.618 225.073C480.022 225.477 480.711 225.306 480.879 224.759L484.517 212.969C484.706 212.358 485.519 212.24 485.874 212.772L486.432 213.609C486.481 213.683 486.517 213.764 486.538 213.85L488.738 222.874C488.9 223.541 489.793 223.667 490.134 223.071L494.065 216.201C494.12 216.105 494.153 215.998 494.163 215.887L494.922 206.788C494.995 205.907 496.261 205.842 496.425 206.711L498.993 220.389C499.06 220.748 499.38 221.012 499.724 220.89C502.42 219.931 507.056 213.353 510.058 208.545C510.469 207.888 511.479 208.187 511.441 208.961C510.533 227.338 500.768 233.681 495.589 234.598C495.455 234.622 495.322 234.605 495.196 234.555L489.416 232.245C489.268 232.186 489.105 232.175 488.951 232.214L479.268 234.631L462.434 240.636C462.121 240.747 461.772 240.642 461.572 240.377Z" fill="#164168"/>
<path d="M528.571 145.336L527.523 129.292C527.508 129.069 527.542 128.838 527.637 128.636C528.995 125.739 531.109 129.102 532.827 133.222C533.436 134.683 537.366 134.885 538.327 136.143C538.405 136.244 538.483 136.355 538.562 136.477C540.529 139.486 539.382 145.254 538.562 147.761C536.268 152.443 532.833 151.359 530.456 149.466C529.22 148.481 528.674 146.913 528.571 145.336Z" fill="#F5EEE7"/>
<path d="M445.509 98.3191C445.509 104.399 440.581 109.328 434.501 109.328C428.421 109.328 423.492 104.399 423.492 98.3191C423.492 92.2393 428.421 87.3105 434.501 87.3105C440.581 87.3105 445.509 92.2393 445.509 98.3191Z" fill="#164168"/>
<path d="M519.911 72.1253C519.911 76.3184 516.512 79.7175 512.319 79.7175C508.126 79.7175 504.727 76.3184 504.727 72.1253C504.727 67.9323 508.126 64.5332 512.319 64.5332C516.512 64.5332 519.911 67.9323 519.911 72.1253Z" fill="#164168"/>
<path d="M743.088 57.4719C737.136 64.6695 730.936 72.3636 724.488 80.5541C718.288 88.7446 712.212 97.3074 706.26 106.242C700.308 115.177 694.604 124.361 689.148 133.792C683.692 142.975 678.732 152.159 674.268 161.342H743.088V57.4719ZM786.984 2V161.342H816V198.199H786.984V260H743.088V198.199H630V166.182C634.96 155.261 641.532 142.727 649.716 128.58C658.148 114.433 667.448 99.9134 677.616 85.0216C687.784 70.1299 698.572 55.4863 709.98 41.0909C721.388 26.6955 732.796 13.6652 744.204 2H786.984Z" fill="#164168"/>
<path d="M756.088 67.4719C750.136 74.6695 743.936 82.3636 737.488 90.5541C731.288 98.7446 725.212 107.307 719.26 116.242C713.308 125.177 707.604 134.361 702.148 143.792C696.692 152.975 691.732 162.159 687.268 171.342H756.088V67.4719ZM799.984 12V171.342H829V208.199H799.984V270H756.088V208.199H643V176.182C647.96 165.261 654.532 152.727 662.716 138.58C671.148 124.433 680.448 109.913 690.616 95.0216C700.784 80.1299 711.572 65.4863 722.98 51.0909C734.388 36.6955 745.796 23.6652 757.204 12H799.984Z" fill="#F5EEE7"/>
<path fill-rule="evenodd" clip-rule="evenodd" d="M755.942 9H802.984V168.342H832V211.199H802.984V273H753.088V211.199H640V175.532L640.269 174.941C645.281 163.906 651.902 151.282 660.119 137.078L660.129 137.061L660.139 137.044C668.605 122.839 677.939 108.268 688.138 93.33C698.347 78.3784 709.177 63.6777 720.629 49.2276C732.094 34.7606 743.57 21.6507 755.059 9.90246L755.942 9ZM758.469 15C747.435 26.3513 736.388 39.0013 725.331 52.9542C713.967 67.2949 703.221 81.8813 693.094 96.7133C682.961 111.553 673.698 126.015 665.303 140.099C657.304 153.927 650.874 166.169 646 176.833V205.199H759.088V267H796.984V205.199H826V174.342H796.984V15H758.469ZM759.088 59.1364V174.342H682.474L684.57 170.03C689.07 160.774 694.067 151.522 699.56 142.275C705.044 132.795 710.779 123.563 716.763 114.579C722.747 105.596 728.858 96.9841 735.096 88.7434L735.113 88.7208L735.131 88.6984C741.592 80.4912 747.807 72.7782 753.776 65.56L759.088 59.1364ZM739.863 92.3876C733.707 100.521 727.671 109.027 721.757 117.906C715.84 126.787 710.17 135.917 704.745 145.294L704.736 145.31L704.727 145.325C700.167 153.001 695.957 160.673 692.099 168.342H753.088V75.8584C748.804 81.1209 744.395 86.6306 739.863 92.3876Z" fill="#164168"/>
</svg>
