<svg width="29" height="15" viewBox="0 0 29 15" fill="none" xmlns="http://www.w3.org/2000/svg">
<path d="M7.32812 4.89258H3.51953V6.54492H4.89062C5.89453 6.54492 6.68945 6.78906 7.27539 7.27734C7.86523 7.76172 8.16016 8.41602 8.16016 9.24023C8.16016 10.0684 7.86719 10.7344 7.28125 11.2383C6.69922 11.7383 5.92383 11.9922 4.95508 12H1.74414V3.46875H7.32812V4.89258ZM3.51953 7.96289V10.5879H4.91992C5.36914 10.5879 5.72656 10.4648 5.99219 10.2188C6.26172 9.97266 6.39648 9.64258 6.39648 9.22852C6.39648 8.8418 6.26758 8.53711 6.00977 8.31445C5.75586 8.08789 5.40625 7.9707 4.96094 7.96289H3.51953ZM12.8477 12C12.7695 11.8477 12.7129 11.6582 12.6777 11.4316C12.2676 11.8887 11.7344 12.1172 11.0781 12.1172C10.457 12.1172 9.94141 11.9375 9.53125 11.5781C9.125 11.2188 8.92188 10.7656 8.92188 10.2188C8.92188 9.54688 9.16992 9.03125 9.66602 8.67188C10.166 8.3125 10.8867 8.13086 11.8281 8.12695H12.6074V7.76367C12.6074 7.4707 12.5312 7.23633 12.3789 7.06055C12.2305 6.88477 11.9941 6.79688 11.6699 6.79688C11.3848 6.79688 11.1602 6.86523 10.9961 7.00195C10.8359 7.13867 10.7559 7.32617 10.7559 7.56445H9.0625C9.0625 7.19727 9.17578 6.85742 9.40234 6.54492C9.62891 6.23242 9.94922 5.98828 10.3633 5.8125C10.7773 5.63281 11.2422 5.54297 11.7578 5.54297C12.5391 5.54297 13.1582 5.74023 13.6152 6.13477C14.0762 6.52539 14.3066 7.07617 14.3066 7.78711V10.5352C14.3105 11.1367 14.3945 11.5918 14.5586 11.9004V12H12.8477ZM11.4473 10.8223C11.6973 10.8223 11.9277 10.7676 12.1387 10.6582C12.3496 10.5449 12.5059 10.3945 12.6074 10.207V9.11719H11.9746C11.127 9.11719 10.6758 9.41016 10.6211 9.99609L10.6152 10.0957C10.6152 10.3066 10.6895 10.4805 10.8379 10.6172C10.9863 10.7539 11.1895 10.8223 11.4473 10.8223ZM21.1211 5.66016V12H19.4277V7.03125H17.9336L17.8281 8.98828C17.7617 10.0312 17.5566 10.791 17.2129 11.2676C16.8691 11.7441 16.3574 11.9883 15.6777 12H15.1035L15.0859 10.623L15.2969 10.6055C15.6016 10.582 15.8242 10.4023 15.9648 10.0664C16.1055 9.73047 16.1934 9.1582 16.2285 8.34961L16.3457 5.66016H21.1211ZM27.9414 5.66016V12H26.248V7.03125H24.7539L24.6484 8.98828C24.582 10.0312 24.377 10.791 24.0332 11.2676C23.6895 11.7441 23.1777 11.9883 22.498 12H21.9238L21.9062 10.623L22.1172 10.6055C22.4219 10.582 22.6445 10.4023 22.7852 10.0664C22.9258 9.73047 23.0137 9.1582 23.0488 8.34961L23.166 5.66016H27.9414Z" fill="#164168"/>
<path d="M6.32812 3.89258H2.51953V5.54492H3.89062C4.89453 5.54492 5.68945 5.78906 6.27539 6.27734C6.86523 6.76172 7.16016 7.41602 7.16016 8.24023C7.16016 9.06836 6.86719 9.73438 6.28125 10.2383C5.69922 10.7383 4.92383 10.9922 3.95508 11H0.744141V2.46875H6.32812V3.89258ZM2.51953 6.96289V9.58789H3.91992C4.36914 9.58789 4.72656 9.46484 4.99219 9.21875C5.26172 8.97266 5.39648 8.64258 5.39648 8.22852C5.39648 7.8418 5.26758 7.53711 5.00977 7.31445C4.75586 7.08789 4.40625 6.9707 3.96094 6.96289H2.51953ZM11.8477 11C11.7695 10.8477 11.7129 10.6582 11.6777 10.4316C11.2676 10.8887 10.7344 11.1172 10.0781 11.1172C9.45703 11.1172 8.94141 10.9375 8.53125 10.5781C8.125 10.2188 7.92188 9.76562 7.92188 9.21875C7.92188 8.54688 8.16992 8.03125 8.66602 7.67188C9.16602 7.3125 9.88672 7.13086 10.8281 7.12695H11.6074V6.76367C11.6074 6.4707 11.5312 6.23633 11.3789 6.06055C11.2305 5.88477 10.9941 5.79688 10.6699 5.79688C10.3848 5.79688 10.1602 5.86523 9.99609 6.00195C9.83594 6.13867 9.75586 6.32617 9.75586 6.56445H8.0625C8.0625 6.19727 8.17578 5.85742 8.40234 5.54492C8.62891 5.23242 8.94922 4.98828 9.36328 4.8125C9.77734 4.63281 10.2422 4.54297 10.7578 4.54297C11.5391 4.54297 12.1582 4.74023 12.6152 5.13477C13.0762 5.52539 13.3066 6.07617 13.3066 6.78711V9.53516C13.3105 10.1367 13.3945 10.5918 13.5586 10.9004V11H11.8477ZM10.4473 9.82227C10.6973 9.82227 10.9277 9.76758 11.1387 9.6582C11.3496 9.54492 11.5059 9.39453 11.6074 9.20703V8.11719H10.9746C10.127 8.11719 9.67578 8.41016 9.62109 8.99609L9.61523 9.0957C9.61523 9.30664 9.68945 9.48047 9.83789 9.61719C9.98633 9.75391 10.1895 9.82227 10.4473 9.82227ZM20.1211 4.66016V11H18.4277V6.03125H16.9336L16.8281 7.98828C16.7617 9.03125 16.5566 9.79102 16.2129 10.2676C15.8691 10.7441 15.3574 10.9883 14.6777 11H14.1035L14.0859 9.62305L14.2969 9.60547C14.6016 9.58203 14.8242 9.40234 14.9648 9.06641C15.1055 8.73047 15.1934 8.1582 15.2285 7.34961L15.3457 4.66016H20.1211ZM26.9414 4.66016V11H25.248V6.03125H23.7539L23.6484 7.98828C23.582 9.03125 23.377 9.79102 23.0332 10.2676C22.6895 10.7441 22.1777 10.9883 21.498 11H20.9238L20.9062 9.62305L21.1172 9.60547C21.4219 9.58203 21.6445 9.40234 21.7852 9.06641C21.9258 8.73047 22.0137 8.1582 22.0488 7.34961L22.166 4.66016H26.9414Z" fill="white"/>
</svg>
