<svg width="278" height="178" viewBox="0 0 278 178" fill="none" xmlns="http://www.w3.org/2000/svg">
<path d="M45.3574 120.599C45.3574 120.599 70.64 129.024 85.9038 136.54C106.213 146.542 134.767 167.73 134.767 167.73" stroke="#D34B3B" stroke-width="2" stroke-linecap="round"/>
<path d="M51.5957 137.927C51.5957 137.927 66.4873 141.27 75.1611 145.551C83.3744 149.604 94.5679 158.72 94.5679 158.72" stroke="#D34B3B" stroke-width="2" stroke-linecap="round"/>
<path d="M7.56984 72.7754C6.68255 76.4299 7.03746 84.0414 15.5555 85.2512" stroke="#D34B3B" stroke-width="2" stroke-linecap="round"/>
<path d="M210.678 54.062C211.565 50.4075 211.211 42.796 202.693 41.5862" stroke="#D34B3B" stroke-width="2" stroke-linecap="round"/>
<path d="M215.668 48.5166C216.186 45.8772 215.978 40.38 211.01 39.5063" stroke="#D34B3B" stroke-width="2" stroke-linecap="round"/>
<path d="M1.19341 78.3203C0.675822 80.3506 0.882857 84.5792 5.8517 85.2513" stroke="#D34B3B" stroke-width="2" stroke-linecap="round"/>
<ellipse cx="126.535" cy="113.763" rx="24.5088" ry="26.5947" transform="rotate(3.91832 126.535 113.763)" fill="#164168"/>
<ellipse cx="42.9407" cy="75.1076" rx="13.5581" ry="14.601" transform="rotate(3.91832 42.9407 75.1076)" fill="#164168"/>
<path d="M111.756 115.887C114.823 127.074 126.504 143.241 148.693 118.417" stroke="#F5EEE7" stroke-width="2" stroke-linecap="round"/>
<path d="M35.3008 79.8115C36.6977 83.0627 41.7748 87.828 50.9081 80.8805" stroke="#F5EEE7" stroke-width="2" stroke-linecap="round"/>
<path d="M73.6351 52.2317L28.6126 38.54C28.3019 38.4456 27.9627 38.5068 27.7125 38.7138C17.8905 46.8405 18.0941 65.4062 19.4983 74.2099C19.5443 74.4981 19.7161 74.7427 19.9664 74.8927L26.6578 78.903C27.278 79.2747 28.0907 78.8889 28.231 78.1795C28.7866 75.3704 30.3542 69.5211 33.9323 68.2734C38.0217 66.8474 41.1913 68.7566 44.5424 71.5C49.9725 75.9453 47.484 88.2423 46.7671 91.2838C46.6696 91.6975 46.8313 92.1318 47.1819 92.3721L59.6148 100.891L88.7603 116.351C88.817 116.381 88.8765 116.406 88.9379 116.424L94.6855 118.172C95.2232 118.336 95.7903 118.033 95.957 117.497C97.3834 112.904 104.022 93.6042 115.023 92.9338C123.865 92.395 128.96 97.3237 134.862 103.929C144.543 114.762 140.09 139.924 139.494 143.038C139.454 143.246 139.458 143.441 139.582 143.611C144.085 149.76 211.668 159.767 245.536 164.08C245.663 164.096 245.791 164.086 245.914 164.052C254.816 161.588 253.08 152.434 250.954 147.805C250.849 147.575 250.828 147.317 250.901 147.075L256.421 128.925C256.498 128.671 256.467 128.398 256.361 128.155C254.728 124.433 257.728 119.704 259.715 117.478C259.892 117.28 259.997 117.031 259.961 116.768C258.619 106.851 218.435 91.6385 197.628 84.9866C197.233 84.8604 196.97 84.5122 196.944 84.0985C196.598 78.5438 195.686 68.0978 194.471 65.825C193.309 63.6504 194.794 58.4276 195.893 55.4968C196.055 55.0653 195.937 54.5908 195.557 54.3295C179.813 43.495 127.612 25.9275 92.0267 19.5557C91.2487 19.4164 90.6445 20.1984 90.9523 20.9263L92.439 24.4413C92.5698 24.7507 92.5366 25.1051 92.3506 25.3847L74.7587 51.8289C74.5142 52.1964 74.0575 52.3602 73.6351 52.2317Z" fill="#F5EEE7" stroke="#D34B3B" stroke-width="2"/>
<path d="M187.001 112.899L229.308 121.677" stroke="#D34B3B" stroke-width="2"/>
<path d="M175.34 124.346L237.987 137.946" stroke="#D34B3B" stroke-width="2"/>
<path d="M152.82 140.534L243.26 155.877" stroke="#D34B3B" stroke-width="2"/>
<path d="M258.203 118.998L156.493 94.078C156.444 94.0662 156.397 94.0508 156.351 94.0319L105.093 72.9997" stroke="#D34B3B" stroke-width="2"/>
<path d="M140.395 127.033L154.287 132.921C154.357 132.951 154.431 132.972 154.506 132.985L250.769 149.708M74.4239 52.2866L68.1395 56.817C67.8441 57.03 67.6879 57.3867 67.7316 57.7483L68.5509 64.5247C68.5865 64.8194 68.4893 65.1147 68.2857 65.3307L63.9255 69.9554C63.7767 70.1132 63.6833 70.315 63.6592 70.5305L60.8803 95.4221C60.8332 95.844 61.0576 96.2497 61.44 96.434L87.9774 109.219C88.5513 109.496 89.234 109.172 89.3835 108.553L95.4498 83.4255C95.4824 83.2907 95.5427 83.164 95.6268 83.0537L99.511 77.9613C99.6017 77.8425 99.6645 77.7049 99.6949 77.5586L101.405 69.3426C101.436 69.1923 101.502 69.0512 101.596 68.9303L110.806 57.1539C110.919 57.0086 110.99 56.8347 111.011 56.6514L113.807 32.1936C113.862 31.7051 113.555 31.2485 113.081 31.1167L92.8057 25.4741C92.3855 25.3571 91.9379 25.5261 91.6998 25.8916L74.6769 52.0213C74.6097 52.1246 74.5238 52.2146 74.4239 52.2866Z" stroke="#D34B3B" stroke-width="2"/>
<ellipse cx="165.364" cy="121.31" rx="6.51977" ry="7.82372" transform="rotate(16.9149 165.364 121.31)" fill="#164168"/>
<ellipse cx="246.231" cy="137.727" rx="6.51977" ry="7.82372" transform="rotate(16.9149 246.231 137.727)" fill="#164168"/>
<path d="M167.275 103.2C167.462 102.762 167.932 102.516 168.399 102.613L181.912 105.425C182.53 105.554 182.876 106.215 182.628 106.796L180.262 112.352C180.076 112.79 179.605 113.036 179.139 112.939L165.625 110.127C165.007 109.998 164.662 109.336 164.909 108.756L167.275 103.2Z" fill="#164168"/>
<path d="M236.664 118.737C236.839 118.293 237.303 118.035 237.772 118.12L251.354 120.581C251.975 120.694 252.337 121.346 252.105 121.933L249.884 127.548C249.709 127.991 249.245 128.249 248.776 128.164L235.194 125.704C234.573 125.591 234.211 124.939 234.443 124.352L236.664 118.737Z" fill="#164168"/>
<path d="M121.398 60.2318L195.208 81.6783C195.903 81.8802 196.576 81.2999 196.478 80.5828L194.09 63.0787C194.08 63.0112 194.078 62.943 194.083 62.8751L194.343 59.0812C194.374 58.623 194.089 58.2023 193.652 58.0612L123.274 35.342C122.844 35.2032 122.371 35.3711 122.137 35.7581C116.692 44.7883 119.452 54.3291 120.701 59.4998C120.786 59.8516 121.051 60.1308 121.398 60.2318Z" fill="#164168"/>
<path d="M84.507 47.7085L94.7998 31.0422C95.0384 30.6559 95.5072 30.4788 95.9416 30.6109L106.525 33.8294C106.972 33.9654 107.265 34.3928 107.231 34.8589L105.82 54.226C105.773 54.8656 105.145 55.2966 104.532 55.11L85.0669 49.1907C84.4393 48.9998 84.1623 48.2666 84.507 47.7085Z" fill="#164168"/>
</svg>
