<svg width="402" height="260" viewBox="0 0 402 260" fill="none" xmlns="http://www.w3.org/2000/svg">
<path fill-rule="evenodd" clip-rule="evenodd" d="M64.0516 175.684C64.2262 175.16 64.7924 174.877 65.3164 175.052L65.0003 176L64.6841 176.949C64.1602 176.774 63.877 176.208 64.0516 175.684ZM194 244C193.404 244.803 193.404 244.803 193.404 244.803L193.403 244.802L193.287 244.716C193.208 244.658 193.091 244.572 192.938 244.459C192.63 244.232 192.174 243.897 191.583 243.466C190.402 242.604 188.681 241.355 186.523 239.811C182.209 236.724 176.151 232.457 169.178 227.74C155.223 218.298 137.645 207.08 123.058 199.897C112.096 194.499 97.511 188.763 85.6447 184.371C79.7161 182.177 74.4746 180.321 70.7155 179.013C68.836 178.36 67.3274 177.843 66.2889 177.491C65.7697 177.314 65.3681 177.179 65.0965 177.087L64.7881 176.984L64.6841 176.949C64.6839 176.949 64.6841 176.949 65.0003 176C65.3164 175.052 65.3161 175.051 65.3164 175.052L65.423 175.087L65.7341 175.192C66.0076 175.284 66.4112 175.42 66.9324 175.597C67.9749 175.951 69.4881 176.469 71.3725 177.124C75.1411 178.435 80.3953 180.296 86.339 182.496C98.2171 186.892 112.882 192.657 123.942 198.103C138.658 205.35 156.33 216.632 170.299 226.083C177.289 230.812 183.362 235.09 187.687 238.185C189.85 239.733 191.576 240.985 192.762 241.851C193.355 242.284 193.813 242.62 194.123 242.848C194.208 242.911 194.282 242.965 194.344 243.011C194.396 243.049 194.44 243.081 194.476 243.108L194.565 243.174L194.588 243.191L194.594 243.196L194.596 243.197C194.596 243.197 194.596 243.197 194 244ZM194 244L193.404 244.803C193.848 245.132 194.474 245.04 194.803 244.596C195.132 244.153 195.039 243.526 194.596 243.197L194 244Z" fill="#D34B3B"/>
<path fill-rule="evenodd" clip-rule="evenodd" d="M73.0245 200.781C73.1455 200.242 73.6804 199.904 74.2193 200.025L74.0002 201L73.7811 201.976C73.2423 201.855 72.9035 201.32 73.0245 200.781ZM136 231C135.369 231.776 135.369 231.776 135.369 231.776L135.324 231.739L135.188 231.629C135.068 231.533 134.89 231.39 134.659 231.205C134.197 230.836 133.523 230.302 132.677 229.643C130.984 228.323 128.604 226.503 125.855 224.502C120.345 220.489 113.402 215.781 107.558 212.897C101.386 209.851 92.9584 207.121 86.033 205.146C82.5786 204.161 79.5133 203.368 77.3119 202.821C76.2113 202.548 75.3272 202.336 74.7188 202.193C74.4147 202.121 74.1795 202.067 74.0207 202.031L73.8408 201.989L73.7811 201.976C73.7811 201.976 73.7811 201.976 74.0002 201C74.2193 200.025 74.2191 200.024 74.2193 200.025L74.2836 200.039L74.4684 200.081C74.6305 200.118 74.8691 200.174 75.1769 200.246C75.7924 200.391 76.6846 200.604 77.7939 200.88C80.0121 201.431 83.1003 202.23 86.5815 203.223C93.5276 205.204 102.1 207.973 108.443 211.103C114.448 214.067 121.506 218.86 127.033 222.885C129.803 224.902 132.201 226.736 133.906 228.065C134.759 228.73 135.44 229.269 135.907 229.642C136.141 229.829 136.321 229.974 136.444 230.073L136.583 230.185L136.631 230.224C136.631 230.224 136.632 230.225 136 231ZM136 231L135.369 231.776C135.797 232.124 136.427 232.06 136.776 231.632C137.124 231.203 137.06 230.574 136.632 230.225L136 231Z" fill="#D34B3B"/>
<path fill-rule="evenodd" clip-rule="evenodd" d="M10.7143 106.028C11.251 106.159 11.5804 106.699 11.4501 107.236C10.8444 109.731 10.6734 113.566 12.074 116.939C13.442 120.234 16.3437 123.187 22.1406 124.01C22.6874 124.088 23.0677 124.594 22.99 125.141C22.9124 125.688 22.4061 126.068 21.8593 125.99C15.3664 125.068 11.8673 121.657 10.2269 117.706C8.61901 113.834 8.83203 109.543 9.50656 106.764C9.63686 106.228 10.1776 105.898 10.7143 106.028Z" fill="#D34B3B"/>
<path fill-rule="evenodd" clip-rule="evenodd" d="M303.286 80.972C302.749 80.8417 302.42 80.301 302.55 79.7643C303.156 77.2698 303.327 73.4341 301.926 70.061C300.558 66.7662 297.656 63.8136 291.859 62.9903C291.313 62.9127 290.932 62.4064 291.01 61.8596C291.088 61.3128 291.594 60.9325 292.141 61.0102C298.634 61.9323 302.133 65.3434 303.773 69.2941C305.381 73.1664 305.168 77.458 304.493 80.2362C304.363 80.7729 303.822 81.1023 303.286 80.972Z" fill="#D34B3B"/>
<path fill-rule="evenodd" clip-rule="evenodd" d="M310.529 72.9816C309.987 72.8753 309.633 72.3498 309.74 71.8079C310.09 70.0188 310.188 67.2689 309.381 64.863C308.593 62.5131 306.973 60.5385 303.827 59.9852C303.283 59.8895 302.919 59.3711 303.015 58.8271C303.111 58.2832 303.629 57.9198 304.173 58.0154C308.196 58.7227 310.31 61.3441 311.277 64.227C312.225 67.054 312.098 70.1737 311.702 72.1927C311.596 72.7347 311.07 73.0879 310.529 72.9816Z" fill="#D34B3B"/>
<path fill-rule="evenodd" clip-rule="evenodd" d="M1.52603 114.031C2.06119 114.168 2.38443 114.712 2.248 115.247C1.91254 116.563 1.82313 118.582 2.58772 120.335C3.31796 122.01 4.87656 123.569 8.13399 124.009C8.68129 124.083 9.06495 124.587 8.99092 125.134C8.91689 125.682 8.4132 126.065 7.8659 125.991C3.95432 125.462 1.77905 123.485 0.75438 121.135C-0.235944 118.863 -0.101327 116.367 0.309987 114.753C0.446419 114.218 0.990858 113.895 1.52603 114.031Z" fill="#D34B3B"/>
<path d="M217.4 168.553C215.952 189.695 198.983 205.752 179.499 204.418C160.016 203.083 145.395 184.862 146.843 163.72C148.291 142.578 165.26 126.521 184.743 127.856C204.227 129.19 218.848 147.411 217.4 168.553Z" fill="#164168"/>
<path d="M81.0275 111.702C80.2325 123.309 70.8505 132.12 60.0722 131.382C49.294 130.644 41.201 120.636 41.996 109.028C42.791 97.4208 52.173 88.6097 62.9513 89.3479C73.7296 90.0862 81.8226 100.094 81.0275 111.702Z" fill="#164168"/>
<path fill-rule="evenodd" clip-rule="evenodd" d="M160.532 168.237C161.065 168.091 161.615 168.404 161.761 168.937C163.947 176.91 169.141 186.378 177.456 189.576C185.621 192.716 197.418 190.001 213.344 172.185C213.712 171.773 214.344 171.738 214.756 172.106C215.168 172.474 215.203 173.106 214.835 173.518C198.746 191.517 186.11 195.047 176.738 191.443C167.516 187.896 162.071 177.632 159.832 169.465C159.686 168.933 160 168.383 160.532 168.237Z" fill="#F5EEE7"/>
<path fill-rule="evenodd" clip-rule="evenodd" d="M50.0953 116.233C50.6027 116.015 51.1908 116.249 51.4089 116.757C52.3302 118.901 54.4662 121.528 57.8349 122.478C61.1636 123.417 65.9683 122.793 72.4028 117.898C72.8424 117.564 73.4698 117.649 73.8042 118.089C74.1385 118.528 74.0532 119.156 73.6137 119.49C66.8707 124.619 61.4241 125.569 57.2919 124.403C53.1998 123.249 50.6654 120.093 49.5713 117.546C49.3533 117.039 49.5879 116.451 50.0953 116.233Z" fill="#F5EEE7"/>
<path d="M106.113 77.4554L40.6208 57.5386C40.3101 57.4441 39.9712 57.5059 39.7191 57.7106C25.2924 69.4196 25.6592 96.5992 27.7225 109.27C27.7694 109.558 27.9405 109.8 28.1908 109.95L38.6034 116.19C39.2236 116.562 40.0331 116.181 40.1621 115.47C40.8331 111.769 43.0467 102.411 48.5154 100.504C54.4155 98.447 58.9886 101.202 63.8236 105.16C71.8619 111.74 67.8732 130.246 66.958 134.018C66.8579 134.432 67.022 134.856 67.3726 135.096L85.5699 147.565L127.659 169.89C127.715 169.92 127.775 169.945 127.836 169.964L136.604 172.63C137.142 172.793 137.708 172.493 137.871 171.956C139.615 166.224 149.266 137.074 165.513 136.084C178.27 135.307 185.621 142.418 194.137 151.947C208.295 167.791 201.5 204.88 200.786 208.541C200.746 208.749 200.753 208.911 200.868 209.088C206.612 217.954 304.852 232.501 353.899 238.744C354.026 238.76 354.154 238.75 354.277 238.717C367.32 235.167 364.665 221.733 361.559 215.092C361.452 214.864 361.433 214.607 361.506 214.366L369.574 187.836C369.651 187.582 369.621 187.308 369.508 187.068C366.953 181.597 371.501 174.547 374.394 171.362C374.573 171.166 374.677 170.917 374.65 170.653C373.177 156.304 314.47 134.115 284.408 124.527C284.013 124.401 283.752 124.051 283.727 123.638C283.241 115.706 281.914 100.292 280.14 96.9719C278.419 93.7526 280.719 85.9029 282.315 81.7465C282.48 81.3162 282.366 80.8449 281.988 80.5811C259.504 64.8853 183.108 39.1829 131.538 30.0733C130.76 29.9358 130.16 30.719 130.468 31.4469L133.021 37.4831C133.152 37.7925 133.119 38.1469 132.933 38.4265L107.237 77.0525C106.992 77.4201 106.536 77.5838 106.113 77.4554Z" fill="#F5EEE7"/>
<path fill-rule="evenodd" clip-rule="evenodd" d="M131.391 31.063L133.942 37.0937C134.204 37.7124 134.137 38.4212 133.765 38.9805L108.069 77.6065C107.58 78.3417 106.667 78.6691 105.822 78.4122L40.3362 58.4974C33.4205 64.1185 29.9652 73.5316 28.526 83.2758C27.0912 92.9898 27.6897 102.839 28.7066 109.094L39.1171 115.333C39.1197 115.334 39.1212 115.335 39.122 115.335C39.1228 115.335 39.123 115.335 39.123 115.335C39.1255 115.335 39.1336 115.335 39.1448 115.33C39.1561 115.324 39.1645 115.317 39.1694 115.311C39.1715 115.308 39.1734 115.305 39.1749 115.302C39.1761 115.299 39.177 115.295 39.1778 115.291C39.519 113.409 40.2568 110.058 41.6221 106.916C42.9637 103.828 45.031 100.66 48.1859 99.5602C54.6329 97.3122 59.6005 100.411 64.4567 104.386C66.6797 106.206 68.0219 108.809 68.7976 111.651C69.5735 114.495 69.8022 117.646 69.7478 120.66C69.6391 126.689 68.3937 132.341 67.9295 134.254C67.9286 134.258 67.9287 134.26 67.9287 134.261C67.9288 134.262 67.9289 134.262 67.9291 134.263C67.9293 134.263 67.9297 134.264 67.9306 134.265C67.9314 134.266 67.9334 134.268 67.9376 134.271L86.0881 146.709L128.127 169.007L136.895 171.673C136.898 171.674 136.899 171.674 136.9 171.675L136.903 171.675C136.904 171.674 136.906 171.674 136.908 171.673C136.91 171.672 136.911 171.671 136.912 171.67L136.913 171.669C136.913 171.669 136.913 171.667 136.914 171.665C137.794 168.774 140.668 159.969 145.386 151.745C147.744 147.633 150.587 143.622 153.907 140.565C157.229 137.508 161.086 135.352 165.452 135.086C178.727 134.277 186.369 141.755 194.882 151.281C198.573 155.412 200.858 160.877 202.223 166.733C203.589 172.595 204.047 178.913 204.038 184.814C204.02 196.454 202.181 206.592 201.784 208.651C202.044 208.986 202.576 209.426 203.488 209.944C204.473 210.504 205.793 211.096 207.434 211.716C210.713 212.955 215.171 214.264 220.549 215.614C231.298 218.314 245.621 221.153 261.318 223.915C292.702 229.436 329.503 234.63 354.017 237.751C357.107 236.91 359.196 235.505 360.582 233.825C361.973 232.14 362.71 230.111 362.981 227.94C363.528 223.563 362.161 218.741 360.653 215.516C360.443 215.067 360.403 214.557 360.549 214.075L368.616 187.547C368.616 187.546 368.617 187.543 368.616 187.538C368.615 187.528 368.612 187.511 368.602 187.491C367.152 184.387 367.758 180.933 368.984 177.975C370.216 175.003 372.145 172.351 373.648 170.696C373.478 169.225 372.563 167.523 370.84 165.615C369.108 163.697 366.646 161.666 363.589 159.565C357.478 155.365 349.122 150.974 339.833 146.714C321.263 138.197 299.112 130.266 284.104 125.479C283.299 125.223 282.778 124.507 282.728 123.699C282.486 119.745 282.034 113.928 281.423 108.692C281.117 106.073 280.773 103.612 280.397 101.608C280.013 99.5582 279.618 98.119 279.257 97.4433C278.715 96.4278 278.53 95.142 278.529 93.8205C278.527 92.4803 278.715 90.999 279.002 89.5203C279.575 86.5621 280.569 83.5025 281.381 81.3883C281.382 81.3851 281.383 81.3822 281.384 81.3795C270.26 73.6263 245.688 63.3252 217.352 53.8054C189.038 44.2933 157.109 35.6081 131.391 31.063ZM217.989 51.9095C246.337 61.4334 271.186 71.821 282.56 79.7613C283.361 80.3205 283.557 81.3006 283.248 82.105C282.464 84.1472 281.51 87.0906 280.965 89.9011C280.692 91.3068 280.528 92.6513 280.529 93.8183C280.53 95.0039 280.704 95.9065 281.021 96.5006C281.547 97.4853 281.984 99.2179 282.363 101.24C282.751 103.308 283.101 105.819 283.409 108.46C284.027 113.743 284.481 119.599 284.724 123.577C284.724 123.577 284.724 123.578 284.724 123.578C299.779 128.38 322.004 136.336 340.667 144.896C349.996 149.175 358.472 153.621 364.722 157.917C367.846 160.064 370.447 162.195 372.324 164.275C374.188 166.338 375.428 168.449 375.644 170.551C375.706 171.156 375.46 171.676 375.134 172.035C373.744 173.564 371.956 176.027 370.831 178.741C369.699 181.471 369.309 184.278 370.414 186.645C370.618 187.081 370.688 187.61 370.53 188.127L362.462 214.657C362.462 214.659 362.462 214.66 362.462 214.66C362.462 214.661 362.462 214.663 362.465 214.669C364.062 218.085 365.576 223.301 364.966 228.188C364.659 230.649 363.808 233.059 362.125 235.098C360.438 237.143 357.969 238.748 354.539 239.682C354.295 239.748 354.035 239.769 353.772 239.736C329.24 236.613 292.401 231.414 260.972 225.885C245.259 223.121 230.881 220.271 220.061 217.554C214.655 216.196 210.112 214.866 206.728 213.587C205.036 212.948 203.61 212.314 202.5 211.683C201.419 211.068 200.523 210.395 200.028 209.632C199.725 209.164 199.734 208.71 199.805 208.35C200.156 206.546 202.02 196.43 202.038 184.811C202.047 179.003 201.595 172.849 200.275 167.187C198.954 161.517 196.779 156.405 193.391 152.614C184.872 143.081 177.811 136.337 165.574 137.083C161.816 137.311 158.374 139.171 155.262 142.037C152.148 144.903 149.424 148.724 147.12 152.74C142.514 160.77 139.692 169.406 138.828 172.247C138.503 173.316 137.376 173.91 136.313 173.587L127.545 170.92C127.422 170.883 127.303 170.834 127.19 170.774L85.051 148.422L66.8071 135.921C66.1161 135.448 65.7871 134.602 65.9859 133.783C66.4369 131.924 67.6433 126.437 67.7482 120.624C67.8006 117.718 67.5764 114.773 66.8681 112.178C66.1595 109.582 64.9859 107.404 63.1898 105.934C58.376 101.993 54.1976 99.582 48.8444 101.449C46.5305 102.256 44.7566 104.72 43.4565 107.713C42.1801 110.651 41.4755 113.829 41.1457 115.648C40.8961 117.025 39.3282 117.791 38.089 117.048L27.6764 110.808L28.1905 109.95L28.6929 109.112M28.1905 109.95L27.6764 110.808C27.1865 110.514 26.8318 110.024 26.7351 109.431C25.6903 103.014 25.0759 92.9463 26.5474 82.9836C28.0148 73.0491 31.5861 63.0234 39.0885 56.9342C39.6068 56.5136 40.293 56.3939 40.9114 56.5819L106.404 76.4987L132.1 37.8728L129.547 31.8365C128.945 30.4146 130.114 28.8065 131.712 29.0887C157.559 33.6545 189.601 42.3724 217.989 51.9095" fill="#D34B3B"/>
<path fill-rule="evenodd" clip-rule="evenodd" d="M330.197 178.534L269.157 165.87L269.563 163.912L330.603 176.576L330.197 178.534Z" fill="#D34B3B"/>
<path fill-rule="evenodd" clip-rule="evenodd" d="M342.711 202.004L252.324 182.383L252.748 180.428L343.135 200.05L342.711 202.004Z" fill="#D34B3B"/>
<path fill-rule="evenodd" clip-rule="evenodd" d="M350.366 227.885L219.88 205.747L220.214 203.775L350.7 225.913L350.366 227.885Z" fill="#D34B3B"/>
<path fill-rule="evenodd" clip-rule="evenodd" d="M225.551 136.756L372.331 172.718L371.855 174.66L225.075 138.698C224.978 138.675 224.884 138.644 224.792 138.606L150.807 108.248L151.566 106.398L225.551 136.756Z" fill="#D34B3B"/>
<path fill-rule="evenodd" clip-rule="evenodd" d="M163.34 46.0327C164.287 46.2964 164.902 47.2096 164.791 48.1866L160.701 83.9737C160.659 84.3402 160.516 84.688 160.289 84.9786L146.861 102.149L144.353 114.203C144.292 114.496 144.166 114.771 143.985 115.008L138.263 122.51L129.36 159.387C129.061 160.625 127.696 161.272 126.548 160.719L87.4835 141.899C86.7185 141.53 86.2697 140.719 86.3639 139.875L90.4246 103.503C90.4727 103.072 90.6596 102.668 90.957 102.353L97.4917 95.4216L96.2534 85.1791C96.166 84.4561 96.4786 83.7426 97.0694 83.3167L106.415 76.5791L131.198 38.5383C131.674 37.8073 132.569 37.4693 133.41 37.7033L163.34 46.0327ZM162.804 47.9595L132.874 39.63L108.091 77.6709C107.957 77.8774 107.785 78.0573 107.585 78.2015L98.2389 84.9391L99.4773 95.1815C99.5485 95.771 99.3542 96.3616 98.9469 96.7936L92.4122 103.725L88.3515 140.097L127.416 158.917L136.319 122.04C136.384 121.771 136.505 121.517 136.673 121.297L142.395 113.795L144.903 101.742C144.966 101.441 145.097 101.159 145.286 100.917L158.714 83.7466L162.804 47.9595ZM361.191 218.983L222.254 194.847C222.103 194.821 221.956 194.777 221.816 194.718L201.725 186.203L202.506 184.362L222.596 192.876L361.534 217.012L361.191 218.983Z" fill="#D34B3B"/>
<path d="M247.143 179.763C245.329 185.727 239.829 189.337 234.859 187.825C229.889 186.314 227.33 180.253 229.143 174.289C230.957 168.324 236.457 164.715 241.427 166.226C246.398 167.738 248.957 173.798 247.143 179.763Z" fill="#164168"/>
<path d="M363.819 203.448C362.005 209.413 356.505 213.023 351.535 211.511C346.564 209.999 344.005 203.939 345.819 197.974C347.633 192.01 353.133 188.4 358.103 189.912C363.074 191.423 365.633 197.484 363.819 203.448Z" fill="#164168"/>
<path d="M241.042 150.562C241.228 150.123 241.699 149.878 242.165 149.975L262.547 154.216C263.164 154.345 263.51 155.007 263.263 155.587L259.496 164.434C259.309 164.872 258.839 165.118 258.372 165.021L237.991 160.78C237.373 160.651 237.027 159.989 237.274 159.409L241.042 150.562Z" fill="#164168"/>
<path d="M341.148 172.974C341.323 172.531 341.787 172.273 342.256 172.358L362.74 176.069C363.361 176.182 363.724 176.834 363.492 177.421L359.956 186.363C359.78 186.806 359.316 187.064 358.847 186.979L338.363 183.268C337.742 183.155 337.379 182.503 337.611 181.916L341.148 172.974Z" fill="#164168"/>
<path d="M174.461 88.8301L281.857 120.036C282.552 120.237 283.224 119.657 283.127 118.94L279.582 92.9651C279.573 92.8977 279.57 92.8295 279.575 92.7616L279.977 86.8972C280.008 86.439 279.723 86.0183 279.286 85.8772L177.093 52.8876C176.663 52.7488 176.189 52.9188 175.952 53.3034C167.769 66.5658 171.981 80.6469 173.764 88.0997C173.848 88.4517 174.113 88.7291 174.461 88.8301Z" fill="#164168"/>
<path d="M121.181 71.3231L136.513 46.4978C136.751 46.1115 137.22 45.9344 137.654 46.0665L153.589 50.9124C154.036 51.0483 154.329 51.4758 154.295 51.9418L152.193 80.7901C152.146 81.4297 151.518 81.8607 150.904 81.6741L121.741 72.8053C121.113 72.6144 120.836 71.8812 121.181 71.3231Z" fill="#164168"/>
</svg>
