<svg width="75" height="24" viewBox="0 0 75 24" fill="none" xmlns="http://www.w3.org/2000/svg">
<path fill-rule="evenodd" clip-rule="evenodd" d="M30.9322 18.7772C33.9809 16.8312 35.5 14.3872 35.5 12.0003C35.5 9.61347 33.9809 7.1694 30.9322 5.22344C27.9065 3.29217 23.6049 2.03223 18.75 2.03223C13.8951 2.03223 9.59348 3.29217 6.56782 5.22344C3.51915 7.1694 2 9.61347 2 12.0003C2 14.3872 3.51915 16.8312 6.56782 18.7772C9.59348 20.7085 13.8951 21.9684 18.75 21.9684C23.6049 21.9684 27.9065 20.7085 30.9322 18.7772ZM18.75 23.9684C29.1053 23.9684 37.5 18.6101 37.5 12.0003C37.5 5.39052 29.1053 0.0322266 18.75 0.0322266C8.39466 0.0322266 0 5.39052 0 12.0003C0 18.6101 8.39466 23.9684 18.75 23.9684Z" fill="#D34B3B"/>
<path d="M37.5004 12.0007C37.5004 15.9665 34.2854 19.1815 30.3195 19.1815C26.3536 19.1815 23.1387 15.9665 23.1387 12.0007C23.1387 8.0348 26.3536 4.81982 30.3195 4.81982C34.2854 4.81982 37.5004 8.0348 37.5004 12.0007Z" fill="#164168"/>
<path fill-rule="evenodd" clip-rule="evenodd" d="M68.4322 18.7772C71.4809 16.8312 73 14.3872 73 12.0003C73 9.61347 71.4809 7.1694 68.4322 5.22344C65.4065 3.29217 61.1049 2.03223 56.25 2.03223C51.3951 2.03223 47.0935 3.29217 44.0678 5.22344C41.0191 7.1694 39.5 9.61347 39.5 12.0003C39.5 14.3872 41.0191 16.8312 44.0678 18.7772C47.0935 20.7085 51.3951 21.9684 56.25 21.9684C61.1049 21.9684 65.4065 20.7085 68.4322 18.7772ZM56.25 23.9684C66.6053 23.9684 75 18.6101 75 12.0003C75 5.39052 66.6053 0.0322266 56.25 0.0322266C45.8947 0.0322266 37.5 5.39052 37.5 12.0003C37.5 18.6101 45.8947 23.9684 56.25 23.9684Z" fill="#D34B3B"/>
<path d="M75.0004 12.0007C75.0004 15.9665 71.7854 19.1815 67.8195 19.1815C63.8536 19.1815 60.6387 15.9665 60.6387 12.0007C60.6387 8.0348 63.8536 4.81982 67.8195 4.81982C71.7854 4.81982 75.0004 8.0348 75.0004 12.0007Z" fill="#164168"/>
</svg>
