<svg width="104" height="104" viewBox="0 0 104 104" fill="none" xmlns="http://www.w3.org/2000/svg">
<path d="M0.5 31.27C0.5 24.5394 4.84373 18.5779 11.2506 16.5156L43.8938 6.00796C46.896 5.04158 50.1216 5.01403 53.1398 5.92899L88.4966 16.6471C95.0314 18.6281 99.5 24.6521 99.5 31.4805V88C99.5 96.5604 92.5604 103.5 84 103.5H16C7.43959 103.5 0.5 96.5604 0.5 88V31.27Z" fill="#164168" stroke="#164168"/>
<path d="M4.5 27.27C4.5 20.5394 8.84373 14.5779 15.2506 12.5156L47.8938 2.00796C50.896 1.04158 54.1216 1.01403 57.1398 1.92899L92.4966 12.6471C99.0314 14.6281 103.5 20.6521 103.5 27.4805V84C103.5 92.5604 96.5604 99.5 88 99.5H20C11.4396 99.5 4.5 92.5604 4.5 84V27.27Z" fill="#F5EEE7" stroke="#164168"/>
</svg>
