<svg width="150" height="93" viewBox="0 0 150 93" fill="none" xmlns="http://www.w3.org/2000/svg">
<path fill-rule="evenodd" clip-rule="evenodd" d="M132.884 15.5865L103.891 29.0428L103.47 28.1357L132.463 14.6794L132.884 15.5865Z" fill="#164168"/>
<path fill-rule="evenodd" clip-rule="evenodd" d="M137.381 17.0009L104.25 28.5848L103.92 27.6409L137.051 16.0569L137.381 17.0009Z" fill="#164168"/>
<path fill-rule="evenodd" clip-rule="evenodd" d="M116.516 27.1337L116.513 27.1345L96.6886 33.6371L96.3769 32.6869L116.204 26.1835L116.206 26.1826L129.143 22.0177L129.45 22.9696L116.516 27.1337Z" fill="#164168"/>
<path fill-rule="evenodd" clip-rule="evenodd" d="M131.763 24.106L144.694 19.9427L144.388 18.9909L131.451 23.1558L96.1477 35.364L96.4745 36.3091L131.763 24.106Z" fill="#164168"/>
<path fill-rule="evenodd" clip-rule="evenodd" d="M131.976 26.745L131.974 26.7458L112.15 33.2485L111.838 32.2983L131.665 25.7948L131.667 25.794L144.604 21.629L144.911 22.5809L131.976 26.745Z" fill="#164168"/>
<path fill-rule="evenodd" clip-rule="evenodd" d="M61.1592 47.6141L60.7324 46.7098L81.185 37.056L81.6118 37.9603L61.1592 47.6141Z" fill="#164168"/>
<path fill-rule="evenodd" clip-rule="evenodd" d="M44.796 53.3957L29.4021 59.9765L29.0091 59.057L44.4029 52.4762L44.796 53.3957Z" fill="#164168"/>
<path fill-rule="evenodd" clip-rule="evenodd" d="M16.9499 64.9954L5.77176 69.0154L5.43335 68.0744L16.6115 64.0544L16.9499 64.9954Z" fill="#164168"/>
<path fill-rule="evenodd" clip-rule="evenodd" d="M18.5184 68.4169L6.38841 71.6299L6.13236 70.6633L18.2624 67.4502L18.5184 68.4169Z" fill="#164168"/>
<path fill-rule="evenodd" clip-rule="evenodd" d="M46.6295 60.3451L30.1751 64.7999L29.9138 63.8346L46.3682 59.3798L46.6295 60.3451Z" fill="#164168"/>
<path fill-rule="evenodd" clip-rule="evenodd" d="M138.972 25.2744L102.982 39.7501L102.609 38.8223L138.598 24.3466L138.972 25.2744Z" fill="#164168"/>
<path fill-rule="evenodd" clip-rule="evenodd" d="M84.5649 47.9214L62.0628 54.2026L61.7939 53.2395L84.296 46.9582L84.5649 47.9214Z" fill="#164168"/>
<path fill-rule="evenodd" clip-rule="evenodd" d="M26.6372 49.5386C26.8585 49.2316 27.1132 48.923 27.3844 48.6588C27.7405 48.3119 28.1936 47.973 28.6866 47.8981C28.9508 47.858 29.2279 47.894 29.4857 48.0436C29.7368 48.1894 29.9299 48.4198 30.0773 48.701C30.3178 49.1602 30.4729 49.8254 30.5438 50.7247C31.4794 50.6551 32.6142 50.878 33.3614 51.8284C34.2644 52.977 34.426 54.975 33.3226 58.1644L32.3775 57.8375C33.4549 54.7231 33.1461 53.1726 32.5752 52.4464C32.0098 51.7272 31.0138 51.6063 30.1803 51.7842L29.5991 51.9082L29.5763 51.3144C29.5323 50.1706 29.3728 49.5112 29.1914 49.165C29.1044 48.9989 29.0273 48.9338 28.9837 48.9085C28.9467 48.887 28.9047 48.8764 28.8368 48.8868C28.6655 48.9128 28.4024 49.0632 28.0822 49.3751C27.7781 49.6714 27.4828 50.0539 27.2444 50.4219L27.0143 50.7772L26.6259 50.6088C25.2595 50.0167 23.2445 49.8183 21.5627 51.0456C19.8792 52.274 18.3735 55.0428 18.2897 60.7411L18.2842 61.118L17.9204 61.2164C17.5098 61.3275 17.2859 61.5902 17.1858 62.0384C17.0772 62.5241 17.1289 63.1973 17.3224 63.9991C17.7066 65.5908 18.594 67.4699 19.3947 68.8605L19.5013 69.0456L19.4412 69.2506C19.1674 70.1846 19.2599 70.702 19.3895 70.9641C19.5164 71.2208 19.7081 71.2965 19.8023 71.3082L20.3239 71.3728L20.2334 71.8905C19.5534 75.7789 20.2488 77.8 21.2134 78.8001C22.1797 79.802 23.5543 79.9213 24.5566 79.6941L24.7776 80.6694C23.5616 80.945 21.7815 80.8297 20.4936 79.4943C19.2493 78.2042 18.5924 75.9071 19.1791 72.1366C18.9168 71.9938 18.6662 71.7573 18.4931 71.4074C18.2307 70.8767 18.1744 70.1448 18.4242 69.1773C17.6277 67.766 16.749 65.8853 16.3503 64.2338C16.1438 63.3779 16.0518 62.5276 16.2098 61.8203C16.3502 61.1922 16.6943 60.6672 17.2966 60.3834C17.4368 54.7742 18.9575 51.7086 20.9732 50.2378C22.8695 48.854 25.0711 48.9769 26.6372 49.5386Z" fill="#164168"/>
<path fill-rule="evenodd" clip-rule="evenodd" d="M32.0339 70.7487C32.567 70.1634 33.2781 69.1676 33.791 68.044C34.438 66.6268 34.8551 64.8154 33.9515 63.3281L33.0969 63.8474C33.7299 64.8893 33.4948 66.2848 32.8813 67.6287C32.2746 68.9578 31.3813 70.0488 31.0035 70.3632L30.5584 70.7335L30.9896 71.1199C31.6212 71.6858 31.8849 72.2341 31.9616 72.712C32.0393 73.196 31.9331 73.6589 31.7385 74.0587C31.5419 74.4627 31.2666 74.7772 31.0498 74.9503C30.997 74.9924 30.9522 75.0226 30.9175 75.0424C30.8864 75.0603 30.8709 75.0656 30.8705 75.0658C30.8704 75.0659 30.8708 75.0657 30.8717 75.0655C30.8756 75.0645 30.8916 75.0604 30.9175 75.0595C30.9432 75.0587 30.987 75.0607 31.0401 75.0786C31.1732 75.1235 31.2641 75.2323 31.2964 75.3437L30.3175 75.5203C30.4433 77.1887 30.0921 78.3572 29.5491 79.1317C29.007 79.9051 28.2461 80.3262 27.4689 80.4585C26.6842 80.5921 25.8961 80.4288 25.3144 80.0477C24.7427 79.6731 24.3706 79.0926 24.3627 78.3419L23.3627 78.3525C23.3746 79.4731 23.9478 80.3478 24.7663 80.8841C25.5748 81.4138 26.6219 81.6171 27.6367 81.4443C28.6591 81.2703 29.6623 80.7124 30.368 79.7057C31.0071 78.794 31.3796 77.5477 31.3401 75.9501C31.4588 75.8907 31.5721 75.8129 31.6736 75.7319C32.0075 75.4654 32.3764 75.0331 32.6377 74.4964C32.9009 73.9556 33.0662 73.2841 32.949 72.5535C32.8516 71.9472 32.565 71.3343 32.0339 70.7487Z" fill="#164168"/>
<path fill-rule="evenodd" clip-rule="evenodd" d="M24.553 55.2804C24.1202 55.2497 23.6233 55.3351 23.1712 55.4818L22.8624 54.5307C23.3953 54.3577 24.0252 54.2405 24.6238 54.2829C25.2223 54.3254 25.8502 54.5345 26.2699 55.0789C26.6885 55.6218 26.8171 56.3911 26.6558 57.3705C26.5016 58.3065 26.0748 59.4934 25.2974 60.9915C25.6541 61.8431 25.9779 63.0826 25.8794 64.3007C25.7836 65.4858 25.28 66.6718 24.0288 67.4122C24.3871 67.9172 24.658 68.5985 24.5843 69.3847C24.5336 69.925 24.3244 70.4751 23.917 71.018C24.2612 70.9725 24.605 70.9623 24.9298 71.0057C25.5445 71.0879 26.1328 71.3722 26.4686 72.0022C26.7095 72.4541 26.789 73.0282 26.7168 73.723C27.0517 73.6941 27.4132 73.71 27.7375 73.8182C27.9249 73.8807 28.1108 73.9782 28.2693 74.1225C28.7511 72.9726 29.3363 71.4274 29.7749 69.8766C30.0948 68.7454 30.3311 67.6304 30.3982 66.673C30.4667 65.6937 30.3502 64.9778 30.069 64.5601L30.8986 64.0017C31.374 64.708 31.468 65.7109 31.3957 66.7428C31.3219 67.7968 31.0661 68.9856 30.7372 70.1487C30.0787 72.4769 29.1052 74.7787 28.6004 75.8437L27.6612 75.5177C27.7376 75.185 27.6951 75.0179 27.6566 74.942C27.622 74.8737 27.5571 74.8122 27.4211 74.7668C27.1128 74.664 26.6295 74.7124 26.2468 74.8231L25.4377 75.0571L25.6196 74.2348C25.8256 73.304 25.7437 72.7682 25.5861 72.4726C25.4439 72.2058 25.1931 72.0498 24.7972 71.9969C24.3868 71.942 23.87 72.009 23.3189 72.1623C22.7745 72.3137 22.2328 72.5389 21.788 72.7664L21.3131 71.8867C23.0281 70.9112 23.5247 69.9733 23.5887 69.2914C23.6545 68.5888 23.2803 67.9754 22.8887 67.6245L22.2893 67.0875L23.0363 66.788C24.3166 66.2747 24.7956 65.2974 24.8827 64.2201C24.9724 63.1109 24.635 61.9286 24.2891 61.1828L24.1846 60.9575L24.3011 60.738C25.1256 59.1844 25.5324 58.0375 25.669 57.208C25.8058 56.3775 25.6631 55.9296 25.478 55.6895C25.294 55.4508 24.9859 55.3111 24.553 55.2804Z" fill="#164168"/>
<path fill-rule="evenodd" clip-rule="evenodd" d="M27.0783 54.422C27.5221 53.8025 27.8317 52.7973 27.9617 52.091L28.951 52.2309C28.6313 55.4524 30.2994 56.8017 31.0149 57.0725L31.5806 57.2867L30.071 59.7425L29.2191 59.2188L30.1298 57.7373C29.3582 57.2472 28.4754 56.2643 28.0979 54.6838C28.0326 54.7957 27.9638 54.9031 27.8912 55.0044C27.6072 55.4009 27.2136 55.7779 26.6914 55.8852C26.1389 55.9987 25.5957 55.7823 25.0948 55.3168L25.7755 54.5843C26.1303 54.914 26.3586 54.9327 26.4901 54.9056C26.6521 54.8723 26.8554 54.7331 27.0783 54.422Z" fill="#164168"/>
<path fill-rule="evenodd" clip-rule="evenodd" d="M98.7691 11.0461C99.1897 10.4362 99.6903 9.81115 100.224 9.29143C100.843 8.68833 101.574 8.15919 102.326 8.04506C102.719 7.98531 103.12 8.03947 103.493 8.25563C103.858 8.46791 104.157 8.81321 104.395 9.26838C104.82 10.0803 105.1 11.3271 105.208 13.1075C106.867 12.8655 109.117 13.0012 110.627 14.4973C112.352 16.2068 112.886 19.4508 110.934 25.0952L109.989 24.7683C111.913 19.2066 111.214 16.4866 109.923 15.2077C108.6 13.897 106.423 13.851 104.841 14.1886L104.26 14.3127L104.237 13.7188C104.159 11.6699 103.873 10.4265 103.509 9.73243C103.331 9.39238 103.149 9.21234 102.991 9.12048C102.839 9.03252 102.673 9.00378 102.476 9.03372C102.046 9.09898 101.505 9.43963 100.922 10.0077C100.354 10.5602 99.8117 11.2648 99.3772 11.9357L99.147 12.291L98.7587 12.1227C96.2487 11.0349 92.51 10.6533 89.374 12.9417C86.2364 15.2313 83.5459 20.3056 83.3961 30.4858L83.3906 30.8626L83.0268 30.9611C82.1338 31.2027 81.6468 31.8007 81.443 32.7129C81.2308 33.6624 81.3382 34.928 81.6874 36.3744C82.3827 39.2553 83.9803 42.6324 85.4122 45.1192L85.5188 45.3043L85.4587 45.5093C84.9563 47.2231 85.1022 48.2522 85.3915 48.8372C85.678 49.4166 86.1355 49.6263 86.426 49.6623L86.9476 49.7269L86.8571 50.2446C85.6394 57.2081 86.8612 60.9556 88.7024 62.8646C90.5453 64.7754 93.1465 64.9858 95.0113 64.5632L95.2323 65.5385C93.1537 66.0095 90.1471 65.803 87.9826 63.5588C85.8626 61.3607 84.6823 57.3434 85.7959 50.5222C85.3156 50.3306 84.8205 49.9385 84.4951 49.2804C84.0711 48.423 83.9642 47.1773 84.4405 45.4347C83.0131 42.9268 81.4251 39.5496 80.7153 36.6091C80.3531 35.1087 80.2053 33.666 80.467 32.4948C80.7111 31.4027 81.3193 30.5338 82.4025 30.1144C82.6112 20.0351 85.3146 14.6659 88.7845 12.1339C92.1339 9.6899 96.0553 9.99129 98.7691 11.0461Z" fill="#164168"/>
<path fill-rule="evenodd" clip-rule="evenodd" d="M107.666 48.2646C108.036 47.8184 108.418 47.1833 108.781 46.4715C109.286 45.4819 109.792 44.2687 110.212 43.0167C110.631 41.7658 110.97 40.4618 111.136 39.2916C111.298 38.1427 111.306 37.0422 110.989 36.25L110.061 36.6221C110.276 37.1588 110.303 38.0376 110.146 39.1515C109.991 40.2441 109.67 41.4865 109.264 42.6987C108.857 43.9099 108.37 45.0767 107.89 46.0169C107.398 46.9811 106.948 47.6366 106.636 47.8963L106.191 48.2666L106.622 48.653C107.801 49.7094 108.322 50.7611 108.475 51.7113C108.628 52.6675 108.416 53.5715 108.044 54.3371C107.669 55.1068 107.143 55.7118 106.712 56.0558C106.49 56.2334 106.329 56.312 106.254 56.3322C106.249 56.3336 106.245 56.3345 106.242 56.335C106.239 56.3353 106.238 56.3355 106.238 56.3356C106.238 56.3357 106.239 56.3356 106.242 56.335C106.253 56.334 106.284 56.3335 106.328 56.3484C106.437 56.385 106.51 56.476 106.535 56.5593L105.556 56.7358C105.784 59.7694 105.149 61.9416 104.12 63.4083C103.093 64.8739 101.646 65.6757 100.169 65.9271C98.6848 66.1797 97.1832 65.874 96.0609 65.1387C94.9487 64.4099 94.209 63.2635 94.1933 61.7851L93.1934 61.7957C93.213 63.644 94.1537 65.0846 95.5128 65.9751C96.8619 66.859 98.6226 67.2047 100.337 66.9129C102.059 66.6198 103.748 65.6812 104.939 63.9823C106.052 62.3947 106.706 60.1787 106.589 57.2753C106.835 57.193 107.094 57.0307 107.336 56.8374C107.884 56.4 108.504 55.6772 108.943 54.7748C109.384 53.8682 109.655 52.7556 109.462 51.5528C109.287 50.4644 108.739 49.3428 107.666 48.2646Z" fill="#164168"/>
<path fill-rule="evenodd" clip-rule="evenodd" d="M94.9449 20.3955C94.111 20.3363 93.1761 20.5004 92.3408 20.7715L92.0321 19.8204C92.948 19.5231 94.0161 19.3271 95.0157 19.398C96.0152 19.4688 97.0071 19.8136 97.6616 20.6625C98.3148 21.5098 98.5489 22.7524 98.2717 24.4356C98.0015 26.0764 97.2372 28.1974 95.8108 30.9193C96.4554 32.3948 97.063 34.6199 96.8878 36.7871C96.7158 38.9136 95.7812 41.0086 93.4012 42.2279C94.1204 43.0872 94.724 44.3464 94.5859 45.8199C94.4791 46.959 93.9361 48.1593 92.7634 49.3486C93.7032 49.1211 94.6696 49.0075 95.5356 49.1233C96.5433 49.2581 97.4579 49.7136 97.9795 50.6923C98.4114 51.5025 98.5334 52.5991 98.3137 54.0165C98.994 53.9051 99.7854 53.883 100.455 54.1065C100.947 54.2705 101.406 54.579 101.674 55.1076C101.723 55.2053 101.765 55.3078 101.798 55.4151C103.216 53.0672 103.842 49.9503 103.955 47.0196C104.022 45.2936 103.909 43.6586 103.688 42.3252C103.463 40.9689 103.137 39.994 102.819 39.5336L103.643 38.9662C104.092 39.6187 104.445 40.7806 104.675 42.1616C104.907 43.5657 105.023 45.2686 104.954 47.0582C104.817 50.6157 103.944 54.6216 101.691 57.2807L100.822 56.8457C100.97 56.2003 100.905 55.8026 100.781 55.5595C100.662 55.3242 100.451 55.1591 100.139 55.0551C99.4792 54.835 98.5273 54.9459 97.8203 55.1504L97.0112 55.3845L97.1932 54.5621C97.5678 52.8689 97.4405 51.8069 97.0971 51.1626C96.769 50.5472 96.192 50.22 95.403 50.1145C94.5996 50.007 93.6232 50.1401 92.6193 50.4193C91.6222 50.6966 90.6348 51.1075 89.825 51.5217L89.3502 50.642C92.4579 48.8743 93.4601 47.1144 93.5902 45.7266C93.7222 44.3183 92.9747 43.1154 92.2182 42.4375L91.6188 41.9005L92.3658 41.6011C94.8089 40.6217 95.7271 38.7333 95.891 36.7066C96.0575 34.6479 95.4343 32.4778 94.8011 31.1123L94.6965 30.8869L94.813 30.6675C96.2884 27.8875 97.0325 25.8064 97.285 24.2731C97.5377 22.7389 97.2895 21.8176 96.8696 21.273C96.4509 20.7299 95.7788 20.4546 94.9449 20.3955Z" fill="#164168"/>
<path fill-rule="evenodd" clip-rule="evenodd" d="M99.7259 19.4842C100.564 18.3145 101.128 16.4617 101.363 15.1844L102.352 15.3243C101.767 21.2176 104.826 23.7864 106.27 24.3331L106.874 24.5616L103.872 28.8158L103.055 28.2392L105.341 24.9997C103.841 24.1727 101.883 22.135 101.394 18.5181C101.15 19.0766 100.866 19.6104 100.539 20.0666C100.058 20.7381 99.432 21.3159 98.6439 21.4779C97.8253 21.6461 96.9822 21.3383 96.1485 20.5635L96.8293 19.831C97.5168 20.4699 98.045 20.58 98.4426 20.4983C98.8706 20.4104 99.306 20.0704 99.7259 19.4842Z" fill="#164168"/>
<path fill-rule="evenodd" clip-rule="evenodd" d="M86.4905 20.5256C86.9297 19.2933 87.9102 18.2827 88.7212 17.4848L89.4226 18.1976C88.5967 19.0102 87.7844 19.8739 87.4325 20.8614C87.1016 21.7897 87.1571 22.8939 88.2482 24.2715L87.4644 24.8924C86.1855 23.2779 86.0303 21.817 86.4905 20.5256Z" fill="#164168"/>
<path fill-rule="evenodd" clip-rule="evenodd" d="M61.8007 75.7347C60.4573 76.1781 58.9842 76.1962 58.0306 76.0802L58.1514 75.0875C59.0016 75.191 60.3196 75.1705 61.4873 74.7851C62.6472 74.4022 63.5819 73.6915 63.8701 72.4516L64.8442 72.6781C64.4485 74.3801 63.152 75.2886 61.8007 75.7347Z" fill="#164168"/>
<path fill-rule="evenodd" clip-rule="evenodd" d="M61.3038 78.1873C61.2724 78.1849 61.2413 78.1826 61.2107 78.1803L61.2856 77.1831L61.292 77.1836C62.0334 77.2393 62.708 77.29 63.2819 77.0911C63.7966 76.9128 64.2891 76.5081 64.5789 75.463L65.5425 75.7303C65.1785 77.0429 64.4797 77.7344 63.6092 78.036C62.8356 78.3041 61.9773 78.2387 61.3038 78.1873Z" fill="#164168"/>
<path fill-rule="evenodd" clip-rule="evenodd" d="M15.4893 50.4183C15.0172 51.797 15.0033 53.37 15.1291 54.3994L16.1217 54.2781C16.0076 53.3446 16.0273 51.9341 16.4353 50.7422C16.8386 49.5646 17.58 48.6874 18.8885 48.5577L18.7899 47.5626C16.9516 47.7447 15.9662 49.0253 15.4893 50.4183Z" fill="#164168"/>
<path fill-rule="evenodd" clip-rule="evenodd" d="M13.4855 48.3644C12.9554 49.556 12.819 50.9542 12.8494 51.8794L13.8489 51.8465C13.8216 51.0179 13.9493 49.782 14.3991 48.7708C14.8429 47.7734 15.5514 47.0778 16.6881 47.0663L16.678 46.0664C15.009 46.0832 14.0217 47.159 13.4855 48.3644Z" fill="#164168"/>
<path fill-rule="evenodd" clip-rule="evenodd" d="M26.8267 84.2524C25.9115 84.1027 25.0564 83.6689 24.5408 83.3145L25.1071 82.4904C25.537 82.7858 26.2556 83.1457 26.9882 83.2656C27.7126 83.3841 28.3675 83.2608 28.8341 82.7173L29.5928 83.3687C28.8172 84.2722 27.75 84.4035 26.8267 84.2524Z" fill="#164168"/>
<path fill-rule="evenodd" clip-rule="evenodd" d="M24.8663 85.1989C24.8057 85.1564 24.7458 85.1145 24.6865 85.0738L25.2529 84.2496C25.3236 84.2982 25.3903 84.3445 25.4538 84.3887C25.8487 84.6631 26.1194 84.8512 26.4522 84.9511C26.8038 85.0567 27.2713 85.0699 28.0689 84.7993L28.3902 85.7462C27.4656 86.0599 26.776 86.0924 26.1646 85.9089C25.6665 85.7593 25.2508 85.4681 24.8663 85.1989Z" fill="#164168"/>
<path fill-rule="evenodd" clip-rule="evenodd" d="M89.3428 59.1639C88.6704 58.1614 88.3258 56.8797 88.207 56.0089L89.1978 55.8737C89.3043 56.6542 89.6144 57.7735 90.1733 58.6068C90.4503 59.0198 90.7717 59.3376 91.1344 59.5229C91.4866 59.7027 91.9068 59.7731 92.4269 59.648L92.6608 60.6203C91.9148 60.7997 91.2499 60.7046 90.6797 60.4135C90.12 60.1277 89.6815 59.6688 89.3428 59.1639Z" fill="#164168"/>
<path fill-rule="evenodd" clip-rule="evenodd" d="M57.553 31.3204C57.8647 30.8767 58.2302 30.4259 58.6198 30.0463C59.0947 29.5837 59.6735 29.1589 60.2831 29.0663C60.6057 29.0173 60.9389 29.0615 61.2484 29.2412C61.5512 29.417 61.7918 29.6993 61.9803 30.0591C62.3073 30.6831 62.5191 31.6207 62.606 32.9312C63.9645 32.9246 65.271 33.9115 65.9481 35.7114C66.7195 37.762 66.7246 40.9222 65.2307 45.2404L64.2857 44.9135C65.7385 40.7139 65.6702 37.8126 65.0121 36.0635C64.3553 34.3175 63.162 33.7747 62.2384 33.9719L61.6572 34.0959L61.6344 33.5021C61.5747 31.9495 61.3582 31.0264 61.0945 30.5231C60.9663 30.2784 60.8418 30.1614 60.7464 30.106C60.6577 30.0546 60.5596 30.0358 60.4333 30.0549C60.1454 30.0987 59.7565 30.335 59.3176 30.7626C58.8947 31.1746 58.4877 31.7025 58.1607 32.2074L57.9306 32.5627L57.5422 32.3943C55.6594 31.5783 52.8659 31.2973 50.5274 33.0037C48.1872 34.7114 46.1464 38.5214 46.0328 46.2437L46.0273 46.6206L45.6635 46.719C45.035 46.8891 44.6923 47.3032 44.5454 47.9609C44.39 48.6561 44.4669 49.5968 44.7307 50.6898C45.2554 52.8637 46.4635 55.4193 47.5493 57.3049L47.6559 57.4901L47.5958 57.6951C47.2187 58.9812 47.3354 59.7297 47.5371 60.1376C47.7361 60.5401 48.0478 60.6763 48.2306 60.6989L48.7522 60.7635L48.6617 61.2813C47.7389 66.5584 48.672 69.3592 50.0325 70.7697C51.3947 72.1821 53.3232 72.3425 54.715 72.0271L54.9361 73.0024C53.3305 73.3662 50.9965 73.2097 49.3127 71.464C47.673 69.7638 46.7801 66.6904 47.6036 61.5448C47.2415 61.3775 46.882 61.069 46.6407 60.5809C46.3051 59.9021 46.2263 58.9379 46.5781 57.6209C45.4967 55.7144 44.2977 53.1581 43.7586 50.9244C43.4818 49.7775 43.3646 48.6597 43.5694 47.7429C43.7566 46.9052 44.2201 46.2239 45.0395 45.8781C45.2109 38.2517 47.2655 34.146 49.9379 32.1959C52.4902 30.3334 55.468 30.5363 57.553 31.3204Z" fill="#164168"/>
<path fill-rule="evenodd" clip-rule="evenodd" d="M64.5298 59.7604C64.7603 59.4927 64.9841 59.1683 65.1914 58.8156C65.5195 58.2575 65.825 57.5964 66.0641 56.9044C66.5308 55.5529 66.7878 53.9538 66.3129 52.7692L65.3847 53.1413C65.7197 53.9769 65.5671 55.2801 65.1188 56.5779C64.9004 57.2104 64.6221 57.8107 64.3293 58.3088C64.0319 58.8147 63.7375 59.1844 63.4983 59.3835L63.0532 59.7538L63.4844 60.1402C64.3632 60.9276 64.743 61.7033 64.8539 62.3944C64.9659 63.0917 64.8121 63.7538 64.537 64.3188C64.26 64.888 63.8716 65.3337 63.558 65.584C63.3943 65.7147 63.2875 65.7628 63.2534 65.7719C63.2509 65.7726 63.2497 65.7728 63.2497 65.7728C63.2498 65.7724 63.3018 65.7603 63.3793 65.7864C63.5013 65.8276 63.5844 65.9284 63.613 66.027L62.6341 66.2036C62.8064 68.4885 62.3267 70.1103 61.5646 71.1974C60.8033 72.2834 59.7327 72.8765 58.6395 73.0626C57.5387 73.2499 56.4284 73.0223 55.6025 72.4812C54.7867 71.9467 54.2486 71.1106 54.2372 70.0313L53.2373 70.0419C53.2526 71.4911 53.9918 72.6214 55.0545 73.3176C56.1071 74.0073 57.4765 74.2749 58.8073 74.0484C60.1457 73.8206 61.4586 73.0908 62.3835 71.7714C63.2363 70.5548 63.7357 68.8716 63.6619 66.6865C63.8407 66.6125 64.019 66.4955 64.1819 66.3655C64.6124 66.0218 65.0945 65.4583 65.4362 64.7565C65.7798 64.0505 65.9928 63.1798 65.8413 62.236C65.7089 61.4111 65.3041 60.5683 64.5298 59.7604Z" fill="#164168"/>
<path fill-rule="evenodd" clip-rule="evenodd" d="M54.6831 38.6925C54.0691 38.649 53.3744 38.7699 52.7492 38.9728L52.4405 38.0216C53.1464 37.7925 53.9741 37.6397 54.7538 37.695C55.5334 37.7503 56.3258 38.0207 56.8515 38.7026C57.376 39.3829 57.5522 40.366 57.3386 41.6633C57.132 42.9177 56.5527 44.5264 55.4825 46.5769C55.9693 47.7108 56.421 49.3951 56.2879 51.0418C56.1577 52.6511 55.4604 54.2475 53.703 55.2056C54.2234 55.873 54.6407 56.8142 54.5381 57.9091C54.4624 58.7162 54.1099 59.5529 53.3829 60.3807C53.986 60.2629 54.5959 60.2149 55.1564 60.2899C55.9486 60.3959 56.6843 60.7575 57.104 61.5449C57.4318 62.1598 57.5303 62.9694 57.3939 63.9859C57.886 63.9213 58.4381 63.9226 58.918 64.0827C59.2063 64.1789 59.4854 64.3387 59.7013 64.5876C60.2167 63.124 60.7651 61.1793 61.1619 59.2925C61.4437 57.9525 61.6446 56.6624 61.7047 55.6125C61.7348 55.087 61.7288 54.6351 61.6846 54.2738C61.639 53.9009 61.5586 53.6776 61.481 53.565L62.3045 52.9976C62.5183 53.3079 62.6246 53.7221 62.6772 54.1523C62.7312 54.594 62.7351 55.1105 62.7031 55.6697C62.639 56.789 62.4276 58.133 62.1405 59.4983C61.5678 62.2215 60.6756 65.112 59.9808 66.5777L59.0416 66.2517C59.1504 65.7778 59.0976 65.5066 59.0209 65.3552C58.9481 65.2114 58.817 65.1032 58.6016 65.0313C58.1346 64.8755 57.4397 64.9521 56.9105 65.1052L56.1014 65.3393L56.2833 64.5169C56.5654 63.2418 56.463 62.4683 56.2215 62.0153C55.9954 61.5911 55.5973 61.3578 55.0239 61.2811C54.436 61.2024 53.7116 61.2993 52.956 61.5094C52.2072 61.7177 51.4642 62.0268 50.8546 62.3386L50.3797 61.4588C52.7236 60.1257 53.4486 58.8165 53.5424 57.8158C53.6381 56.7945 53.0954 55.9148 52.5389 55.4163L51.9396 54.8793L52.6866 54.5798C54.492 53.8561 55.1693 52.4673 55.2911 50.9612C55.4155 49.4232 54.949 47.7948 54.4734 46.7691L54.3689 46.5438L54.4853 46.3244C55.6038 44.2169 56.1629 42.6481 56.3519 41.5008C56.541 40.3525 56.3506 39.6908 56.0595 39.3131C55.7695 38.937 55.2971 38.736 54.6831 38.6925Z" fill="#164168"/>
<path fill-rule="evenodd" clip-rule="evenodd" d="M58.2278 37.8091C58.8496 36.9411 59.274 35.5531 59.4515 34.5889L60.4408 34.7288C60.0014 39.1569 62.2976 41.057 63.3421 41.4524L63.8261 41.6356L61.433 47.3524L60.5105 46.9663L62.5194 42.1675C61.4032 41.5459 59.9927 40.0836 59.5358 37.5527C59.3878 37.8526 59.2228 38.1373 59.0407 38.3914C58.6677 38.9121 58.1693 39.3798 57.527 39.5118C56.8543 39.65 56.1757 39.3924 55.5245 38.7872L56.2052 38.0546C56.7103 38.524 57.074 38.584 57.3257 38.5323C57.6078 38.4743 57.916 38.2444 58.2278 37.8091Z" fill="#164168"/>
<path d="M16.8849 30.0085C17.7343 29.6568 18.4664 29.5695 19.0811 29.7467C19.6959 29.9238 20.1416 30.3465 20.4183 31.0148C20.6459 31.5644 20.7107 32.1009 20.6129 32.6243C20.5212 33.1451 20.2752 33.6201 19.8749 34.0492C19.4809 34.4758 18.9591 34.8235 18.3096 35.0925L16.998 35.6355L17.3706 37.4896L15.5157 38.2576L14.1119 31.1567L16.8849 30.0085ZM17.7887 33.5961C18.2009 33.4254 18.4763 33.198 18.6147 32.9139C18.7594 32.6272 18.758 32.3058 18.6106 31.9498C18.4994 31.6813 18.3261 31.5189 18.0907 31.4627C17.8589 31.3977 17.5775 31.4338 17.2465 31.5708L16.2722 31.9743L16.6833 34.0538L17.7887 33.5961Z" fill="#D34B3B"/>
<path d="M23.2918 29.0348L23.5341 30.2295L26.4477 29.0231L26.7501 30.5221L23.8271 31.7324L24.0895 33.0285L27.5276 31.6049L27.8214 33.1624L22.5657 35.3385L21.1619 28.2376L26.2958 26.1119L26.5989 27.6655L23.2918 29.0348Z" fill="#D34B3B"/>
<path d="M35.2782 22.3926L36.6914 29.4896L34.9863 30.1956L34.2256 26.4501L33.2104 30.1737L32.3859 30.5151L30.0286 28.1879L30.7799 31.9373L29.0749 32.6433L27.6711 25.5424L29.1794 24.9179L32.2868 28.0759L33.695 23.0482L35.2782 22.3926Z" fill="#D34B3B"/>
<path d="M37.3158 25.3022L40.042 24.1734L40.3367 25.6537L37.6105 26.7825L37.3158 25.3022Z" fill="#D34B3B"/>
<path d="M45.3736 21.9219C45.7064 21.9304 46.0013 22.0242 46.2583 22.2031C46.5189 22.3732 46.7126 22.6113 46.8393 22.9173C47.0204 23.3545 47.0233 23.8032 46.848 24.2636C46.6728 24.7239 46.3604 25.1532 45.9108 25.5516C45.4674 25.9473 44.9428 26.2706 44.337 26.5215C43.8748 26.7128 43.3956 26.8454 42.8994 26.9192C42.4057 26.9992 41.9156 27.0082 41.429 26.9463L41.7088 25.316C42.0394 25.3547 42.3808 25.3487 42.7329 25.298C43.0913 25.2447 43.4266 25.1534 43.7389 25.0241C44.1824 24.8405 44.5198 24.613 44.7513 24.3416C44.989 24.0675 45.0523 23.7963 44.9411 23.5277C44.804 23.1967 44.4732 23.1398 43.9485 23.357L42.2529 24.0591L41.9621 22.5882L43.5172 21.9443C43.7796 21.8357 43.9686 21.6915 44.0845 21.5119C44.1977 21.326 44.2168 21.1425 44.1418 20.9613C44.0617 20.7677 43.9072 20.6598 43.6785 20.6374C43.4472 20.6088 43.1722 20.6605 42.8537 20.7924C42.5851 20.9035 42.3084 21.0657 42.0235 21.2788C41.7423 21.483 41.4784 21.7203 41.2318 21.9907L40.3783 20.6979C41.023 20.0286 41.7388 19.531 42.5257 19.2051C43.0254 18.9983 43.511 18.8813 43.9827 18.8543C44.4518 18.821 44.8594 18.8864 45.2053 19.0504C45.5487 19.2082 45.7928 19.462 45.9376 19.8118C46.0798 20.1553 46.098 20.5172 45.9921 20.8976C45.8925 21.2754 45.6863 21.6168 45.3736 21.9219Z" fill="#D34B3B"/>
<path d="M52.0413 23.2875C51.3793 23.5616 50.7512 23.679 50.1569 23.6398C49.5689 23.5979 49.0501 23.414 48.6005 23.088C48.1572 22.7594 47.8191 22.3141 47.5864 21.752C47.2761 21.0025 47.1685 20.2568 47.2638 19.515C47.3653 18.7707 47.6554 18.1018 48.134 17.5085C48.6189 16.9127 49.258 16.4505 50.0512 16.1221C50.7132 15.848 51.3382 15.7319 51.9262 15.7737C52.5205 15.813 53.0393 15.9969 53.4826 16.3255C53.9322 16.6515 54.2734 17.0955 54.5061 17.6576C54.8164 18.4071 54.9208 19.154 54.8193 19.8984C54.7241 20.6402 54.434 21.3091 53.9491 21.9049C53.4704 22.4982 52.8345 22.9591 52.0413 23.2875ZM51.5644 21.6851C51.9766 21.5145 52.2962 21.2614 52.5231 20.926C52.7501 20.5906 52.8768 20.2162 52.9032 19.8029C52.927 19.3833 52.8522 18.9643 52.679 18.5459C52.4954 18.1024 52.2119 17.8065 51.8284 17.6579C51.4487 17.5006 51.0152 17.5227 50.5281 17.7245C50.1159 17.8951 49.7963 18.1482 49.5693 18.4836C49.3424 18.819 49.217 19.1965 49.1932 19.6161C49.1668 20.0294 49.2402 20.4453 49.4135 20.8637C49.5971 21.3072 49.8788 21.6076 50.2586 21.7649C50.642 21.9134 51.0773 21.8869 51.5644 21.6851Z" fill="#D34B3B"/>
<path d="M55.6449 17.7129L58.3711 16.5841L58.6657 18.0644L55.9395 19.1932L55.6449 17.7129Z" fill="#D34B3B"/>
<path d="M65.2576 9.97938L66.6614 17.0803L64.8064 17.8483L64.2572 15.0907L61.7371 16.1341L62.2864 18.8918L60.4314 19.6599L59.0277 12.5589L60.8826 11.7909L61.4117 14.4471L63.9318 13.4036L63.4027 10.7474L65.2576 9.97938Z" fill="#D34B3B"/>
<path d="M72.5924 13.132L69.8007 14.2879L69.5694 15.8762L67.6114 16.6869L69.1024 8.38739L70.9293 7.63098L75.2279 13.5333L73.3823 14.2974L72.5924 13.132ZM71.745 11.8805L70.4242 9.93625L70.0494 12.5827L71.745 11.8805Z" fill="#D34B3B"/>
</svg>
