<svg width="56" height="56" viewBox="0 0 56 56" fill="none" xmlns="http://www.w3.org/2000/svg">
<path d="M47.5647 27.7723C47.5647 38.5899 38.6113 47.5446 27.7723 47.5446C16.9541 47.5446 8 38.5906 8 27.7723C8 16.9528 16.9352 8 27.7522 8C38.5925 8 47.5647 16.956 47.5647 27.7723ZM21.6295 36.4509C21.6295 37.1769 21.8913 37.8486 22.3906 38.3393C22.8882 38.8284 23.5609 39.0781 24.2768 39.0781C24.9952 39.0781 25.6647 38.8263 26.1553 38.3269C26.6441 37.8294 26.8839 37.1592 26.8839 36.4509V35.7232H30.4643C30.9943 35.7232 31.5103 35.5415 31.8947 35.1514C32.2769 34.7636 32.4487 34.2516 32.4487 33.7388C32.4487 33.2291 32.2728 32.7229 31.8998 32.3389C31.5224 31.9505 31.0084 31.7545 30.4643 31.7545H26.8839V31.7455H29.2187C31.392 31.7455 33.257 31.0246 34.5835 29.7279C35.9105 28.4308 36.6272 26.6267 36.6272 24.5982C36.6272 22.5746 35.9239 20.7718 34.6135 19.4733C33.3023 18.1741 31.4555 17.4509 29.2991 17.4509H24.2768C23.5516 17.4509 22.8609 17.6834 22.3526 18.2051C21.8475 18.7236 21.6295 19.418 21.6295 20.1384V27.7366H20.8415C20.2969 27.7366 19.7799 27.9332 19.4011 28.3287C19.0274 28.7189 18.8571 29.2301 18.8571 29.7411C18.8571 30.252 19.0274 30.7632 19.4011 31.1535C19.7799 31.549 20.2969 31.7455 20.8415 31.7455H21.6295V31.7545H20.8616C20.3175 31.7545 19.8035 31.9505 19.4261 32.3389C19.0531 32.7229 18.8772 33.2291 18.8772 33.7388C18.8772 34.2516 19.049 34.7636 19.4312 35.1514C19.8156 35.5415 20.3316 35.7232 20.8616 35.7232H21.6295V36.4509ZM28.6597 26.9933C28.6586 26.9933 28.6574 26.9933 28.6562 26.9933L26.904 26.9805V22.3036H28.6763C29.711 22.3036 30.3558 22.578 30.7356 22.933C31.1066 23.2799 31.3527 23.8233 31.3527 24.6384C31.3527 25.4617 31.1027 26.01 30.7269 26.3601C30.3422 26.7184 29.6925 26.9927 28.6597 26.9933Z" fill="#F5EEE7" stroke="#D34B3B" stroke-width="2"/>
</svg>
