<svg width="56" height="56" viewBox="0 0 56 56" fill="none" xmlns="http://www.w3.org/2000/svg">
<path d="M51.7718 31.2098C51.7718 42.0274 42.8183 50.9821 31.9794 50.9821C21.1611 50.9821 12.207 42.0281 12.207 31.2098C12.207 20.3903 21.1423 11.4375 31.9593 11.4375C42.7995 11.4375 51.7718 20.3935 51.7718 31.2098ZM25.8365 39.8884C25.8365 40.6144 26.0983 41.2861 26.5976 41.7768C27.0953 42.2659 27.7679 42.5156 28.4838 42.5156C29.2022 42.5156 29.8717 42.2638 30.3623 41.7644C30.8511 41.2669 31.091 40.5967 31.091 39.8884V39.1607H34.6713C35.2013 39.1607 35.7173 38.979 36.1018 38.5889C36.484 38.2011 36.6557 37.6891 36.6557 37.1763C36.6557 36.6666 36.4798 36.1604 36.1068 35.7764C35.7294 35.388 35.2155 35.192 34.6713 35.192H31.091V35.183H33.4258C35.599 35.183 37.464 34.4621 38.7905 33.1654C40.1175 31.8683 40.8343 30.0642 40.8343 28.0357C40.8343 26.0121 40.131 24.2093 38.8205 22.9108C37.5094 21.6116 35.6626 20.8884 33.5061 20.8884H28.4838C27.7586 20.8884 27.0679 21.1209 26.5596 21.6426C26.0545 22.1611 25.8365 22.8555 25.8365 23.5759V31.1741H25.0485C24.5039 31.1741 23.987 31.3707 23.6082 31.7662C23.2344 32.1564 23.0642 32.6676 23.0642 33.1786C23.0642 33.6895 23.2344 34.2007 23.6082 34.591C23.987 34.9865 24.5039 35.183 25.0485 35.183H25.8365V35.192H25.0686C24.5245 35.192 24.0105 35.388 23.6332 35.7764C23.2601 36.1604 23.0843 36.6666 23.0843 37.1763C23.0843 37.6891 23.256 38.2011 23.6382 38.5889C24.0227 38.979 24.5386 39.1607 25.0686 39.1607H25.8365V39.8884ZM32.8668 30.4308C32.8656 30.4308 32.8644 30.4308 32.8633 30.4308L31.111 30.418V25.7411H32.8834C33.918 25.7411 34.5629 26.0155 34.9426 26.3705C35.3136 26.7174 35.5597 27.2608 35.5597 28.0759C35.5597 28.8992 35.3097 29.4475 34.9339 29.7976C34.5492 30.1559 33.8995 30.4302 32.8668 30.4308Z" fill="#F5EEE7" stroke="#D34B3B" stroke-width="2"/>
</svg>
