<svg width="57" height="56" viewBox="0 0 57 56" fill="none" xmlns="http://www.w3.org/2000/svg">
<path d="M22.8975 25.5823L22.8967 25.5815C22.5833 25.2681 22.4833 24.9658 22.4843 24.7216C22.4852 24.4755 22.5893 24.1742 22.8967 23.8668L24.5387 22.2248C25.7372 22.6553 27.0835 22.4189 28.057 21.4662L28.0646 21.4587L28.0721 21.4511C29.0271 20.4758 29.2846 19.1145 28.8292 17.9176L38.451 8.3125C38.4513 8.31223 38.4515 8.31195 38.4518 8.31168C39.6563 7.11541 40.7937 6.62441 41.8232 6.62111C42.8512 6.61782 43.9771 7.10024 45.1615 8.27631C45.1619 8.27666 45.1622 8.27702 45.1626 8.27738L47.709 10.8238L47.7114 10.8262C48.8851 11.9919 49.3662 13.1079 49.3629 14.1323C49.3596 15.1598 48.8684 16.3019 47.6712 17.5158C47.6705 17.5165 47.6699 17.5172 47.6692 17.5178L38.0474 27.1563C36.851 26.7002 35.5119 26.9534 34.5329 27.912L34.5329 27.9119L34.5255 27.9194C33.5526 28.8922 33.3248 30.2381 33.7445 31.4155L32.1146 33.0724C31.8017 33.3842 31.4944 33.495 31.2464 33.5C31.0045 33.5048 30.7094 33.4118 30.4026 33.1049L22.8975 25.5823ZM34.1108 21.3007L34.1201 21.2919L34.1291 21.2828L42.3908 13.0211C43.0023 12.4096 43.2634 11.1474 42.3311 10.3739C41.7079 9.83329 40.535 9.61022 39.7555 10.4198L31.5196 18.6733C31.5195 18.6734 31.5194 18.6735 31.5192 18.6736C30.7581 19.4351 30.8537 20.5719 31.5449 21.2729C32.2459 22.0035 33.3843 21.9908 34.1108 21.3007ZM34.7371 21.819L34.7364 21.8198C34.3972 22.159 34.1535 22.6167 34.1535 23.1509C34.1535 23.6851 34.3972 24.1428 34.7364 24.482L34.7465 24.4921L34.7569 24.5019C35.3896 25.0995 36.5498 25.2901 37.3363 24.4741L45.5732 16.2196L45.5829 16.2098L45.5924 16.1998C46.2731 15.4791 46.2257 14.3918 45.6273 13.6878L45.6181 13.677L45.6087 13.6665C44.8545 12.8285 43.6537 12.955 42.9637 13.6105L42.9548 13.6189L42.9461 13.6276L34.7371 21.819ZM11.1411 39.7903L11.1463 39.7812L11.1513 39.7719C11.3448 39.414 11.7088 39.2195 11.9634 39.2049L11.9634 39.205L11.9742 39.2043L13.7847 39.0812L14.1583 39.0558L14.4233 38.7914L22.1361 31.0946L24.8887 33.8472L17.1758 41.56L16.9068 41.8291L16.8846 42.209L16.7792 44.0189C16.7662 44.2405 16.5672 44.6178 16.202 44.8207L16.202 44.8206L16.194 44.8252L10.2254 48.2132C10.0129 48.3283 9.89346 48.3531 9.8472 48.3558C9.84615 48.3549 9.84501 48.3539 9.8438 48.3528L7.61951 46.1285C7.6228 46.0769 7.64977 45.9483 7.77126 45.7227L11.1411 39.7903Z" stroke="#D34B3B" stroke-width="2"/>
</svg>
