<svg width="48" height="48" viewBox="0 0 48 48" fill="none" xmlns="http://www.w3.org/2000/svg">
<path d="M24 0L29.4997 8.88974L39.4269 5.61493L37.9257 15.96L47.6354 19.8324L39.8357 26.7923L44.7846 36L34.336 36.318L32.2085 46.5526L24 40.08L15.7915 46.5526L13.664 36.318L3.21539 36L8.16429 26.7923L0.364614 19.8324L10.0743 15.96L8.5731 5.61493L18.5003 8.88974L24 0Z" fill="#D34B3B"/>
<path d="M23.5 12L26.9474 18.7551L34.4371 19.9463L29.0779 25.3124L30.2595 32.8037L23.5 29.365L16.7405 32.8037L17.9221 25.3124L12.5628 19.9463L20.0526 18.7551L23.5 12Z" fill="#164168"/>
</svg>
