<svg width="147" height="45" viewBox="0 0 147 45" fill="none" xmlns="http://www.w3.org/2000/svg">
<path d="M16.9546 16.643C15.4907 15.2209 13.9025 14.4438 10.8988 13.2269C8.56485 12.296 7.22529 11.6362 6.34834 10.2947C5.89224 9.6647 5.64903 8.89012 5.65783 8.09558C5.65642 7.49669 5.79668 6.90702 6.06571 6.38062C6.33475 5.85423 6.72394 5.40796 7.19765 5.08275C7.93823 4.60418 8.79673 4.37187 9.66274 4.41569C10.9913 4.40425 12.2745 4.92819 13.2534 5.88179C13.9167 6.5909 14.4401 7.43321 14.7933 8.35951C14.998 8.82327 15.1801 9.29794 15.3388 9.78163C15.5045 10.3094 15.7116 11.0205 15.8773 11.0645C16.0702 11.1118 16.2666 11.1412 16.4643 11.1524L17.7141 11.1085C17.9813 11.1171 18.2484 11.0875 18.5082 11.0205C18.6739 10.9765 18.7568 10.6686 18.7568 10.1775V9.9942C18.7568 9.59835 18.7154 8.97528 18.7568 8.13227L18.7154 4.89949L18.7568 0.955669C18.7568 0.464525 18.6739 0.222618 18.4667 0.222618C18.2596 0.222618 18.0524 0.398582 17.7762 0.713794C17.0857 1.64477 16.3952 2.12858 15.8152 2.12858C15.138 2.04622 14.4989 1.75288 13.9784 1.28555C12.5954 0.405658 11.0054 -0.0392088 9.39351 0.00271168C7.67826 -0.0295765 5.98288 0.396433 4.46326 1.24157C3.02526 2.07338 1.86139 3.35238 1.12805 4.90682C0.350092 6.66399 -0.0350971 8.58815 0.00251168 10.5293C-0.0111561 12.5532 0.621778 14.5222 1.7979 16.1152C2.65174 17.2822 3.69742 18.2756 4.88446 19.0474C6.19614 19.9192 7.5835 20.6556 9.02752 21.2465C11.5755 22.3094 13.4951 23.9955 13.4951 26.4732C13.4951 28.599 11.7412 29.8892 9.61444 29.8892C8.24793 29.9052 6.92435 29.3828 5.89949 28.4231C5.24261 27.7145 4.70535 26.8913 4.31129 25.9894C4.18699 25.6815 3.97991 25.1904 3.77275 24.5233C3.60013 24.1274 3.3929 23.2844 3.18575 23.2404C2.99342 23.1937 2.79545 23.1789 2.59884 23.1965H1.30759C1.04039 23.1883 0.773339 23.2179 0.513482 23.2844C0.34776 23.3284 0.264909 23.6363 0.264909 24.1274V33.3419C0.264909 33.833 0.3478 34.0749 0.554953 34.0749C0.697995 34.0553 0.834842 34.0008 0.95466 33.9156C1.07448 33.8304 1.174 33.7168 1.24546 33.5838C2.03955 32.6528 2.70244 32.169 3.31699 32.169C4.00574 32.255 4.65717 32.5474 5.19516 33.012C6.61975 33.9085 8.25625 34.3536 9.9114 34.2949C11.6819 34.3513 13.4364 33.9247 15.0074 33.056C15.9687 32.5067 16.8155 31.7566 17.4966 30.8508C18.1778 29.945 18.6793 28.9023 18.9709 27.7854C19.3916 26.4556 19.6015 25.061 19.5923 23.6583C19.644 22.3575 19.4357 21.0599 18.9811 19.8507C18.5264 18.6416 17.8358 17.5484 16.9546 16.643ZM16.3884 28.6283C16.0293 29.2001 15.6495 29.7426 15.6495 29.7426C15.6071 29.8051 15.551 29.8558 15.486 29.8903C15.4211 29.9248 15.3492 29.942 15.2766 29.9405C15.1767 29.9379 15.0801 29.902 15.0005 29.8379C14.9043 29.7594 14.841 29.644 14.8242 29.5165C14.8074 29.389 14.8385 29.2596 14.9107 29.1562C14.9107 29.1562 15.2767 28.6357 15.6012 28.1152C16.079 27.1805 16.3172 26.1289 16.2917 25.0657C16.2745 24.3574 16.1676 23.6547 15.974 22.9765C15.7017 22.2216 15.3196 21.5166 14.8416 20.8873C14.2402 20.2115 13.5409 19.6423 12.77 19.2013C11.8785 18.6873 10.9558 18.2367 10.008 17.8525C8.73745 17.266 7.75003 16.7676 7.07333 16.3864C6.14736 15.8044 5.30545 15.0835 4.57368 14.2459C3.8876 13.4885 3.35016 12.594 2.99247 11.6143C2.66978 10.7076 2.50364 9.74658 2.50215 8.77736C2.48031 7.51662 2.77342 6.27221 3.35155 5.17071C3.50346 4.88482 4.04206 3.92455 4.47017 3.8659C4.54199 3.85401 4.61536 3.85972 4.68478 3.88259C4.7542 3.90546 4.81779 3.94488 4.87064 3.99785C4.91835 4.04453 4.95645 4.1012 4.98249 4.16429C5.00854 4.22737 5.02194 4.2955 5.02194 4.36437C5.02194 4.43325 5.00854 4.50138 4.98249 4.56446C4.95645 4.62754 4.91835 4.68422 4.87064 4.7309C4.82451 4.77412 4.7735 4.81104 4.71875 4.84083C4.49612 5.09872 4.30363 5.38426 4.14557 5.69119C3.64732 6.64575 3.3949 7.72287 3.41367 8.814C3.41704 9.66507 3.56197 10.5088 3.84179 11.3063C4.15528 12.1668 4.62445 12.9538 5.22281 13.6228C5.89264 14.3908 6.665 15.0502 7.51526 15.58C8.14363 15.9539 9.09658 16.445 10.3326 17.0461C11.309 17.4456 12.2594 17.9134 13.1775 18.4463C14.0388 18.9475 14.8196 19.5909 15.4907 20.3522C16.0454 21.0828 16.4882 21.9016 16.8027 22.7786C17.0221 23.5521 17.1429 24.3534 17.1617 25.161C17.1835 26.3675 16.9175 27.5603 16.3884 28.6283Z" fill="#C3CDDC"/>
<path d="M45.3653 11.2956C44.7464 10.1045 43.8841 9.05523 42.8338 8.21516C41.7836 7.3751 40.5685 6.76276 39.2666 6.4174C37.4781 5.97482 35.6012 6.03566 33.8454 6.59311C32.0897 7.15057 30.5241 8.18271 29.3236 9.57431C27.0759 12.2294 25.7246 16.2295 25.7246 20.3133C25.7246 24.8639 27.335 29.2055 30.675 32.1115C32.3142 33.5375 34.4217 34.316 36.5987 34.2998C38.5572 34.311 40.4741 33.7382 42.1024 32.6551C43.416 31.7406 44.513 30.5514 45.3164 29.1707C46.9478 26.4906 47.7987 23.4119 47.7741 20.2785C47.7774 17.1256 46.9466 14.0275 45.3653 11.2956ZM33.4618 30.4042C33.4171 30.4573 33.3615 30.5003 33.2987 30.5304C33.2359 30.5604 33.1674 30.5768 33.0977 30.5784C32.989 30.5798 32.8839 30.54 32.8037 30.4669C30.2969 28.3762 28.7354 24.4528 28.7354 20.16C28.7354 16.0553 30.1359 12.313 32.4536 10.1527C32.4982 10.1045 32.5523 10.0661 32.6126 10.0399C32.6728 10.0136 32.7379 10 32.8037 10C32.8695 10 32.9345 10.0136 32.9948 10.0399C33.0551 10.0661 33.1092 10.1045 33.1538 10.1527C33.1974 10.1955 33.232 10.2465 33.2557 10.3027C33.2793 10.3589 33.2915 10.4193 33.2915 10.4803C33.2915 10.5412 33.2793 10.6015 33.2557 10.6577C33.232 10.714 33.1974 10.765 33.1538 10.8078C31.0532 12.766 29.7368 16.341 29.7368 20.1321C29.7368 24.1531 31.1372 27.7978 33.4618 29.7282C33.507 29.7732 33.5423 29.827 33.5655 29.8862C33.5887 29.9454 33.5993 30.0088 33.5967 30.0723C33.5941 30.1358 33.5783 30.1981 33.5502 30.2552C33.5222 30.3123 33.4825 30.3631 33.4338 30.4042H33.4618ZM36.7178 29.9094C35.8286 29.9094 35.0653 29.3658 34.3441 28.3135C32.967 25.9202 32.2789 23.1956 32.3555 20.4387C32.322 17.7364 32.8862 15.0599 34.008 12.5988C34.7082 11.2538 35.7865 10.5081 36.8088 10.5081C37.9922 10.5081 39.1336 11.435 39.8128 13.1632C40.7428 15.4194 41.2026 17.8401 41.1641 20.2785C41.2109 22.6975 40.7332 25.0982 39.7637 27.317C38.9725 28.9895 37.8731 29.9094 36.6898 29.9094H36.7178ZM40.604 30.3554C40.5209 30.4283 40.4136 30.468 40.3029 30.4669C40.2353 30.4669 40.1685 30.4526 40.107 30.425C40.0454 30.3974 39.9904 30.357 39.9458 30.3066C39.8656 30.213 39.8258 30.0917 39.835 29.969C39.8442 29.8464 39.9016 29.7323 39.9948 29.6516C42.2215 27.7282 43.6008 24.0764 43.6008 20.16C43.6008 16.2435 42.2004 12.6197 40.0158 10.6893C39.9693 10.6494 39.9313 10.6006 39.904 10.5458C39.8766 10.4911 39.8606 10.4315 39.8567 10.3706C39.8528 10.3096 39.8611 10.2484 39.8812 10.1907C39.9013 10.1329 39.9328 10.0797 39.9738 10.0342C40.0559 9.94247 40.171 9.8866 40.2942 9.87877C40.4174 9.87095 40.5388 9.91179 40.6319 9.99242C43.0406 12.0831 44.5321 15.9856 44.5321 20.16C44.5321 24.3343 42.9987 28.2578 40.576 30.3554H40.604Z" fill="#C3CDDC"/>
<path d="M71.0516 30.4789V28.8671C71.0083 28.5356 70.9937 28.201 71.0079 27.867C71.0079 27.4784 70.9205 27.2625 70.7895 27.2625C70.6586 27.2625 70.433 27.3921 70.0619 27.6943C69.1371 28.5721 67.9453 29.1235 66.6712 29.2629C66.1036 29.3061 64.7356 29.3924 62.5381 29.4356H59.2856C59.1715 29.427 59.0643 29.3779 58.984 29.2971C58.9037 29.2164 58.8558 29.1097 58.8491 28.9967L58.8054 24.1254V14.5483C58.8054 14.023 58.8491 12.0227 59.0237 10.5045C59.1412 9.23558 59.6812 8.04107 60.559 7.10824C60.8719 6.76286 61.0028 6.5398 61.0028 6.3887C61.0028 6.23759 60.6899 6.12967 60.0787 6.12967H58.3179L55.1526 6.17285C54.8294 6.18586 54.5056 6.17142 54.1849 6.12967H51.107C50.9143 6.11655 50.7206 6.13109 50.5321 6.17285C50.3138 6.21602 50.2266 6.38874 50.4012 6.51825C51.5158 7.63588 52.2136 9.09462 52.3803 10.6556C52.424 11.8716 52.424 13.6992 52.424 16.1745V25.8738C52.436 27.2382 52.3777 28.6023 52.2493 29.9608C52.1014 31.2103 51.5621 32.3827 50.7067 33.3139C50.4761 33.4996 50.3085 33.7507 50.2266 34.0334C50.2266 34.2133 50.5321 34.2997 51.1506 34.2997H59.9478C61.9706 34.2565 63.244 34.2565 63.8188 34.2997H70.3239C70.4907 34.3037 70.6564 34.2743 70.8114 34.2133C70.9424 34.1701 71.0297 34.0334 71.0297 33.8176C71.052 33.3837 71.052 32.949 71.0297 32.5152V32.4288C71.0079 31.5654 71.0079 30.9106 71.0516 30.4789ZM55.9604 30.1263C55.9604 30.2542 55.909 30.3768 55.8175 30.4672C55.7261 30.5576 55.6021 30.6084 55.4728 30.6084C55.3435 30.6084 55.2195 30.5576 55.1281 30.4672C55.0367 30.3768 54.9853 30.2542 54.9853 30.1263V10.0799C54.9853 9.95208 55.0367 9.82946 55.1281 9.73905C55.2195 9.64864 55.3435 9.59786 55.4728 9.59786C55.6021 9.59786 55.7261 9.64864 55.8175 9.73905C55.909 9.82946 55.9604 9.95208 55.9604 10.0799V30.1263Z" fill="#C3CDDC"/>
<path d="M104.656 29.7773C104.617 27.3456 104.577 25.4607 104.577 24.1225V14.5469C104.577 14.0217 104.617 12.0217 104.776 10.5037C104.884 9.23407 105.378 8.03964 106.178 7.10793C106.456 6.76261 106.575 6.53958 106.575 6.3885C106.575 6.23742 106.297 6.12952 105.735 6.12952H104.134L101.255 6.17268C100.961 6.18524 100.667 6.1708 100.375 6.12952H97.5761C97.4031 6.11669 97.2292 6.13123 97.06 6.17268C96.8548 6.21585 96.7754 6.38854 96.9408 6.51804C97.9544 7.6355 98.5891 9.09402 98.7407 10.6548C98.7804 11.8706 98.7804 13.698 98.7804 16.1728V25.8708C98.7926 27.2351 98.7374 28.5992 98.615 29.9571C98.4832 31.2058 97.9949 32.3783 97.2188 33.3097C97.009 33.4968 96.8547 33.7471 96.7754 34.0292C96.7754 34.209 97.0599 34.2953 97.6158 34.2953H105.775C105.95 34.3085 106.126 34.2939 106.297 34.2522C106.575 34.209 106.615 34.0292 106.456 33.8997C105.443 32.7876 104.808 31.3337 104.656 29.7773ZM102.01 30.1874C102.01 30.3152 101.963 30.4378 101.88 30.5282C101.797 30.6186 101.684 30.6694 101.566 30.6694C101.449 30.6694 101.336 30.6186 101.253 30.5282C101.17 30.4378 101.123 30.3152 101.123 30.1874V10.144C101.123 10.0161 101.17 9.89353 101.253 9.80313C101.336 9.71273 101.449 9.66196 101.566 9.66196C101.684 9.66196 101.797 9.71273 101.88 9.80313C101.963 9.89353 102.01 10.0161 102.01 10.144V30.1874Z" fill="#C3CDDC"/>
<path d="M94.0444 6.17808C93.8756 6.13314 93.7004 6.11853 93.5267 6.13488H86.7112C86.441 6.11299 86.1692 6.12751 85.9028 6.17808C85.5978 6.22128 85.5978 6.35092 85.7255 6.52373C86.3391 7.16568 86.8596 7.89301 87.2715 8.68383C87.3924 9.03428 87.4641 9.40031 87.4843 9.77109C87.28 11.3357 86.9358 12.8781 86.4559 14.3793L86.0304 16.0354L83.7397 24.2798L83.3567 25.763C83.2716 26.1087 83.1865 26.2887 83.1014 26.2887C83.0163 26.2887 82.8816 26.0655 82.7964 25.6334C82.2007 23.1925 81.7681 21.4572 81.4702 20.4564C81.1298 19.1027 80.9525 18.2963 80.9099 18.1019L80.4418 16.3594C80.144 15.0993 79.6688 13.3136 79.2858 11.5351C79.1348 10.9497 79.0328 10.3524 78.9809 9.74947C78.9809 8.53261 79.5412 7.79099 80.6972 6.52373C80.8248 6.39412 80.7823 6.22128 80.5695 6.17808C80.3858 6.1363 80.1971 6.12175 80.0092 6.13488H70.5839C70.3961 6.12205 70.2075 6.13659 70.0237 6.17808C69.8109 6.22128 69.7684 6.39412 69.896 6.52373C70.5663 7.23126 71.1827 7.98945 71.7399 8.79181C72.1247 9.61315 72.4265 10.472 72.6406 11.3551C72.755 11.8856 72.897 12.4096 73.0661 12.9248L74.5271 18.6275L75.8958 23.7614C76.0235 24.4166 76.2434 25.151 76.4987 26.0222C76.8944 27.2657 77.2234 28.53 77.4845 29.8096L78.3426 32.8986C78.4277 33.2082 78.5554 34.3819 79.2858 34.2955H84.1723C84.6403 34.3387 84.8177 34.0291 84.9879 33.3378C85.5836 31.0265 86.2715 28.5928 87.0446 25.979C87.4701 24.6758 88.1154 22.4149 89.0161 19.1459C89.3139 18.1883 89.5267 17.4539 89.6544 16.9282L90.7324 13.2273L91.1579 11.708C91.4558 10.7071 91.626 10.0519 91.7608 9.74947C91.9573 9.32121 92.1948 8.91362 92.47 8.53261C92.9451 7.81257 93.8458 7.00615 94.2288 6.52373C94.3777 6.35092 94.3777 6.22128 94.0444 6.17808ZM81.1298 30.6593C81.0899 30.6667 81.0491 30.6667 81.0092 30.6593C80.9061 30.6584 80.806 30.6236 80.7242 30.5599C80.6423 30.4963 80.583 30.4073 80.5553 30.3065L75.1583 10.2463C75.1291 10.1246 75.1475 9.9962 75.2098 9.88812C75.2721 9.78004 75.3733 9.70082 75.4922 9.66715C75.611 9.63349 75.738 9.64806 75.8464 9.70776C75.9548 9.76747 76.0361 9.86763 76.0731 9.98709L81.4631 30.0545C81.4802 30.115 81.485 30.1784 81.4773 30.2408C81.4697 30.3033 81.4498 30.3636 81.4186 30.418C81.3875 30.4725 81.3459 30.52 81.2962 30.5578C81.2466 30.5955 81.19 30.6227 81.1298 30.6377V30.6593Z" fill="#C3CDDC"/>
<path d="M146.6 38.1898C146.179 38.2813 145.777 38.44 145.413 38.6592C144.661 39.0024 143.83 39.1661 142.995 39.1357C141.53 39.1204 140.083 38.8278 138.74 38.2752C137.217 37.6668 135.872 36.7228 134.818 35.5229C134.048 34.6216 133.389 33.641 132.853 32.5999C132.256 31.4407 131.387 29.4209 130.155 26.5406L125.954 16.5271C125.913 16.4095 125.9 16.285 125.916 16.1622C125.931 16.0394 125.975 15.9212 126.044 15.816L127.692 13.6824C128.372 12.8645 128.788 12.26 129.15 11.7907C129.962 10.6495 130.847 9.5569 131.803 8.51919C132.415 7.89508 133.123 7.36055 133.904 6.93326C134.221 6.71991 134.357 6.54212 134.357 6.41411C134.357 6.2861 134.221 6.20076 133.904 6.20076H131.296C130.752 6.24344 130.019 6.24343 129.15 6.24343H127.639L125.032 6.20076C124.849 6.18981 124.666 6.20419 124.487 6.24343C124.162 6.24343 124.208 6.49945 124.397 6.67725C124.718 7.00955 125.007 7.36904 125.258 7.75114C125.461 8.04647 125.573 8.38837 125.583 8.73966C125.507 9.36635 125.245 9.9603 124.828 10.4536C124.321 11.2715 123.505 12.3454 122.455 13.7677L118.434 19.0518C118.298 19.2723 118.155 19.3577 118.109 19.3577C118.064 19.3577 117.928 19.2296 117.928 18.9238V14.4505C117.928 13.9313 117.973 11.9542 118.154 10.4536C118.3 9.20394 118.861 8.02924 119.757 7.09682C120.074 6.75545 120.21 6.53499 120.21 6.38564C120.21 6.23629 119.893 6.12962 119.25 6.12962H117.429L114.142 6.17229C113.806 6.18515 113.47 6.17088 113.137 6.12962H109.94C109.74 6.11665 109.539 6.13102 109.343 6.17229C109.116 6.21496 109.025 6.38567 109.207 6.51369C110.364 7.61834 111.089 9.06014 111.262 10.603C111.308 11.7622 111.308 13.6113 111.308 16.0578V25.6445C111.32 26.9931 111.26 28.3413 111.126 29.6841C110.973 30.919 110.413 32.0778 109.524 32.9982C109.285 33.1817 109.111 33.4299 109.025 33.7094C109.025 33.8872 109.343 33.9725 109.985 33.9725H119.326C119.524 33.9852 119.722 33.9708 119.915 33.9298C120.233 33.8872 120.278 33.7094 120.097 33.5814C118.93 32.4856 118.204 31.0428 118.041 29.4991C117.996 28.852 117.996 27.9061 117.996 26.6544C117.981 26.5276 117.993 26.3992 118.032 26.277C118.071 26.1548 118.136 26.0412 118.223 25.9432L119.228 24.6986L120.875 22.5651C121.011 22.4371 121.283 22.4371 121.329 22.6078L125.032 31.3767C126.309 34.4703 127.359 36.6608 128.961 38.6806C130.417 40.6033 132.385 42.1315 134.667 43.1112C136.137 43.772 137.747 44.11 139.375 44.0998C140.328 44.0945 141.278 43.9943 142.209 43.8011C143.535 43.5046 144.731 42.8288 145.633 41.8666C146.485 41.0509 146.974 39.9596 147 38.8157C146.963 38.4032 146.827 38.1898 146.6 38.1898ZM114.958 29.7836C114.967 29.8506 114.96 29.9186 114.939 29.983C114.918 30.0474 114.882 30.1069 114.834 30.1575C114.787 30.208 114.729 30.2485 114.663 30.2762C114.598 30.3039 114.527 30.3182 114.455 30.3182C114.384 30.3182 114.313 30.3039 114.247 30.2762C114.182 30.2485 114.124 30.208 114.076 30.1575C114.029 30.1069 113.993 30.0474 113.972 29.983C113.95 29.9186 113.944 29.8506 113.953 29.7836V9.97004C113.968 9.85459 114.027 9.74833 114.12 9.67126C114.212 9.5942 114.332 9.55163 114.455 9.55163C114.579 9.55163 114.698 9.5942 114.791 9.67126C114.883 9.74833 114.943 9.85459 114.958 9.97004V29.7836ZM137.962 41.2053C136.758 41.1429 135.596 40.7661 134.607 40.1172C133.05 39.0834 131.759 37.7347 130.828 36.1701C128.727 32.3439 123.188 20.4742 123.127 20.3533C123.087 20.2408 123.093 20.1183 123.144 20.0097C123.195 19.9011 123.287 19.8142 123.402 19.7662C123.518 19.7181 123.648 19.7123 123.767 19.7499C123.887 19.7875 123.988 19.8657 124.049 19.9693C124.11 20.0902 129.634 31.9314 131.727 35.7291C132.583 37.1614 133.768 38.3957 135.196 39.342C136.022 39.8831 136.988 40.2049 137.992 40.2736C138.115 40.2878 138.228 40.3437 138.31 40.4308C138.392 40.5179 138.437 40.6302 138.437 40.7465C138.437 40.8628 138.392 40.9752 138.31 41.0623C138.228 41.1494 138.115 41.2053 137.992 41.2195L137.962 41.2053Z" fill="#C3CDDC"/>
</svg>
