<svg width="156" height="38" viewBox="0 0 156 38" fill="none" xmlns="http://www.w3.org/2000/svg">
<path d="M31.4351 34.5373H29.0612L28.6201 35.9643H27L29.4782 28.6191H31.0421L33.5284 35.9643H31.8762L31.4351 34.5373ZM30.9699 33.0052L30.2481 30.6548L29.5263 33.0052H30.9699Z" fill="#164168"/>
<path d="M38.4625 35.9643V32.9738L37.3477 35.4607H36.698L35.6153 32.9318V35.9643H34.2439V30.277H35.8479L37.0589 33.2466L38.3903 30.277H39.8259L39.8339 35.9643H38.4625Z" fill="#164168"/>
<path d="M45.4255 33.1312C45.4255 33.1452 45.4174 33.3095 45.4014 33.6243H42.2415C42.3057 33.9182 42.4286 34.1455 42.6104 34.3064C42.7976 34.4603 43.0301 34.5373 43.3082 34.5373C43.5167 34.5373 43.6958 34.4988 43.8455 34.4218C44.0006 34.3449 44.1556 34.219 44.3107 34.0441L45.1127 35.1354C44.6903 35.751 44.0727 36.0588 43.26 36.0588C42.7521 36.0588 42.3057 35.9328 41.9207 35.681C41.5357 35.4292 41.2363 35.0794 41.0224 34.6317C40.8139 34.184 40.7097 33.6768 40.7097 33.1102C40.7097 32.5505 40.8112 32.0504 41.0144 31.6097C41.2229 31.1619 41.509 30.8122 41.8726 30.5603C42.2361 30.3085 42.6452 30.1826 43.0996 30.1826C43.5327 30.1826 43.9257 30.3015 44.2786 30.5393C44.6315 30.7702 44.9095 31.1095 45.1127 31.5572C45.3212 31.9979 45.4255 32.5226 45.4255 33.1312ZM43.1077 31.5992C42.8724 31.5992 42.6746 31.6866 42.5142 31.8615C42.3591 32.0364 42.2602 32.2742 42.2174 32.575H43.9979C43.9551 32.2742 43.8535 32.0364 43.6931 31.8615C43.5381 31.6866 43.3429 31.5992 43.1077 31.5992Z" fill="#164168"/>
<path d="M49.126 30.1826C49.5217 30.1826 49.8799 30.305 50.2007 30.5498C50.5269 30.7877 50.7835 31.1305 50.9707 31.5782C51.1631 32.0189 51.2594 32.5331 51.2594 33.1207C51.2594 33.7083 51.1631 34.226 50.9707 34.6737C50.7835 35.1144 50.5269 35.4572 50.2007 35.702C49.8799 35.9398 49.5217 36.0588 49.126 36.0588C48.6181 36.0588 48.2144 35.8594 47.915 35.4607V38H46.3912V30.277H47.8428V30.8437C48.1262 30.4029 48.5539 30.1826 49.126 30.1826ZM48.8052 34.4743C49.0726 34.4743 49.2918 34.3554 49.4629 34.1175C49.634 33.8727 49.7195 33.5404 49.7195 33.1207C49.7195 32.7009 49.634 32.3722 49.4629 32.1343C49.2918 31.8895 49.0726 31.7671 48.8052 31.7671C48.5379 31.7671 48.3187 31.8895 48.1476 32.1343C47.9765 32.3722 47.891 32.7009 47.891 33.1207C47.891 33.5404 47.9765 33.8727 48.1476 34.1175C48.3187 34.3554 48.5379 34.4743 48.8052 34.4743Z" fill="#164168"/>
<path d="M52.1516 30.277H53.6674V33.2571L55.4879 30.277H56.8914V35.9643H55.3676V32.9738L53.5631 35.9643H52.1516V30.277Z" fill="#164168"/>
<path d="M60.1135 33.9391H59.6002V35.9643H58.0764V30.277H59.6002V32.3757H60.1456L61.2123 30.277H62.8243L61.3646 33.0052L62.9205 35.9643H61.124L60.1135 33.9391Z" fill="#164168"/>
<path d="M65.2803 30.1826C66.0021 30.1826 66.5528 30.3994 66.9324 30.8332C67.312 31.2599 67.5018 31.9175 67.5018 32.8059V35.9643H66.0823V35.2298C65.8631 35.7824 65.4353 36.0588 64.7991 36.0588C64.4622 36.0588 64.1708 35.9818 63.9249 35.8279C63.6789 35.674 63.4918 35.4676 63.3635 35.2088C63.2405 34.943 63.179 34.6422 63.179 34.3064C63.179 33.7678 63.3367 33.3515 63.6522 33.0577C63.9676 32.7569 64.4542 32.6065 65.1118 32.6065H65.978C65.9513 32.0049 65.6438 31.7041 65.0557 31.7041C64.8472 31.7041 64.636 31.7496 64.4221 31.8405C64.2082 31.9244 64.0265 32.0434 63.8767 32.1973L63.3635 30.8437C63.6041 30.6338 63.8955 30.4729 64.2376 30.361C64.5852 30.242 64.9327 30.1826 65.2803 30.1826ZM65.2241 34.7996C65.4006 34.7996 65.5556 34.7436 65.6893 34.6317C65.823 34.5198 65.9192 34.3554 65.978 34.1385V33.6453H65.3204C64.8766 33.6453 64.6547 33.8377 64.6547 34.2225C64.6547 34.3973 64.7055 34.5373 64.8071 34.6422C64.9087 34.7471 65.0477 34.7996 65.2241 34.7996Z" fill="#164168"/>
<path d="M68.579 30.277H70.0948V32.3861H71.6587V30.277H73.1825V35.9643H71.6587V33.9706H70.0948V35.9643H68.579V30.277Z" fill="#164168"/>
<path d="M76.5521 36.0588C76.0709 36.0588 75.6405 35.9328 75.2609 35.681C74.8813 35.4292 74.5845 35.0794 74.3707 34.6317C74.1621 34.184 74.0579 33.6768 74.0579 33.1102C74.0579 32.5435 74.1621 32.0399 74.3707 31.5992C74.5845 31.1515 74.8813 30.8052 75.2609 30.5603C75.6405 30.3085 76.0709 30.1826 76.5521 30.1826C77.044 30.1826 77.4691 30.3225 77.8273 30.6023C78.1855 30.8751 78.4395 31.2564 78.5892 31.7461L77.4103 32.5331C77.2124 32.0224 76.9237 31.7671 76.5441 31.7671C76.2714 31.7671 76.0442 31.886 75.8624 32.1238C75.6859 32.3617 75.5977 32.6905 75.5977 33.1102C75.5977 33.5369 75.6859 33.8727 75.8624 34.1175C76.0442 34.3554 76.2714 34.4743 76.5441 34.4743C76.9237 34.4743 77.2124 34.219 77.4103 33.7083L78.5892 34.4953C78.4395 34.985 78.1855 35.3697 77.8273 35.6495C77.4691 35.9224 77.044 36.0588 76.5521 36.0588Z" fill="#164168"/>
<path d="M81.4241 33.9391H80.9108V35.9643H79.387V30.277H80.9108V32.3757H81.4562L82.5228 30.277H84.1349L82.6752 33.0052L84.2311 35.9643H82.4346L81.4241 33.9391Z" fill="#164168"/>
<path d="M84.8967 30.277H86.4125V33.2571L88.2331 30.277H89.6366V35.9643H88.1128V32.9738L86.3082 35.9643H84.8967V30.277Z" fill="#164168"/>
<path d="M93.5724 35.9643L92.7945 34.4743L91.9604 35.9643H90.3083L91.9604 33.1207L90.3564 30.277H92.0727L92.8426 31.7146L93.6446 30.277H95.2567L93.6526 33.0472L95.3128 35.9643H93.5724Z" fill="#164168"/>
<path d="M98.481 30.277H99.9968V33.2571L101.817 30.277H103.221V35.9643H101.697V32.9738L99.8926 35.9643H98.481V30.277Z" fill="#164168"/>
<path d="M108.937 33.9391H108.424V35.9643H106.9V30.277H108.424V32.3757H108.969L110.036 30.277H111.648L110.188 33.0052L111.744 35.9643H109.948L108.937 33.9391Z" fill="#164168"/>
<path d="M114.426 36.0588C113.961 36.0588 113.541 35.9328 113.167 35.681C112.793 35.4292 112.499 35.0794 112.285 34.6317C112.076 34.184 111.972 33.6768 111.972 33.1102C111.972 32.5505 112.076 32.0469 112.285 31.5992C112.499 31.1515 112.79 30.8052 113.159 30.5603C113.533 30.3085 113.956 30.1826 114.426 30.1826C114.897 30.1826 115.319 30.3085 115.693 30.5603C116.067 30.8052 116.359 31.1515 116.567 31.5992C116.776 32.0399 116.88 32.5435 116.88 33.1102C116.88 33.6768 116.776 34.184 116.567 34.6317C116.359 35.0794 116.067 35.4292 115.693 35.681C115.319 35.9328 114.897 36.0588 114.426 36.0588ZM114.426 34.4743C114.693 34.4743 114.913 34.3554 115.084 34.1175C115.255 33.8727 115.34 33.5369 115.34 33.1102C115.34 32.6905 115.255 32.3617 115.084 32.1238C114.913 31.886 114.693 31.7671 114.426 31.7671C114.159 31.7671 113.939 31.886 113.768 32.1238C113.597 32.3617 113.512 32.6905 113.512 33.1102C113.512 33.5369 113.597 33.8727 113.768 34.1175C113.939 34.3554 114.159 34.4743 114.426 34.4743Z" fill="#164168"/>
<path d="M120.49 30.1826C120.886 30.1826 121.244 30.305 121.565 30.5498C121.891 30.7877 122.148 31.1305 122.335 31.5782C122.527 32.0189 122.623 32.5331 122.623 33.1207C122.623 33.7083 122.527 34.226 122.335 34.6737C122.148 35.1144 121.891 35.4572 121.565 35.702C121.244 35.9398 120.886 36.0588 120.49 36.0588C119.982 36.0588 119.578 35.8594 119.279 35.4607V38H117.755V30.277H119.207V30.8437C119.49 30.4029 119.918 30.1826 120.49 30.1826ZM120.169 34.4743C120.437 34.4743 120.656 34.3554 120.827 34.1175C120.998 33.8727 121.084 33.5404 121.084 33.1207C121.084 32.7009 120.998 32.3722 120.827 32.1343C120.656 31.8895 120.437 31.7671 120.169 31.7671C119.902 31.7671 119.683 31.8895 119.512 32.1343C119.341 32.3722 119.255 32.7009 119.255 33.1207C119.255 33.5404 119.341 33.8727 119.512 34.1175C119.683 34.3554 119.902 34.4743 120.169 34.4743Z" fill="#164168"/>
<path d="M127.919 33.1312C127.919 33.1452 127.911 33.3095 127.895 33.6243H124.735C124.799 33.9182 124.922 34.1455 125.104 34.3064C125.291 34.4603 125.523 34.5373 125.801 34.5373C126.01 34.5373 126.189 34.4988 126.339 34.4218C126.494 34.3449 126.649 34.219 126.804 34.0441L127.606 35.1354C127.183 35.751 126.566 36.0588 125.753 36.0588C125.245 36.0588 124.799 35.9328 124.414 35.681C124.029 35.4292 123.729 35.0794 123.516 34.6317C123.307 34.184 123.203 33.6768 123.203 33.1102C123.203 32.5505 123.304 32.0504 123.508 31.6097C123.716 31.1619 124.002 30.8122 124.366 30.5603C124.729 30.3085 125.138 30.1826 125.593 30.1826C126.026 30.1826 126.419 30.3015 126.772 30.5393C127.125 30.7702 127.403 31.1095 127.606 31.5572C127.814 31.9979 127.919 32.5226 127.919 33.1312ZM125.601 31.5992C125.366 31.5992 125.168 31.6866 125.007 31.8615C124.852 32.0364 124.753 32.2742 124.711 32.575H126.491C126.448 32.2742 126.347 32.0364 126.186 31.8615C126.031 31.6866 125.836 31.5992 125.601 31.5992Z" fill="#164168"/>
<path d="M128.884 30.277H130.4V33.2571L132.221 30.277H133.624V35.9643H132.1V32.9738L130.296 35.9643H128.884V30.277ZM131.154 29.7314C130.641 29.7314 130.261 29.5915 130.015 29.3116C129.775 29.0248 129.652 28.5876 129.646 28H130.633C130.638 28.2448 130.681 28.4302 130.761 28.5561C130.841 28.6751 130.97 28.7345 131.146 28.7345C131.322 28.7345 131.453 28.6716 131.539 28.5456C131.63 28.4197 131.675 28.2378 131.675 28H132.678C132.678 28.5876 132.552 29.0248 132.301 29.3116C132.055 29.5915 131.673 29.7314 131.154 29.7314Z" fill="#164168"/>
<path d="M136.991 36.0588C136.509 36.0588 136.079 35.9328 135.699 35.681C135.32 35.4292 135.023 35.0794 134.809 34.6317C134.601 34.184 134.496 33.6768 134.496 33.1102C134.496 32.5435 134.601 32.0399 134.809 31.5992C135.023 31.1515 135.32 30.8052 135.699 30.5603C136.079 30.3085 136.509 30.1826 136.991 30.1826C137.483 30.1826 137.908 30.3225 138.266 30.6023C138.624 30.8751 138.878 31.2564 139.028 31.7461L137.849 32.5331C137.651 32.0224 137.362 31.7671 136.983 31.7671C136.71 31.7671 136.483 31.886 136.301 32.1238C136.125 32.3617 136.036 32.6905 136.036 33.1102C136.036 33.5369 136.125 33.8727 136.301 34.1175C136.483 34.3554 136.71 34.4743 136.983 34.4743C137.362 34.4743 137.651 34.219 137.849 33.7083L139.028 34.4953C138.878 34.985 138.624 35.3697 138.266 35.6495C137.908 35.9224 137.483 36.0588 136.991 36.0588Z" fill="#164168"/>
<path d="M141.863 33.9391H141.349V35.9643H139.826V30.277H141.349V32.3757H141.895L142.961 30.277H144.573L143.114 33.0052L144.67 35.9643H142.873L141.863 33.9391Z" fill="#164168"/>
<path d="M145.335 30.277H146.851V33.2571L148.672 30.277H150.075V35.9643H148.551V32.9738L146.747 35.9643H145.335V30.277Z" fill="#164168"/>
<path d="M151.26 30.277H152.776V33.2571L154.596 30.277H156V35.9643H154.476V32.9738L152.672 35.9643H151.26V30.277ZM153.53 29.7314C153.017 29.7314 152.637 29.5915 152.391 29.3116C152.15 29.0248 152.027 28.5876 152.022 28H153.009C153.014 28.2448 153.057 28.4302 153.137 28.5561C153.217 28.6751 153.345 28.7345 153.522 28.7345C153.698 28.7345 153.829 28.6716 153.915 28.5456C154.006 28.4197 154.051 28.2378 154.051 28H155.054C155.054 28.5876 154.928 29.0248 154.677 29.3116C154.431 29.5915 154.048 29.7314 153.53 29.7314Z" fill="#164168"/>
<path d="M34.7 20.2799C33.2333 20.2799 31.9133 19.9733 30.74 19.3599C29.58 18.7333 28.6667 17.8666 28 16.7599C27.3333 15.6533 27 14.3999 27 12.9999C27 11.5999 27.3333 10.3466 28 9.23992C28.6667 8.13325 29.58 7.27325 30.74 6.65992C31.9133 6.03325 33.2333 5.71992 34.7 5.71992C35.98 5.71992 37.1333 5.94659 38.16 6.39992C39.1867 6.85326 40.04 7.50659 40.72 8.35992L38.2 10.6399C37.2933 9.54659 36.1933 8.99992 34.9 8.99992C34.14 8.99992 33.46 9.16659 32.86 9.49992C32.2733 9.83326 31.8133 10.3066 31.48 10.9199C31.16 11.5199 31 12.2133 31 12.9999C31 13.7866 31.16 14.4866 31.48 15.0999C31.8133 15.6999 32.2733 16.1666 32.86 16.4999C33.46 16.8333 34.14 16.9999 34.9 16.9999C36.1933 16.9999 37.2933 16.4533 38.2 15.3599L40.72 17.6399C40.04 18.4933 39.1867 19.1466 38.16 19.5999C37.1333 20.0533 35.98 20.2799 34.7 20.2799Z" fill="#164168"/>
<path d="M47.2098 8.97992C49.0098 8.97992 50.3832 9.39326 51.3298 10.2199C52.2765 11.0333 52.7498 12.2866 52.7498 13.9799V19.9999H49.2098V18.5999C48.6632 19.6533 47.5965 20.1799 46.0098 20.1799C45.1698 20.1799 44.4432 20.0333 43.8298 19.7399C43.2165 19.4466 42.7498 19.0533 42.4298 18.5599C42.1232 18.0533 41.9698 17.4799 41.9698 16.8399C41.9698 15.8133 42.3632 15.0199 43.1498 14.4599C43.9365 13.8866 45.1498 13.5999 46.7898 13.5999H48.9498C48.8832 12.4533 48.1165 11.8799 46.6498 11.8799C46.1298 11.8799 45.6032 11.9666 45.0698 12.1399C44.5365 12.2999 44.0832 12.5266 43.7098 12.8199L42.4298 10.2399C43.0298 9.83992 43.7565 9.53326 44.6098 9.31992C45.4765 9.09326 46.3432 8.97992 47.2098 8.97992ZM47.0698 17.7799C47.5098 17.7799 47.8965 17.6733 48.2298 17.4599C48.5632 17.2466 48.8032 16.9333 48.9498 16.5199V15.5799H47.3098C46.2032 15.5799 45.6498 15.9466 45.6498 16.6799C45.6498 17.0133 45.7765 17.2799 46.0298 17.4799C46.2832 17.6799 46.6298 17.7799 47.0698 17.7799Z" fill="#164168"/>
<path d="M59.1684 10.4599C59.5551 9.96659 60.0551 9.59992 60.6684 9.35992C61.2951 9.10659 62.0084 8.97992 62.8084 8.97992V12.3999C62.4618 12.3599 62.1751 12.3399 61.9484 12.3399C61.1351 12.3399 60.4951 12.5599 60.0284 12.9999C59.5751 13.4399 59.3484 14.1133 59.3484 15.0199V19.9999H55.5484V9.15992H59.1684V10.4599Z" fill="#164168"/>
<path d="M74.9759 20.1799C74.0693 20.1799 73.1759 20.0799 72.2959 19.8799C71.4159 19.6666 70.7093 19.3933 70.1759 19.0599L71.3159 16.4599C71.8093 16.7666 72.3959 17.0133 73.0759 17.1999C73.7559 17.3733 74.4293 17.4599 75.0959 17.4599C75.7093 17.4599 76.1426 17.3999 76.3959 17.2799C76.6626 17.1466 76.7959 16.9599 76.7959 16.7199C76.7959 16.4799 76.6359 16.3133 76.3159 16.2199C76.0093 16.1133 75.5159 16.0133 74.8359 15.9199C73.9693 15.8133 73.2293 15.6733 72.6159 15.4999C72.0159 15.3266 71.4959 15.0066 71.0559 14.5399C70.6159 14.0733 70.3959 13.4199 70.3959 12.5799C70.3959 11.8866 70.6026 11.2733 71.0159 10.7399C71.4293 10.1933 72.0293 9.76659 72.8159 9.45992C73.6159 9.13992 74.5693 8.97992 75.6759 8.97992C76.4626 8.97992 77.2426 9.05992 78.0159 9.21992C78.7893 9.37992 79.4359 9.60659 79.9559 9.89992L78.8159 12.4799C77.8559 11.9466 76.8159 11.6799 75.6959 11.6799C75.0959 11.6799 74.6559 11.7533 74.3759 11.8999C74.0959 12.0333 73.9559 12.2133 73.9559 12.4399C73.9559 12.6933 74.1093 12.8733 74.4159 12.9799C74.7226 13.0733 75.2293 13.1733 75.9359 13.2799C76.8293 13.4133 77.5693 13.5666 78.1559 13.7399C78.7426 13.9133 79.2493 14.2333 79.6759 14.6999C80.1159 15.1533 80.3359 15.7933 80.3359 16.6199C80.3359 17.2999 80.1293 17.9133 79.7159 18.4599C79.3026 18.9933 78.6893 19.4133 77.8759 19.7199C77.0759 20.0266 76.1093 20.1799 74.9759 20.1799Z" fill="#164168"/>
<path d="M93.4534 14.5999C93.4534 14.6266 93.4334 14.9399 93.3934 15.5399H85.5134C85.6734 16.0999 85.9801 16.5333 86.4334 16.8399C86.9001 17.1333 87.4801 17.2799 88.1734 17.2799C88.6934 17.2799 89.1401 17.2066 89.5134 17.0599C89.9001 16.9133 90.2868 16.6733 90.6734 16.3399L92.6734 18.4199C91.6201 19.5933 90.0801 20.1799 88.0534 20.1799C86.7868 20.1799 85.6734 19.9399 84.7134 19.4599C83.7534 18.9799 83.0068 18.3133 82.4734 17.4599C81.9534 16.6066 81.6934 15.6399 81.6934 14.5599C81.6934 13.4933 81.9468 12.5399 82.4534 11.6999C82.9734 10.8466 83.6868 10.1799 84.5934 9.69992C85.5001 9.21992 86.5201 8.97992 87.6534 8.97992C88.7334 8.97992 89.7134 9.20659 90.5934 9.65992C91.4734 10.0999 92.1668 10.7466 92.6734 11.5999C93.1934 12.4399 93.4534 13.4399 93.4534 14.5999ZM87.6734 11.6799C87.0868 11.6799 86.5934 11.8466 86.1934 12.1799C85.8068 12.5133 85.5601 12.9666 85.4534 13.5399H89.8934C89.7868 12.9666 89.5334 12.5133 89.1334 12.1799C88.7468 11.8466 88.2601 11.6799 87.6734 11.6799Z" fill="#164168"/>
<path d="M99.2255 10.4599C99.6121 9.96659 100.112 9.59992 100.725 9.35992C101.352 9.10659 102.065 8.97992 102.865 8.97992V12.3999C102.519 12.3599 102.232 12.3399 102.005 12.3399C101.192 12.3399 100.552 12.5599 100.085 12.9999C99.6321 13.4399 99.4055 14.1133 99.4055 15.0199V19.9999H95.6055V9.15992H99.2255V10.4599Z" fill="#164168"/>
<path d="M116.586 9.15992L112.106 19.9999H108.186L103.726 9.15992H107.626L110.226 15.7799L112.966 9.15992H116.586Z" fill="#164168"/>
<path d="M117.968 9.15992H121.768V19.9999H117.968V9.15992ZM119.868 7.95992C119.175 7.95992 118.615 7.76659 118.188 7.37992C117.761 6.99325 117.548 6.51325 117.548 5.93992C117.548 5.36659 117.761 4.88659 118.188 4.49992C118.615 4.11325 119.175 3.91992 119.868 3.91992C120.561 3.91992 121.121 4.10659 121.548 4.47992C121.975 4.83992 122.188 5.30659 122.188 5.87992C122.188 6.47992 121.975 6.97992 121.548 7.37992C121.121 7.76659 120.561 7.95992 119.868 7.95992Z" fill="#164168"/>
<path d="M130.177 20.1799C128.978 20.1799 127.904 19.9399 126.957 19.4599C126.011 18.9799 125.271 18.3133 124.737 17.4599C124.217 16.6066 123.957 15.6399 123.957 14.5599C123.957 13.4799 124.217 12.5199 124.737 11.6799C125.271 10.8266 126.011 10.1666 126.957 9.69992C127.904 9.21992 128.978 8.97992 130.177 8.97992C131.404 8.97992 132.464 9.24659 133.357 9.77992C134.251 10.2999 134.884 11.0266 135.257 11.9599L132.317 13.4599C131.824 12.4866 131.104 11.9999 130.157 11.9999C129.477 11.9999 128.911 12.2266 128.457 12.6799C128.017 13.1333 127.797 13.7599 127.797 14.5599C127.797 15.3733 128.017 16.0133 128.457 16.4799C128.911 16.9333 129.477 17.1599 130.157 17.1599C131.104 17.1599 131.824 16.6733 132.317 15.6999L135.257 17.1999C134.884 18.1333 134.251 18.8666 133.357 19.3999C132.464 19.9199 131.404 20.1799 130.177 20.1799Z" fill="#164168"/>
<path d="M148.051 14.5999C148.051 14.6266 148.031 14.9399 147.991 15.5399H140.111C140.271 16.0999 140.578 16.5333 141.031 16.8399C141.498 17.1333 142.078 17.2799 142.771 17.2799C143.291 17.2799 143.738 17.2066 144.111 17.0599C144.498 16.9133 144.884 16.6733 145.271 16.3399L147.271 18.4199C146.218 19.5933 144.678 20.1799 142.651 20.1799C141.384 20.1799 140.271 19.9399 139.311 19.4599C138.351 18.9799 137.604 18.3133 137.071 17.4599C136.551 16.6066 136.291 15.6399 136.291 14.5599C136.291 13.4933 136.544 12.5399 137.051 11.6999C137.571 10.8466 138.284 10.1799 139.191 9.69992C140.098 9.21992 141.118 8.97992 142.251 8.97992C143.331 8.97992 144.311 9.20659 145.191 9.65992C146.071 10.0999 146.764 10.7466 147.271 11.5999C147.791 12.4399 148.051 13.4399 148.051 14.5999ZM142.271 11.6799C141.684 11.6799 141.191 11.8466 140.791 12.1799C140.404 12.5133 140.158 12.9666 140.051 13.5399H144.491C144.384 12.9666 144.131 12.5133 143.731 12.1799C143.344 11.8466 142.858 11.6799 142.271 11.6799Z" fill="#164168"/>
<path d="M18.9575 8.61792H17.2141V8.49609C17.1603 7.8632 16.8781 7.11525 15.8704 7.07802C15.6713 7.06145 15.4717 7.10388 15.2962 7.20008C15.1208 7.29629 14.977 7.44208 14.8827 7.61952C14.8426 7.3103 14.6918 7.02649 14.4585 6.82145C14.2253 6.6164 13.9258 6.50426 13.6163 6.50606C13.3859 6.463 13.148 6.49024 12.9332 6.58431C12.7183 6.67838 12.5362 6.83498 12.4103 7.03403C12.5245 5.12184 12.7026 2.06574 12.7194 1.619C12.7388 1.40022 12.7133 1.17973 12.6446 0.971286C12.5758 0.762843 12.4652 0.570898 12.3196 0.407379C12.1595 0.259558 11.9702 0.147541 11.7641 0.0787099C11.558 0.00987905 11.3397 -0.0142042 11.1237 0.00802273C10.0252 0.0452511 9.65907 1.05718 9.61876 1.58514L9.2089 6.46882C8.9032 5.07445 8.33213 2.43802 8.32877 2.42448C8.30237 2.20624 8.23145 1.99585 8.12046 1.80656C8.00946 1.61727 7.8608 1.45317 7.68382 1.32456C7.49762 1.21391 7.29008 1.14458 7.07515 1.12123C6.86023 1.09789 6.64283 1.12106 6.4375 1.18917C6.05084 1.29823 5.71966 1.55102 5.51079 1.8965C5.30192 2.24198 5.23093 2.65443 5.31215 3.05059C5.57753 4.45173 6.65586 8.59761 6.65586 8.59761H4.92247C4.61927 8.19716 4.22616 7.87486 3.77534 7.65718C3.32453 7.4395 2.82888 7.33264 2.32912 7.34538C1.48608 7.34169 0.674021 7.6653 0.0616098 8.24901C0.032646 8.27795 0.0127553 8.31484 0.00440543 8.35506C-0.0039444 8.39529 -0.00036923 8.4371 0.0146571 8.47531C0.0296835 8.51351 0.0554886 8.54643 0.0889203 8.56998C0.122352 8.59352 0.161936 8.60666 0.202714 8.60776H1.99319C2.04754 8.60776 2.09968 8.6295 2.13811 8.66822C2.17654 8.70693 2.1981 8.75945 2.1981 8.8142V12.537C2.19855 12.564 2.19368 12.5908 2.18375 12.6158C2.17382 12.6408 2.15904 12.6636 2.14028 12.6828C2.12152 12.702 2.09914 12.7173 2.07447 12.7277C2.04979 12.7381 2.02331 12.7435 1.99655 12.7435H0.202714C0.165188 12.7464 0.129193 12.7598 0.0986799 12.782C0.0681672 12.8042 0.0443231 12.8344 0.0297476 12.8694C0.015172 12.9043 0.010427 12.9427 0.0160513 12.9802C0.0216757 13.0177 0.0374304 13.0529 0.0616098 13.0819C0.674663 13.6654 1.48574 13.9911 2.32912 13.9923C2.83235 14.0049 3.33151 13.8985 3.78654 13.6816C4.24157 13.4647 4.63983 13.1434 4.94937 12.7435H5.1845C5.1845 12.8416 5.161 12.9398 5.15764 13.0312C5.10725 14.2157 5.93363 15.6473 7.37811 16.9131C7.20464 17.17 7.11414 17.4747 7.11895 17.7854C7.12376 18.0962 7.22363 18.3979 7.40497 18.6493C7.9391 19.4006 8.81586 19.6646 9.96473 19.871C10.5482 19.9615 11.138 20.0045 11.7284 19.9996C12.2278 20.002 12.727 19.9749 13.2233 19.9184C13.9757 19.8237 15.5109 19.4378 15.9577 18.6594C16.1119 18.4523 16.188 18.1967 16.1727 17.9382C16.1573 17.6798 16.0513 17.4352 15.8737 17.2481C16.1899 16.9597 16.4647 16.6282 16.69 16.2633C17.4861 15.0449 17.4324 13.461 17.3619 12.7435H18.9844C19.5155 12.7435 20.0251 12.5324 20.4025 12.1559C20.78 11.7795 20.9947 11.2682 21 10.7332C21.0028 10.1812 20.7902 9.65025 20.4082 9.25462C20.0262 8.85899 19.5052 8.63034 18.9575 8.61792ZM14.8962 8.4047C14.9082 8.16316 15.0118 7.93547 15.1855 7.7686C15.3593 7.60173 15.59 7.50839 15.8301 7.50783C16.4347 7.50783 16.7169 7.75489 16.7841 8.52315C16.8614 9.42365 16.8704 10.3288 16.8109 11.2307C16.7605 11.7349 16.6027 12.4829 15.8032 12.4592C14.839 12.4287 14.7181 11.7417 14.7181 11.4168C14.7181 10.6012 14.8357 9.47079 14.8962 8.4047ZM12.4472 7.80566C12.4824 7.53991 12.6204 7.29895 12.8313 7.13537C13.0421 6.97178 13.3086 6.89885 13.5726 6.93248C14.2444 6.98663 14.4695 7.27093 14.4695 8.12718C14.4695 8.98343 14.231 10.8178 14.2008 11.0581C14.1706 11.2983 14.0261 12.114 12.9579 12.0158C12.8195 12.0127 12.6832 11.9809 12.5576 11.9225C12.4319 11.864 12.3196 11.78 12.2276 11.6759C12.1356 11.5717 12.0658 11.4496 12.0227 11.3171C11.9796 11.1846 11.964 11.0446 11.9769 10.9058C11.9971 10.4184 12.4472 7.80566 12.4472 7.80566ZM9.49447 7.76505L10.0118 1.61561C10.0362 1.40403 10.0989 1.19871 10.1965 1.00979C10.2782 0.835339 10.4076 0.687953 10.5694 0.584861C10.7312 0.481769 10.9188 0.427249 11.1103 0.427684C11.2686 0.408636 11.4292 0.423506 11.5814 0.471332C11.7337 0.519158 11.8742 0.598862 11.9937 0.705207C12.1996 0.953218 12.2998 1.27316 12.2726 1.5953C12.2457 2.23157 11.8762 8.49608 11.8728 8.557V8.59423H9.64562C9.61203 8.44193 9.55492 8.17456 9.48102 7.82935C9.49054 7.80931 9.49517 7.78725 9.49447 7.76505ZM5.69848 2.98967C5.67701 2.7785 5.6941 2.56516 5.74887 2.36018C5.79208 2.17331 5.88696 2.0026 6.02251 1.86783C6.15807 1.73306 6.32876 1.63974 6.5148 1.59869C6.66471 1.54633 6.82389 1.5265 6.98195 1.5405C7.14 1.5545 7.29333 1.60201 7.43187 1.67991C7.68488 1.87906 7.84917 2.17115 7.88873 2.49216L9.21226 8.58406H7.07577C7.07577 8.58406 5.95042 4.40773 5.69848 2.98967ZM4.60671 12.1546C4.37052 12.4897 4.0708 12.7744 3.72486 12.9922C3.37893 13.21 2.99363 13.3567 2.59115 13.4238H2.55757C2.52177 13.4183 2.48908 13.4002 2.46547 13.3725C2.44185 13.3449 2.42885 13.3096 2.42885 13.2732C2.42885 13.2367 2.44185 13.2014 2.46547 13.1738C2.48908 13.1461 2.52177 13.128 2.55757 13.1225C2.9213 13.061 3.26945 12.9279 3.58212 12.7308C3.89479 12.5337 4.16583 12.2765 4.37982 11.9738C4.59382 11.6712 4.74656 11.329 4.8293 10.9669C4.91203 10.6048 4.92314 10.2298 4.86202 9.86337C4.86141 9.8267 4.87396 9.79102 4.89737 9.76292C4.92077 9.73482 4.95347 9.71617 4.98943 9.71041C5.02539 9.70465 5.06219 9.71215 5.09309 9.73154C5.124 9.75094 5.14692 9.78093 5.15764 9.81599C5.22477 10.2231 5.21061 10.6397 5.11602 11.0412C5.02142 11.4428 4.84827 11.8213 4.60671 12.1546ZM16.3373 16.0433C15.9468 16.7608 15.2895 17.2928 14.5098 17.5223C13.8641 17.6982 13.1836 17.6982 12.5379 17.5223C12.5109 17.5098 12.4815 17.5033 12.4517 17.5031C12.4219 17.5029 12.3925 17.509 12.3652 17.521C12.338 17.5331 12.3135 17.5508 12.2935 17.573C12.2735 17.5952 12.2584 17.6214 12.2491 17.6499C12.2398 17.6784 12.2366 17.7085 12.2397 17.7383C12.2428 17.7682 12.2521 17.797 12.267 17.823C12.2819 17.8489 12.302 17.8715 12.3261 17.889C12.3503 17.9066 12.3778 17.9189 12.4069 17.925C12.7627 18.0286 13.1317 18.0788 13.5021 18.0739C13.8814 18.0739 14.2588 18.0215 14.624 17.9182C14.9471 17.8295 15.2543 17.6901 15.5344 17.5053C15.6645 17.624 15.7432 17.7893 15.7539 17.9657C15.7646 18.1422 15.7063 18.3158 15.5915 18.4496C15.2556 19.0317 13.9119 19.4006 13.1695 19.4954C12.1261 19.6142 11.072 19.6005 10.0319 19.4547C8.95362 19.2754 8.19441 19.0351 7.74762 18.4022C7.61847 18.2276 7.54514 18.0175 7.53734 17.7999C7.52954 17.5822 7.58763 17.3674 7.70395 17.1838C8.26434 17.6105 8.94997 17.8368 9.65235 17.8268C10.15 17.825 10.643 17.7309 11.1069 17.5493C11.1325 17.5383 11.1558 17.5222 11.1752 17.5021C11.1947 17.482 11.21 17.4582 11.2203 17.4321C11.2306 17.406 11.2357 17.3781 11.2352 17.35C11.2348 17.3219 11.2289 17.2942 11.2178 17.2684C11.1949 17.2177 11.1535 17.1778 11.1022 17.157C11.0509 17.1362 10.9937 17.1361 10.9423 17.1567C10.9221 17.1567 9.21564 17.881 7.88873 16.7912C6.41401 15.583 5.53724 14.148 5.57755 13.0481C5.61786 11.9482 6.18555 10.4455 7.60988 10.0021C8.8864 9.59938 10.5392 10.0664 10.9288 10.591C11.5738 11.4608 11.2648 12.2629 10.4955 12.6216C9.4172 13.1564 7.42176 12.8586 7.40161 12.8552C7.37402 12.8508 7.34589 12.8521 7.31878 12.8588C7.29166 12.8654 7.26613 12.8775 7.24365 12.8941C7.22117 12.9108 7.20216 12.9318 7.18776 12.9559C7.17336 12.98 7.16385 13.0067 7.15975 13.0345C7.15548 13.0621 7.15672 13.0903 7.1634 13.1174C7.17008 13.1445 7.18204 13.17 7.19863 13.1924C7.21521 13.2148 7.23608 13.2336 7.25997 13.2477C7.28387 13.2619 7.31033 13.2711 7.3378 13.2748C7.42514 13.2748 9.48438 13.5963 10.6971 13.0041C10.8297 12.938 10.9548 12.8574 11.0699 12.7638L16.9419 12.7367C16.9856 13.4001 17.0562 14.923 16.3239 16.0433H16.3373ZM20.234 10.9667C20.2016 11.2179 20.1199 11.4601 19.9935 11.6792C19.8672 11.8982 19.6989 12.0897 19.4983 12.2426C19.4696 12.2623 19.4357 12.2729 19.401 12.2731C19.3787 12.2718 19.3569 12.2657 19.3372 12.2552C19.3175 12.2447 19.3003 12.23 19.2867 12.2121C19.2747 12.1966 19.2659 12.1789 19.2608 12.1599C19.2556 12.1409 19.2542 12.1211 19.2567 12.1016C19.2592 12.0821 19.2656 12.0632 19.2753 12.0462C19.2851 12.0292 19.2981 12.0143 19.3136 12.0023C19.6539 11.7412 19.8775 11.3548 19.9354 10.9278C19.9933 10.5009 19.8809 10.0682 19.6226 9.7246C19.6074 9.70922 19.5957 9.69076 19.5882 9.67042C19.5806 9.65008 19.5775 9.62835 19.5789 9.60669C19.5804 9.58504 19.5865 9.56396 19.5967 9.54485C19.6069 9.52574 19.6211 9.50905 19.6382 9.49591C19.6554 9.48277 19.6751 9.47347 19.6961 9.46865C19.7171 9.46382 19.7389 9.46357 19.7601 9.46792C19.7812 9.47227 19.8011 9.48112 19.8185 9.49387C19.836 9.50662 19.8505 9.52298 19.8612 9.54185C20.1614 9.94726 20.2905 10.4557 20.2206 10.9565L20.234 10.9667Z" fill="#164168"/>
</svg>
