<svg width="944" height="880" viewBox="0 0 944 880" fill="none" xmlns="http://www.w3.org/2000/svg">
<path d="M488 136.26C581.376 93.917 769.5 160.001 757 401.502" stroke="#D34B3B" stroke-width="2" stroke-dasharray="8 8"/>
<path d="M731.856 482.296L776.119 419.736L754.024 427.033L733.163 376.91L731.856 482.296Z" fill="#D34B3B"/>
<path d="M754.324 426.07L732.227 481.742" stroke="#F5EEE7" stroke-width="4"/>
<path d="M345 741C160 676.5 99.5 524.5 224.991 397.031" stroke="#164168" stroke-width="2" stroke-dasharray="8 8"/>
<path d="M422.294 754.127L366.514 724.152L373.576 744.968L330.734 778.566L422.294 754.127Z" fill="#164168"/>
<path d="M372.729 744.897L421.8 753.883" stroke="#F5EEE7" stroke-width="4"/>
<path d="M100.5 643L104.052 648.741L110.463 646.626L109.494 653.308L115.765 655.808L110.727 660.303L113.923 666.25L107.175 666.455L105.801 673.065L100.5 668.885L95.1987 673.065L93.8247 666.455L87.0766 666.25L90.2728 660.303L85.2355 655.808L91.5063 653.308L90.5368 646.626L96.9481 648.741L100.5 643Z" fill="#D34B3B"/>
<path d="M100.016 650.75L102.194 655.018L106.926 655.77L103.54 659.161L104.286 663.894L100.016 661.721L95.745 663.894L96.4915 659.161L93.1056 655.77L97.8376 655.018L100.016 650.75Z" fill="#164168"/>
<path d="M590.5 370L594.51 376.482L601.749 374.094L600.654 381.638L607.734 384.461L602.047 389.536L605.655 396.25L598.037 396.482L596.485 403.945L590.5 399.225L584.515 403.945L582.963 396.482L575.345 396.25L578.953 389.536L573.266 384.461L580.346 381.638L579.251 374.094L586.49 376.482L590.5 370Z" fill="#D34B3B"/>
<path d="M589.953 378.75L592.412 383.569L597.755 384.418L593.932 388.246L594.775 393.59L589.953 391.137L585.131 393.59L585.974 388.246L582.151 384.418L587.494 383.569L589.953 378.75Z" fill="#164168"/>
<path d="M662.5 14L667.656 22.3341L676.963 19.264L675.555 28.9625L684.658 32.5929L677.346 39.1177L681.986 47.75L672.19 48.0481L670.195 57.6431L662.5 51.575L654.805 57.6431L652.81 48.0481L643.014 47.75L647.654 39.1177L640.342 32.5929L649.445 28.9625L648.037 19.264L657.344 22.3341L662.5 14Z" fill="#D34B3B"/>
<path d="M661.797 25.25L664.959 31.4452L671.828 32.5377L666.913 37.459L667.996 44.3295L661.797 41.1758L655.598 44.3295L656.681 37.459L651.766 32.5377L658.635 31.4452L661.797 25.25Z" fill="#164168"/>
<path d="M324.5 587L328.247 594.343L336.388 595.637L330.563 601.47L331.847 609.613L324.5 605.875L317.153 609.613L318.437 601.47L312.612 595.637L320.753 594.343L324.5 587Z" fill="#164168"/>
<path d="M370.5 839L374.247 846.343L382.388 847.637L376.563 853.47L377.847 861.613L370.5 857.875L363.153 861.613L364.437 853.47L358.612 847.637L366.753 846.343L370.5 839Z" fill="#D34B3B"/>
<mask id="mask0_3663_50236" style="mask-type:alpha" maskUnits="userSpaceOnUse" x="0" y="0" width="944" height="880">
<rect width="944" height="880" fill="#D9D9D9"/>
</mask>
<g mask="url(#mask0_3663_50236)">
</g>
</svg>
