<svg width="1250" height="938" viewBox="0 0 1250 938" fill="none" xmlns="http://www.w3.org/2000/svg">
<path d="M556 131.503C684.5 85.9988 934.443 131.502 934.443 409.56" stroke="#D34B3B" stroke-width="2" stroke-dasharray="8 8"/>
<path d="M915.801 470.802L953.137 413.914L932.714 418.807L909.176 367.434L915.801 470.802Z" fill="#D34B3B"/>
<path d="M932.927 417.892L916.112 470.295" stroke="#F5EEE7" stroke-width="4"/>
<path d="M625 783.067C324.5 846.501 138.5 701.5 175.383 491.384" stroke="#164168" stroke-width="2" stroke-dasharray="8 8"/>
<path d="M696.845 752.65L618 767.708L639.651 777.848L617.909 829.484L696.845 752.65Z" fill="#164168"/>
<path d="M638.718 778.347L696.163 752.797" stroke="#F5EEE7" stroke-width="4"/>
<path d="M1082.5 95L1087.66 103.334L1096.96 100.264L1095.56 109.963L1104.66 113.593L1097.35 120.118L1101.99 128.75L1092.19 129.048L1090.2 138.643L1082.5 132.575L1074.8 138.643L1072.81 129.048L1063.01 128.75L1067.65 120.118L1060.34 113.593L1069.44 109.963L1068.04 100.264L1077.34 103.334L1082.5 95Z" fill="#D34B3B"/>
<path d="M1081.8 106.25L1084.96 112.445L1091.83 113.538L1086.91 118.459L1088 125.329L1081.8 122.176L1075.6 125.329L1076.68 118.459L1071.77 113.538L1078.64 112.445L1081.8 106.25Z" fill="#164168"/>
<path d="M95.5 734L97.9061 737.889L102.249 736.457L101.592 740.983L105.84 742.677L102.428 745.722L104.593 749.75L100.022 749.889L99.0912 754.367L95.5 751.535L91.9088 754.367L90.978 749.889L86.4067 749.75L88.5719 745.722L85.1595 742.677L89.4075 740.983L88.7507 736.457L93.0939 737.889L95.5 734Z" fill="#D34B3B"/>
<path d="M95.1719 739.25L96.6473 742.141L99.8529 742.651L97.5592 744.948L98.0649 748.154L95.1719 746.682L92.2789 748.154L92.7846 744.948L90.4909 742.651L93.6964 742.141L95.1719 739.25Z" fill="#164168"/>
<path d="M609.5 471L613.052 476.741L619.463 474.626L618.494 481.308L624.765 483.808L619.727 488.303L622.923 494.25L616.175 494.455L614.801 501.065L609.5 496.885L604.199 501.065L602.825 494.455L596.077 494.25L599.273 488.303L594.235 483.808L600.506 481.308L599.537 474.626L605.948 476.741L609.5 471Z" fill="#D34B3B"/>
<path d="M609.016 478.75L611.194 483.018L615.926 483.77L612.54 487.161L613.286 491.894L609.016 489.721L604.745 491.894L605.492 487.161L602.106 483.77L606.838 483.018L609.016 478.75Z" fill="#164168"/>
<path d="M302 671L306.796 680.398L317.217 682.056L309.761 689.522L311.405 699.944L302 695.16L292.595 699.944L294.239 689.522L286.783 682.056L297.204 680.398L302 671Z" fill="#164168"/>
<path d="M622.5 905L627.446 914.692L638.192 916.401L630.503 924.1L632.198 934.849L622.5 929.915L612.802 934.849L614.497 924.1L606.808 916.401L617.554 914.692L622.5 905Z" fill="#D34B3B"/>
<mask id="mask0_3663_50234" style="mask-type:alpha" maskUnits="userSpaceOnUse" x="0" y="0" width="1250" height="938">
<rect width="1250" height="938" fill="#D9D9D9"/>
</mask>
<g mask="url(#mask0_3663_50234)">
</g>
</svg>
