<svg width="327" height="220" viewBox="0 0 327 220" fill="none" xmlns="http://www.w3.org/2000/svg">
<mask id="mask0_3663_50238" style="mask-type:alpha" maskUnits="userSpaceOnUse" x="0" y="0" width="327" height="220">
<rect width="327" height="220" fill="#D9D9D9"/>
</mask>
<g mask="url(#mask0_3663_50238)">
<path d="M249.966 4.90893C295.573 24.2322 333.661 112.711 243.751 187.309" stroke="#D34B3B" stroke-width="2" stroke-dasharray="8 8"/>
<path d="M206.811 204.817L243.529 200.071L233.705 194.608L244.689 170.79L206.811 204.817Z" fill="#D34B3B"/>
<path d="M234.144 194.399L207.129 204.767" stroke="#F5EEE7" stroke-width="4"/>
<path d="M68.7433 9.99293C26.0336 24.9855 -7.2163 105.804 80.7467 182.641" stroke="#164168" stroke-width="2" stroke-dasharray="8 8"/>
<path d="M116.448 201.804L81.3847 194.706L90.5413 190.248L79.3037 166.979L116.448 201.804Z" fill="#164168"/>
<path d="M90.116 190.02L116.144 201.734" stroke="#F5EEE7" stroke-width="4"/>
<path d="M249 72L251.521 76.0745L256.071 74.5735L255.383 79.315L259.833 81.0899L256.258 84.2798L258.526 88.5L253.737 88.6457L252.762 93.3366L249 90.37L245.238 93.3366L244.263 88.6457L239.474 88.5L241.742 84.2798L238.167 81.0899L242.617 79.315L241.929 74.5735L246.479 76.0745L249 72Z" fill="#D34B3B"/>
<path d="M248.656 77.5L250.202 80.5288L253.56 81.0629L251.157 83.4689L251.687 86.8277L248.656 85.2859L245.625 86.8277L246.155 83.4689L243.752 81.0629L247.111 80.5288L248.656 77.5Z" fill="#164168"/>
<path d="M76 50L78.5207 54.0745L83.0707 52.5735L82.3826 57.315L86.8329 59.0899L83.258 62.2798L85.5263 66.5L80.7373 66.6457L79.7622 71.3366L76 68.37L72.2378 71.3366L71.2627 66.6457L66.4737 66.5L68.742 62.2798L65.1671 59.0899L69.6174 57.315L68.9293 52.5735L73.4793 54.0745L76 50Z" fill="#D34B3B"/>
<path d="M75.6562 55.5L77.2019 58.5288L80.5601 59.0629L78.1572 61.4689L78.687 64.8277L75.6562 63.2859L72.6255 64.8277L73.1553 61.4689L70.7524 59.0629L74.1106 58.5288L75.6562 55.5Z" fill="#164168"/>
<path d="M130 132L132.998 137.874L139.511 138.91L134.85 143.576L135.878 150.09L130 147.1L124.122 150.09L125.15 143.576L120.489 138.91L127.002 137.874L130 132Z" fill="#164168"/>
<path d="M39 191L41.9977 196.874L48.5106 197.91L43.8504 202.576L44.8779 209.09L39 206.1L33.1221 209.09L34.1496 202.576L29.4894 197.91L36.0023 196.874L39 191Z" fill="#D34B3B"/>
</g>
</svg>
