<svg width="460" height="261" viewBox="0 0 460 261" fill="none" xmlns="http://www.w3.org/2000/svg">
<path d="M226.753 176.716C224.871 174.893 223.468 172.821 222.545 170.501C221.539 168.101 220.896 165.654 220.614 163.162C220.329 160.509 220.287 157.933 220.488 155.433C220.607 152.855 220.81 150.435 221.095 148.176C221.534 145.431 221.695 142.972 221.579 140.8C221.543 138.545 220.788 136.705 219.315 135.279C216.288 132.347 213.428 132.271 210.735 135.052C208.042 137.832 208.414 140.887 211.85 144.215C211.85 144.215 200.358 148.098 194.998 153.314C189.082 159.072 185 171.938 185 171.938C181.236 168.293 178.391 164.191 176.465 159.631C174.536 154.91 173.692 150.051 173.933 145.055C174.172 139.897 175.496 134.682 177.907 129.409C180.318 124.136 183.979 118.965 188.889 113.895C194.038 108.579 199.166 104.512 204.274 101.693C209.382 98.8742 214.308 97.2262 219.052 96.7487C223.793 96.1102 228.27 96.563 232.483 98.1072C236.614 99.5721 240.356 101.929 243.711 105.178C246.411 107.793 248.549 110.497 250.124 113.291C251.697 115.924 252.828 118.604 253.516 121.331C254.284 123.976 254.73 126.627 254.853 129.282C254.974 131.777 254.892 134.154 254.607 136.413C254.266 140.204 254.12 143.628 254.17 146.688C254.217 149.586 255.222 151.986 257.186 153.888L259.027 155.671C259.027 155.671 246.476 159.006 241.326 164.287C236.074 169.672 232.889 182.659 232.889 182.659L226.753 176.716Z" fill="#D34B3B"/>
<path d="M267.57 190.607C262.205 195.686 254.962 193.609 249.46 187.797C243.958 181.986 242.28 174.64 247.644 169.561C253.009 164.482 260.252 166.559 265.754 172.371C271.256 178.182 272.935 185.528 267.57 190.607Z" fill="#D34B3B"/>
<path d="M15.6921 131.469C15.5348 130.918 15.4956 130.372 15.5745 129.831C15.6465 129.266 15.792 128.732 16.0112 128.229C16.2474 127.695 16.5213 127.203 16.8328 126.751C17.1375 126.275 17.4405 125.839 17.7417 125.442C18.1251 124.97 18.4246 124.521 18.6403 124.097C18.88 123.666 18.9382 123.234 18.8152 122.803C18.5622 121.916 18.0284 121.589 17.2139 121.821C16.3995 122.054 16.1358 122.673 16.423 123.68C16.423 123.68 13.8204 123.159 12.234 123.561C10.4832 124.005 8.3021 125.997 8.3021 125.997C7.98756 124.894 7.89716 123.806 8.0309 122.731C8.18175 121.625 8.55329 120.612 9.14553 119.692C9.75488 118.74 10.5764 117.897 11.61 117.161C12.6436 116.426 13.903 115.846 15.3883 115.422C16.9454 114.978 18.3621 114.768 19.6385 114.793C20.9149 114.818 22.0287 115.044 22.9799 115.472C23.9482 115.87 24.7471 116.446 25.3765 117.199C25.9991 117.928 26.4506 118.785 26.7309 119.767C26.9566 120.558 27.0659 121.304 27.0589 122.006C27.069 122.677 26.9901 123.309 26.8223 123.901C26.6784 124.486 26.4729 125.037 26.2059 125.554C25.956 126.04 25.6804 126.481 25.3791 126.878C24.8999 127.559 24.4976 128.192 24.1724 128.778C23.8643 129.332 23.7923 129.897 23.9564 130.472L24.1102 131.011C24.1102 131.011 21.367 130.271 19.8134 130.708C18.2291 131.154 16.2049 133.267 16.2049 133.267L15.6921 131.469Z" fill="#164168"/>
<path d="M21.9078 138.567C20.3356 138.942 19.1902 137.756 18.7832 136.053C18.3762 134.35 18.8616 132.774 20.4339 132.399C22.0061 132.023 23.1515 133.209 23.5585 134.912C23.9655 136.615 23.4801 138.191 21.9078 138.567Z" fill="#164168"/>
<path d="M298.865 48.476C298.566 47.4268 298.492 46.3876 298.642 45.3582C298.779 44.2833 299.056 43.267 299.473 42.3094C299.922 41.2933 300.444 40.3553 301.037 39.4956C301.616 38.5902 302.193 37.7598 302.766 37.0043C303.496 36.1055 304.066 35.2523 304.477 34.4446C304.933 33.6239 305.044 32.803 304.809 31.982C304.328 30.2942 303.312 29.6715 301.762 30.1138C300.212 30.556 299.71 31.7351 300.257 33.6509C300.257 33.6509 295.303 32.6591 292.284 33.4247C288.952 34.2696 284.8 38.0605 284.8 38.0605C284.202 35.9623 284.03 33.8903 284.284 31.8446C284.571 29.7403 285.279 27.8121 286.406 26.06C287.565 24.2493 289.129 22.644 291.096 21.2442C293.063 19.8444 295.46 18.7412 298.287 17.9347C301.251 17.0892 303.947 16.6899 306.377 16.7367C308.806 16.7835 310.926 17.2146 312.736 18.03C314.579 18.7867 316.099 19.882 317.297 21.316C318.482 22.7044 319.342 24.3337 319.875 26.2038C320.305 27.7091 320.513 29.1296 320.499 30.4652C320.519 31.7423 320.368 32.9443 320.049 34.0713C319.775 35.1853 319.384 36.2341 318.876 37.2176C318.4 38.1426 317.876 38.9828 317.302 39.7383C316.39 41.0344 315.625 42.2394 315.006 43.3532C314.419 44.4084 314.282 45.4834 314.595 46.5781L314.887 47.6044C314.887 47.6044 309.666 46.1944 306.709 47.027C303.694 47.8761 299.842 51.897 299.842 51.897L298.865 48.476Z" fill="#D34B3B"/>
<path d="M310.696 61.9833C307.703 62.6984 305.523 60.4413 304.749 57.1997C303.974 53.958 304.898 50.9593 307.89 50.2442C310.883 49.5291 313.063 51.7861 313.837 55.0278C314.612 58.2694 313.688 61.2682 310.696 61.9833Z" fill="#D34B3B"/>
<path d="M404.552 232.69C404.115 231.16 404.006 229.644 404.225 228.143C404.425 226.576 404.829 225.094 405.437 223.697C406.093 222.215 406.853 220.848 407.718 219.594C408.563 218.274 409.404 217.063 410.24 215.961C411.304 214.651 412.136 213.406 412.734 212.228C413.399 211.032 413.561 209.835 413.219 208.637C412.517 206.176 411.036 205.268 408.775 205.913C406.515 206.558 405.783 208.277 406.58 211.071C406.58 211.071 399.357 209.625 394.954 210.741C390.095 211.973 384.041 217.501 384.041 217.501C383.168 214.442 382.918 211.42 383.289 208.437C383.707 205.368 384.739 202.557 386.382 200.002C388.073 197.361 390.353 195.02 393.222 192.979C396.091 190.938 399.586 189.329 403.708 188.153C408.03 186.92 411.962 186.338 415.505 186.406C419.047 186.474 422.138 187.103 424.778 188.292C427.466 189.395 429.683 190.993 431.43 193.084C433.158 195.108 434.411 197.484 435.189 200.211C435.815 202.406 436.119 204.478 436.099 206.426C436.127 208.288 435.908 210.041 435.442 211.684C435.043 213.309 434.473 214.838 433.732 216.272C433.038 217.621 432.273 218.846 431.437 219.948C430.107 221.838 428.991 223.595 428.088 225.219C427.233 226.758 427.033 228.326 427.488 229.922L427.915 231.419C427.915 231.419 420.302 229.363 415.99 230.577C411.593 231.815 405.975 237.678 405.975 237.678L404.552 232.69Z" fill="#164168"/>
<path d="M421.803 252.388C417.439 253.43 414.26 250.139 413.131 245.412C412.001 240.685 413.348 236.312 417.712 235.269C422.076 234.226 425.255 237.518 426.384 242.245C427.514 246.972 426.167 251.345 421.803 252.388Z" fill="#164168"/>
<path d="M106.408 250.893C106.303 250.527 106.277 250.165 106.33 249.806C106.377 249.432 106.474 249.078 106.619 248.744C106.776 248.39 106.958 248.063 107.164 247.763C107.366 247.448 107.567 247.158 107.767 246.895C108.021 246.582 108.22 246.285 108.363 246.003C108.522 245.717 108.561 245.431 108.479 245.145C108.311 244.557 107.957 244.34 107.417 244.494C106.877 244.648 106.702 245.059 106.892 245.727C106.892 245.727 105.166 245.381 104.114 245.648C102.953 245.942 101.506 247.263 101.506 247.263C101.298 246.532 101.238 245.81 101.326 245.097C101.426 244.364 101.673 243.692 102.066 243.081C102.47 242.45 103.015 241.891 103.7 241.403C104.386 240.915 105.221 240.531 106.206 240.25C107.239 239.955 108.179 239.816 109.025 239.832C109.872 239.848 110.61 239.999 111.241 240.283C111.884 240.547 112.413 240.928 112.831 241.428C113.244 241.912 113.543 242.48 113.729 243.131C113.879 243.656 113.951 244.151 113.947 244.616C113.953 245.061 113.901 245.48 113.79 245.873C113.694 246.261 113.558 246.627 113.381 246.97C113.215 247.292 113.032 247.585 112.833 247.848C112.515 248.3 112.248 248.72 112.032 249.108C111.828 249.475 111.78 249.85 111.889 250.232L111.991 250.589C111.991 250.589 110.172 250.098 109.141 250.388C108.09 250.684 106.748 252.085 106.748 252.085L106.408 250.893Z" fill="#D34B3B"/>
<path d="M110.53 255.6C109.488 255.849 108.728 255.063 108.458 253.933C108.188 252.804 108.51 251.759 109.553 251.509C110.596 251.26 111.355 252.047 111.625 253.176C111.895 254.306 111.573 255.351 110.53 255.6Z" fill="#D34B3B"/>
</svg>
