<svg width="24" height="24" viewBox="0 0 24 24" fill="none" xmlns="http://www.w3.org/2000/svg">
<path fill-rule="evenodd" clip-rule="evenodd" d="M11.6582 5.41421C12.2105 5.41421 12.6582 5.86193 12.6582 6.41421V14.5075L15.1514 12.0143C15.542 11.6238 16.1751 11.6238 16.5657 12.0143C16.9562 12.4048 16.9562 13.038 16.5657 13.4285L12.3751 17.6191C11.9846 18.0096 11.3514 18.0096 10.9609 17.6191C10.9562 17.6144 10.9516 17.6097 10.947 17.6049L6.77028 13.4282C6.37976 13.0377 6.37976 12.4045 6.77028 12.014C7.16081 11.6235 7.79397 11.6235 8.1845 12.014L10.6582 14.4877V6.41421C10.6582 5.86193 11.1059 5.41421 11.6582 5.41421Z" fill="currentColor"/>
</svg>
