<svg width="32" height="32" viewBox="0 0 32 32" fill="none" xmlns="http://www.w3.org/2000/svg">
<path d="M7.95938 8.83325L7.07005 4.83325H4.49805" stroke="currentColor" stroke-width="2" stroke-linecap="round" stroke-linejoin="round"/>
<path d="M10.3083 19.7799L7.95898 8.83325H24.8363C25.6856 8.83325 26.3176 9.61592 26.1403 10.4466L24.1376 19.7799C24.0056 20.3946 23.463 20.8333 22.8336 20.8333H11.611C10.983 20.8333 10.4403 20.3946 10.3083 19.7799Z" stroke="currentColor" stroke-width="2" stroke-linecap="round" stroke-linejoin="round"/>
<path d="M23.2864 25.6667C23.0104 25.6667 22.7864 25.8907 22.7891 26.1667C22.7891 26.4427 23.0131 26.6667 23.2891 26.6667C23.5651 26.6667 23.7891 26.4427 23.7891 26.1667C23.7877 25.8907 23.5638 25.6667 23.2864 25.6667Z" fill="currentColor" stroke="currentColor" stroke-width="2" stroke-linecap="round" stroke-linejoin="round"/>
<path d="M11.8079 25.6667C11.5319 25.6667 11.3079 25.8907 11.3106 26.1667C11.3092 26.4427 11.5332 26.6667 11.8092 26.6667C12.0852 26.6667 12.3092 26.4427 12.3092 26.1667C12.3092 25.8907 12.0852 25.6667 11.8079 25.6667" stroke="currentColor" stroke-width="2" stroke-linecap="round" stroke-linejoin="round"/>
</svg>
