<svg width="16" height="16" viewBox="0 0 16 16" fill="none" xmlns="http://www.w3.org/2000/svg">
<path fill-rule="evenodd" clip-rule="evenodd" d="M4.99733 2C4.99733 2 6.81124 2.49996 8 2.5C9.18902 2.50004 11.0033 2 11.0033 2C12.658 2 14 3.34133 14 4.99733C14 4.99733 13.5 6.81124 13.5 8C13.5 9.18902 14 11.0033 14 11.0033C14 12.658 12.6587 14 11.0027 14C11.0027 14 9.18876 13.5 8 13.5C6.81124 13.5 4.99733 14 4.99733 14C3.342 14 2 12.6587 2 11.0027C2 11.0027 2.5 9.18876 2.5 8C2.5 6.81124 2 4.99733 2 4.99733C2 3.342 3.34133 2 4.99733 2Z" stroke="#D34B3B" stroke-linecap="round" stroke-linejoin="round"/>
<path d="M11.2994 4.47559C11.1754 4.47625 11.0747 4.57692 11.0747 4.70092C11.0747 4.82492 11.176 4.92559 11.3 4.92559C11.424 4.92559 11.5247 4.82492 11.5247 4.70092C11.5254 4.57625 11.424 4.47559 11.2994 4.47559Z" stroke="#D34B3B" stroke-linecap="round" stroke-linejoin="round"/>
<path d="M9.69716 6.30255C10.6344 7.23981 10.6344 8.75941 9.69716 9.69667C8.7599 10.6339 7.2403 10.6339 6.30304 9.69667C5.36578 8.75941 5.36578 7.23981 6.30304 6.30255C7.2403 5.36529 8.7599 5.36529 9.69716 6.30255" stroke="#D34B3B" stroke-linecap="round" stroke-linejoin="round"/>
</svg>
