<svg width="16" height="16" viewBox="0 0 16 16" fill="none" xmlns="http://www.w3.org/2000/svg">
<path d="M7.99988 7.99976C7.21988 7.21976 6.43593 6.5425 6.04527 5.6565C5.9626 5.46917 6.01127 5.24983 6.15593 5.10517L6.70193 4.55983C7.14927 4.1125 7.14927 3.47983 6.7586 3.08917L5.97593 2.3065C5.45527 1.78583 4.61127 1.78583 4.0906 2.3065L3.65593 2.74117C3.16193 3.23517 2.95593 3.94783 3.08927 4.6545C3.4186 6.3965 3.93388 8.39183 5.56654 10.0245C7.19921 11.6572 9.60327 12.5812 11.3453 12.9105C12.0519 13.0438 12.7646 12.8378 13.2586 12.3438L13.6926 11.9098C14.2133 11.3892 14.2133 10.5452 13.6926 10.0245L12.9106 9.2425C12.5199 8.85183 11.8866 8.85183 11.4966 9.2425L10.8946 9.84517C10.7499 9.98983 10.5306 10.0385 10.3433 9.95583C9.45727 9.5645 8.77988 8.77976 7.99988 7.99976Z" stroke="#D34B3B" stroke-linecap="round" stroke-linejoin="round"/>
</svg>
