<svg width="16" height="16" viewBox="0 0 16 16" fill="none" xmlns="http://www.w3.org/2000/svg">
<path d="M2 4.52101C2 4.91501 2.19533 5.28367 2.52133 5.50434L6.50867 8.20634C7.412 8.81834 8.59733 8.81834 9.50067 8.20634L13.478 5.51034C13.8047 5.29034 14 4.92167 14 4.52767V4.52101C14 3.86501 13.468 3.33301 12.812 3.33301C12.812 3.33301 9.89712 3.99902 8 3.99902C6.10288 3.99902 3.188 3.33301 3.188 3.33301C2.532 3.33301 2 3.86501 2 4.52101Z" stroke="#D34B3B" stroke-linecap="round" stroke-linejoin="round"/>
<path d="M2 4.66602V11.3327C2 12.0693 2.59667 12.666 3.33333 12.666C3.33333 12.666 6.15898 11.998 8 11.998C9.84102 11.998 12.6667 12.666 12.6667 12.666C13.4033 12.666 14 12.0693 14 11.3327V4.66602" stroke="#D34B3B" stroke-linecap="round" stroke-linejoin="round"/>
<path d="M2.39062 12.2759L6.48396 8.18262" stroke="#D34B3B" stroke-linecap="round" stroke-linejoin="round"/>
<path d="M9.52075 8.18652L13.6074 12.2732" stroke="#D34B3B" stroke-linecap="round" stroke-linejoin="round"/>
</svg>
