<svg width="9" height="9" viewBox="0 0 9 9" fill="none" xmlns="http://www.w3.org/2000/svg">
<path fill-rule="evenodd" clip-rule="evenodd" d="M7.82971 1.66119C8.1226 1.3683 8.1226 0.893423 7.82971 0.600529C7.53682 0.307636 7.06194 0.307636 6.76905 0.600529L4.02418 3.3454L1.4668 0.788025C1.1739 0.495131 0.69903 0.495131 0.406137 0.788025C0.113243 1.08092 0.113243 1.55579 0.406137 1.84868L2.96352 4.40606L0.21967 7.14991C-0.0732231 7.4428 -0.0732234 7.91768 0.21967 8.21057C0.512563 8.50346 0.987437 8.50346 1.28033 8.21057L4.02418 5.46672L6.95552 8.39806C7.24841 8.69096 7.72328 8.69096 8.01618 8.39806C8.30907 8.10517 8.30907 7.6303 8.01618 7.3374L5.08484 4.40606L7.82971 1.66119Z" fill="#D34B3B"/>
</svg>
