<svg width="24" height="24" viewBox="0 0 24 24" fill="none" xmlns="http://www.w3.org/2000/svg">
<path fill-rule="evenodd" clip-rule="evenodd" d="M19.5739 5.71668C19.9622 5.32396 19.9622 4.68725 19.5739 4.29454C19.1856 3.90182 18.556 3.90182 18.1676 4.29454L12.0001 10.5318L5.83256 4.29454C5.44423 3.90182 4.81464 3.90182 4.42632 4.29454C4.03799 4.68725 4.03799 5.32396 4.42632 5.71668L10.5939 11.954L4.29124 18.3279C3.90292 18.7206 3.90292 19.3573 4.29124 19.75C4.67956 20.1427 5.30916 20.1427 5.69748 19.75L12.0001 13.3761L18.3027 19.75C18.691 20.1427 19.3206 20.1427 19.709 19.75C20.0973 19.3573 20.0973 18.7206 19.709 18.3279L13.4063 11.954L19.5739 5.71668Z" fill="white"/>
</svg>
