<svg width="3" height="12" viewBox="0 0 3 12" fill="none" xmlns="http://www.w3.org/2000/svg">
<path d="M2.125 11.625H1.125L0.302013 5.23252H2.73825L2.125 11.625ZM3 1.97287C3 2.45578 2.85235 2.83927 2.55705 3.12334C2.26174 3.4074 1.91275 3.54943 1.51007 3.54943C1.09396 3.54943 0.738255 3.4074 0.442953 3.12334C0.147651 2.83927 0 2.45578 0 1.97287C0 1.47575 0.147651 1.08516 0.442953 0.801099C0.738255 0.517033 1.09396 0.375 1.51007 0.375C1.91275 0.375 2.26174 0.517033 2.55705 0.801099C2.85235 1.08516 3 1.47575 3 1.97287Z" fill="#D34B3B"/>
</svg>
