<svg width="36" height="36" viewBox="0 0 36 36" fill="none" xmlns="http://www.w3.org/2000/svg">
<path d="M0.5 9.7028C0.5 8.18297 1.48084 6.83684 2.92757 6.37115L15.7518 2.24311C16.4297 2.02489 17.1581 2.01867 17.8396 2.22528L31.6308 6.40595C33.1063 6.85326 34.1154 8.21353 34.1154 9.75543V31.9995C34.1154 33.9325 32.5484 35.4995 30.6154 35.4995H4C2.067 35.4995 0.5 33.9325 0.5 31.9995V9.7028Z" fill="#164168" stroke="#164168"/>
<path d="M1.88477 8.31827C1.88477 6.79845 2.86561 5.45232 4.31233 4.98663L17.1366 0.858587C17.8145 0.640372 18.5428 0.63415 19.2244 0.840754L33.0155 5.02143C34.4911 5.46874 35.5002 6.82901 35.5002 8.37091V30.615C35.5002 32.548 33.9331 34.115 32.0002 34.115H5.38477C3.45177 34.115 1.88477 32.548 1.88477 30.615V8.31827Z" fill="#F5EEE7" stroke="#164168"/>
<path d="M28.5 18.9996C28.5 21.6045 27.5284 23.7179 25.9279 25.1836C24.3231 26.6533 22.0543 27.4996 19.4205 27.4996C16.7807 27.4996 14.0284 26.6701 11.948 25.193C9.8728 23.7196 8.5 21.6316 8.5 19.0963C8.5 16.5518 9.88252 14.2852 11.9684 12.6377C14.0556 10.9891 16.8026 9.99963 19.4205 9.99963C24.6305 9.99963 28.5 13.8071 28.5 18.9996ZM16.0205 23.1776C16.0205 23.5315 16.1482 23.8598 16.3923 24.0999C16.6356 24.3391 16.9642 24.4609 17.3132 24.4609C17.6634 24.4609 17.9906 24.3381 18.2306 24.0937C18.4697 23.8502 18.5865 23.5227 18.5865 23.1776V22.8459H20.2905C20.5499 22.8459 20.8033 22.7568 20.9923 22.565C21.1801 22.3743 21.2641 22.1229 21.2641 21.872C21.2641 21.6224 21.178 21.3739 20.9948 21.1852C20.8093 20.9942 20.557 20.8981 20.2905 20.8981H20.2383C21.0548 20.7977 21.7581 20.4703 22.2858 19.9543C22.9283 19.326 23.2748 18.4525 23.2748 17.4716C23.2748 16.4931 22.9348 15.6203 22.3003 14.9913C21.6655 14.3619 20.7718 14.0122 19.7298 14.0122H17.3132C16.9602 14.0122 16.6225 14.1255 16.3738 14.381C16.1266 14.6349 16.0205 14.9742 16.0205 15.3246V18.9639H15.6602C15.3935 18.9639 15.1396 19.0602 14.9535 19.2547C14.7698 19.4465 14.6866 19.6974 14.6866 19.9474C14.6866 20.1974 14.7698 20.4483 14.9535 20.6401C15.0964 20.7895 15.2793 20.881 15.4773 20.9154C15.2837 20.9509 15.1056 21.041 14.9656 21.1852C14.7823 21.3739 14.6962 21.6224 14.6962 21.872C14.6962 22.1229 14.7802 22.3743 14.9681 22.565C15.1571 22.7568 15.4105 22.8459 15.6699 22.8459H16.0205V23.1776ZM19.4222 18.606C19.4217 18.606 19.4211 18.606 19.4205 18.606L18.5962 18.6V16.3855H19.4302C19.9247 16.3855 20.2298 16.5167 20.4081 16.6834C20.582 16.8461 20.6991 17.1023 20.6991 17.4909C20.6991 17.8834 20.5801 18.142 20.4039 18.3062C20.2233 18.4746 19.9159 18.6057 19.4222 18.606Z" fill="#F5EEE7" stroke="#D34B3B"/>
</svg>
