<svg width="36" height="36" viewBox="0 0 36 36" fill="none" xmlns="http://www.w3.org/2000/svg">
<path d="M0.5 9.70267C0.5 8.18285 1.48084 6.83672 2.92757 6.37103L15.7518 2.24299C16.4297 2.02477 17.1581 2.01855 17.8396 2.22515L31.6308 6.40583C33.1063 6.85314 34.1154 8.21341 34.1154 9.75531V31.9994C34.1154 33.9324 32.5484 35.4994 30.6154 35.4994H4C2.067 35.4994 0.5 33.9324 0.5 31.9994V9.70267Z" fill="#164168" stroke="#164168"/>
<path d="M1.88477 8.31815C1.88477 6.79833 2.86561 5.45219 4.31233 4.9865L17.1366 0.858465C17.8145 0.64025 18.5428 0.634028 19.2244 0.840632L33.0155 5.0213C34.4911 5.46862 35.5002 6.82888 35.5002 8.37078V30.6149C35.5002 32.5479 33.9331 34.1149 32.0002 34.1149H5.38477C3.45177 34.1149 1.88477 32.5479 1.88477 30.6149V8.31815Z" fill="#F5EEE7" stroke="#164168"/>
<g clip-path="url(#clip0_1223_13205)">
<path d="M18.5 18.8293C18.5 19.6574 17.9733 20.4778 16.9736 21.1159C15.9797 21.7503 14.5762 22.1591 13 22.1591C11.4238 22.1591 10.0203 21.7503 9.02638 21.1159C8.02669 20.4778 7.5 19.6574 7.5 18.8293C7.5 18.0012 8.02669 17.1808 9.02638 16.5427C10.0203 15.9083 11.4238 15.4995 13 15.4995C14.5762 15.4995 15.9797 15.9083 16.9736 16.5427C17.9733 17.1808 18.5 18.0012 18.5 18.8293Z" stroke="#D34B3B"/>
<circle cx="16.7022" cy="18.8286" r="1.79787" fill="#D34B3B" stroke="#D34B3B"/>
<path d="M30.5 18.8293C30.5 19.6574 29.9733 20.4778 28.9736 21.1159C27.9797 21.7503 26.5762 22.1591 25 22.1591C23.4238 22.1591 22.0203 21.7503 21.0264 21.1159C20.0267 20.4778 19.5 19.6574 19.5 18.8293C19.5 18.0012 20.0267 17.1808 21.0264 16.5427C22.0203 15.9083 23.4238 15.4995 25 15.4995C26.5762 15.4995 27.9797 15.9083 28.9736 16.5427C29.9733 17.1808 30.5 18.0012 30.5 18.8293Z" stroke="#D34B3B"/>
<circle cx="28.7022" cy="18.8286" r="1.79787" fill="#D34B3B" stroke="#D34B3B"/>
</g>
<defs>
<clipPath id="clip0_1223_13205">
<rect width="24" height="24" fill="white" transform="translate(7 6.99951)"/>
</clipPath>
</defs>
</svg>
