<svg width="36" height="36" viewBox="0 0 36 36" fill="none" xmlns="http://www.w3.org/2000/svg">
<path d="M0.5 9.70255C0.5 8.18273 1.48084 6.83659 2.92757 6.3709L15.7518 2.24286C16.4297 2.02465 17.1581 2.01843 17.8396 2.22503L31.6308 6.4057C33.1063 6.85302 34.1154 8.21328 34.1154 9.75518V31.9993C34.1154 33.9323 32.5484 35.4993 30.6154 35.4993H4C2.067 35.4993 0.5 33.9323 0.5 31.9993V9.70255Z" fill="#164168" stroke="#164168"/>
<path d="M1.88477 8.31803C1.88477 6.7982 2.86561 5.45207 4.31233 4.98638L17.1366 0.858343C17.8145 0.640128 18.5428 0.633906 19.2244 0.84051L33.0155 5.02118C34.4911 5.4685 35.5002 6.82876 35.5002 8.37066V30.6148C35.5002 32.5478 33.9331 34.1148 32.0002 34.1148H5.38477C3.45177 34.1148 1.88477 32.5478 1.88477 30.6148V8.31803Z" fill="#F5EEE7" stroke="#164168"/>
<path d="M16.6491 17.9139L16.6487 17.9135C16.5259 17.7907 16.4925 17.6788 16.4928 17.5957C16.4932 17.5118 16.5283 17.4001 16.6487 17.2796L17.3209 16.6074C17.8477 16.7799 18.4332 16.6688 18.8597 16.2513L18.8598 16.2514L18.8672 16.2438C19.2961 15.8058 19.412 15.1936 19.208 14.6556C19.3271 14.5068 19.4919 14.3029 19.6815 14.0743C20.0731 13.602 20.56 13.0369 20.9654 12.6315C21.3757 12.2211 21.9482 11.7287 22.4267 11.3328C22.6642 11.1362 22.8753 10.966 23.0271 10.845C23.1029 10.7845 23.1638 10.7364 23.2055 10.7035L23.2533 10.666L23.2655 10.6565L23.2685 10.6542L23.2692 10.6537L23.2693 10.6536L23.2693 10.6536L23.2693 10.6535L23.2932 10.635L23.3146 10.6137C23.8223 10.1094 24.2928 9.91089 24.7097 9.90955C25.1258 9.90822 25.5912 10.103 26.0899 10.5981C26.09 10.5983 26.0902 10.5985 26.0904 10.5986L27.1815 11.6898L27.1827 11.691C27.6766 12.1816 27.8707 12.6425 27.8694 13.057C27.8681 13.458 27.6836 13.9115 27.2184 14.4019L27.217 14.4026C27.1678 14.4281 27.0972 14.4652 27.0101 14.5123C26.836 14.6063 26.5949 14.7408 26.3257 14.9033C25.7962 15.2228 25.1233 15.6709 24.6466 16.1464C24.1821 16.6098 23.7001 17.3179 23.3469 17.8815C23.1955 18.1232 23.0633 18.3456 22.961 18.5221C22.465 18.3917 21.9333 18.5219 21.5352 18.9117L21.5351 18.9117L21.5314 18.9154C21.1051 19.3417 20.9973 19.9271 21.1655 20.4456L20.4981 21.124C20.3749 21.2466 20.2601 21.2845 20.1752 21.2862C20.0933 21.2879 19.985 21.2574 19.8655 21.1378L16.6491 17.9139ZM16.2722 20.4277L17.3508 21.5064L14.0959 24.7614L13.9613 24.896L13.9503 25.0859L13.9051 25.8616C13.9011 25.9296 13.8317 26.0706 13.6943 26.1469L13.6943 26.1469L13.6903 26.1492L11.133 27.6008C11.0919 27.623 11.0597 27.6367 11.0356 27.6447C11.0332 27.6455 11.031 27.6462 11.0288 27.6469L10.1281 26.7462C10.1291 26.7429 10.1301 26.7394 10.1314 26.7356C10.1399 26.7095 10.1546 26.6747 10.1784 26.6305L11.6222 24.0888L11.6223 24.0888L11.6273 24.0796C11.6989 23.9471 11.8332 23.8787 11.9166 23.8739L11.9166 23.874L11.9219 23.8736L12.6979 23.8209L12.8847 23.8082L13.0172 23.6759L16.2722 20.4277Z" stroke="#D34B3B"/>
</svg>
