<svg width="36" height="36" viewBox="0 0 36 36" fill="none" xmlns="http://www.w3.org/2000/svg">
<path d="M0.5 9.70316C0.5 8.18334 1.48084 6.8372 2.92757 6.37151L15.7518 2.24347C16.4297 2.02526 17.1581 2.01904 17.8396 2.22564L31.6308 6.40631C33.1063 6.85363 34.1154 8.21389 34.1154 9.75579V31.9999C34.1154 33.9329 32.5484 35.4999 30.6154 35.4999H4C2.067 35.4999 0.5 33.9329 0.5 31.9999V9.70316Z" fill="#164168" stroke="#164168"/>
<path d="M1.88477 8.31864C1.88477 6.79881 2.86561 5.45268 4.31233 4.98699L17.1366 0.858953C17.8145 0.640738 18.5428 0.634517 19.2244 0.84112L33.0155 5.02179C34.4911 5.46911 35.5002 6.82937 35.5002 8.37127V30.6154C35.5002 32.5484 33.9331 34.1154 32.0002 34.1154H5.38477C3.45177 34.1154 1.88477 32.5484 1.88477 30.6154V8.31864Z" fill="#F5EEE7" stroke="#164168"/>
<path d="M27.7363 12.5352V14.5352H25.7363H27.7363" stroke="#D34B3B" stroke-linecap="round" stroke-linejoin="round"/>
<path d="M14.5869 17.729C14.5869 16.918 15.6889 16 16.4999 16C17.4999 16 17.5249 16.918 17.5249 17.729C17.5249 19.565 14.5879 19.565 14.5879 21.739C14.5879 21.739 15.4392 21.9926 15.9999 22C16.604 22.008 17.5249 21.739 17.5249 21.739" stroke="#D34B3B" stroke-linecap="round" stroke-linejoin="round"/>
<path d="M22.8939 19.0307L20.3819 19.0037C20.2399 19.0017 20.1249 18.8867 20.1249 18.7437C19.9999 17.5007 20.1249 17.231 20.1249 16.2617" stroke="#D34B3B" stroke-linecap="round" stroke-linejoin="round"/>
<path d="M22.8896 16.3203C22.8896 16.3203 22.9987 17.9528 22.9996 19.0002C23.0006 20.0712 22.8896 21.7403 22.8896 21.7403" stroke="#D34B3B" stroke-linecap="round" stroke-linejoin="round"/>
<path d="M27.3 14.539C25.697 11.637 22.582 9.66797 19 9.66797C13.845 9.66797 9 13.847 9 19.001C9 24.155 13.845 27.001 19 27.001C24.155 27.001 28.333 24.155 28.333 19.001" stroke="#D34B3B" stroke-linecap="round" stroke-linejoin="round"/>
</svg>
