<svg width="36" height="36" viewBox="0 0 36 36" fill="none" xmlns="http://www.w3.org/2000/svg">
<path d="M0.5 9.70316C0.5 8.18334 1.48084 6.8372 2.92757 6.37151L15.7518 2.24347C16.4297 2.02526 17.1581 2.01904 17.8396 2.22564L31.6308 6.40631C33.1063 6.85363 34.1154 8.21389 34.1154 9.75579V31.9999C34.1154 33.9329 32.5484 35.4999 30.6154 35.4999H4C2.067 35.4999 0.5 33.9329 0.5 31.9999V9.70316Z" fill="#164168" stroke="#164168"/>
<path d="M1.88477 8.31864C1.88477 6.79881 2.86561 5.45268 4.31233 4.98699L17.1366 0.858953C17.8145 0.640738 18.5428 0.634517 19.2244 0.84112L33.0155 5.02179C34.4911 5.46911 35.5002 6.82937 35.5002 8.37127V30.6154C35.5002 32.5484 33.9331 34.1154 32.0002 34.1154H5.38477C3.45177 34.1154 1.88477 32.5484 1.88477 30.6154V8.31864Z" fill="#F5EEE7" stroke="#164168"/>
<path d="M10.58 19.0042L10.6924 17.6019C10.7758 16.5626 11.6435 15.7617 12.686 15.7617H23.7881C24.8657 15.7617 25.7509 16.6182 25.6537 17.6914C25.569 18.627 25.3865 19.7154 25 20.5017C22.7055 25.1692 14.6975 22.8687 11.2948 20.6034C10.7705 20.2543 10.5296 19.6321 10.58 19.0042Z" fill="#F5EEE7" stroke="#D34B3B"/>
<path d="M29.3104 15.7607L18.5836 20.4085C18.3585 20.5061 18.1057 20.5176 17.8727 20.4406L12 18.5L8.17219 15.8424C7.60204 15.4466 7.60213 14.6092 8.18161 14.2272C9.22376 13.54 10.7645 12.5729 12 12C14.0149 11.0657 17.2332 10.2455 18.0439 10.0461C18.1704 10.015 18.2985 10.0102 18.4269 10.0318C19.2418 10.1689 22.4547 10.737 24.5 11.5C26.1041 12.0984 28.0904 13.2272 29.4421 14.0474C30.1203 14.4588 30.0382 15.4453 29.3104 15.7607Z" fill="#F5EEE7"/>
<path d="M18.234 15.0286C18.234 15.0286 14.4345 17.1443 12 18.5M12 18.5C10.8191 17.6801 9.23768 16.5822 8.17219 15.8424C7.60204 15.4466 7.60213 14.6092 8.18161 14.2272C9.22376 13.54 10.7645 12.5729 12 12C14.0149 11.0657 17.2332 10.2455 18.0439 10.0461C18.1704 10.015 18.2985 10.0102 18.4269 10.0318C19.2418 10.1689 22.4547 10.737 24.5 11.5C26.1041 12.0984 28.0904 13.2272 29.4421 14.0474C30.1203 14.4588 30.0382 15.4453 29.3104 15.7607L18.5836 20.4085C18.3585 20.5061 18.1057 20.5176 17.8727 20.4406C16.8673 20.1084 13.9815 19.1548 12 18.5Z" stroke="#D34B3B"/>
<ellipse cx="18.0396" cy="14.7998" rx="1.44" ry="0.96" fill="#D34B3B"/>
<path d="M12.0284 25.5482C11.9098 24.9315 12.3824 24.3594 13.0104 24.3594H13.6291C14.2008 24.3594 14.6561 24.8378 14.6279 25.4088L14.5468 27.0488C14.5205 27.5812 14.0811 27.9994 13.548 27.9994H13.3258C12.8463 27.9994 12.4343 27.6591 12.3438 27.1882L12.0284 25.5482Z" fill="#D34B3B"/>
<path d="M12 18.5L13.24 25.3599" stroke="#D34B3B"/>
</svg>
