<svg width="24" height="24" viewBox="0 0 24 24" fill="none" xmlns="http://www.w3.org/2000/svg">
<path fill-rule="evenodd" clip-rule="evenodd" d="M2.12164 7.26003C2.12164 7.26003 2.12164 7.26003 2.12164 7.26003L2.13801 7.2627L2.1885 7.27085C2.2332 7.27804 2.29962 7.28864 2.38575 7.30216C2.55803 7.32921 2.80908 7.36795 3.1228 7.41448C3.75041 7.50758 4.62784 7.63173 5.62633 7.75584C7.63212 8.00517 10.0939 8.25011 12.0001 8.25011C14.2794 8.25011 17.3466 7.90025 19.4731 7.61329C21.1626 7.38528 22.6545 8.81163 22.44 10.5278C22.2815 11.7958 21.2198 12.7575 19.9423 12.7903L3.74634 13.2056C3.19205 13.2198 2.75011 13.6732 2.75011 14.2277C2.75011 14.7993 3.20871 15.2371 3.74513 15.2178C5.09922 15.1689 6.35245 15.0725 7.56595 14.9791C7.71866 14.9674 7.87074 14.9557 8.02231 14.9441C9.37202 14.8413 10.6831 14.7501 12.0001 14.7501C13.4079 14.7501 14.6927 14.8545 16.0651 14.9661C16.2141 14.9782 16.3641 14.9904 16.5154 15.0025C18.065 15.127 19.7799 15.2501 22.0001 15.2501C22.4143 15.2501 22.7501 15.5859 22.7501 16.0001C22.7501 16.4143 22.4143 16.7501 22.0001 16.7501C19.7203 16.7501 17.9589 16.6233 16.3953 16.4977C16.2444 16.4856 16.0955 16.4735 15.9484 16.4616C14.5679 16.3495 13.3437 16.2501 12.0001 16.2501C10.7462 16.2501 9.48631 16.3369 8.1363 16.4398C7.98576 16.4513 7.83412 16.4629 7.68131 16.4747C6.47015 16.5679 5.18581 16.6668 3.79918 16.7168C2.37909 16.768 1.25011 15.6139 1.25011 14.2277C1.25011 12.8598 2.34042 11.7411 3.70789 11.7061L19.9039 11.2908C20.4397 11.2771 20.8851 10.8736 20.9516 10.3417C21.041 9.62661 20.4123 9.00013 19.6737 9.09982C17.5431 9.38734 14.3889 9.75011 12.0001 9.75011C9.99625 9.75011 7.45798 9.49506 5.4413 9.24439C4.42856 9.1185 3.53913 8.99265 2.9027 8.89825C2.5844 8.85103 2.32913 8.81165 2.15309 8.78401C2.06507 8.77019 1.99683 8.7593 1.95041 8.75184L1.89739 8.74327L1.87873 8.74023C1.87864 8.74021 1.87858 8.7402 2.00011 8.00011L1.87873 8.74023C1.46999 8.67311 1.1929 8.28733 1.26002 7.87859C1.32714 7.46985 1.7129 7.19291 2.12164 7.26003Z" fill="#164168"/>
</svg>
