<svg width="245" height="56" viewBox="0 0 245 56" fill="none" xmlns="http://www.w3.org/2000/svg">
<path d="M0 16.7576C0 10.2256 5.22452 4.89338 11.7552 4.7601L232.755 0.249895C239.477 0.112714 245 5.52415 245 12.2474V43.7526C245 50.4758 239.477 55.8873 232.755 55.7501L11.7552 51.2399C5.22453 51.1066 0 45.7744 0 39.2424V16.7576Z" fill="#164168"/>
<path d="M228.245 5.25L17.2446 0.760637C10.7991 0.623497 5.5 5.81101 5.5 12.258V43.742C5.5 50.189 10.7991 55.3765 17.2446 55.2394L228.245 50.75C234.499 50.6169 239.5 45.5085 239.5 39.2526V16.7474C239.5 10.4915 234.499 5.38307 228.245 5.25Z" fill="white" stroke="#164168"/>
</svg>
