<svg width="32" height="32" viewBox="0 0 32 32" fill="none" xmlns="http://www.w3.org/2000/svg">
<circle cx="16" cy="16" r="16" fill="#F5EEE7"/>
<path d="M16.8333 23H15.5L14.4027 14.4767H17.651L16.8333 23ZM18 10.1305C18 10.7744 17.8031 11.2857 17.4094 11.6644C17.0157 12.0432 16.5503 12.2326 16.0134 12.2326C15.4586 12.2326 14.9843 12.0432 14.5906 11.6644C14.1969 11.2857 14 10.7744 14 10.1305C14 9.46767 14.1969 8.94689 14.5906 8.56813C14.9843 8.18938 15.4586 8 16.0134 8C16.5503 8 17.0157 8.18938 17.4094 8.56813C17.8031 8.94689 18 9.46767 18 10.1305Z" fill="#D34B3B"/>
</svg>
