<svg width="24" height="24" viewBox="0 0 24 24" fill="none" xmlns="http://www.w3.org/2000/svg">
<circle cx="12" cy="12" r="12" fill="#EAC9A9"/>
<path d="M12.625 17.25H11.625L10.802 10.8575H13.2383L12.625 17.25ZM13.5 7.59787C13.5 8.08078 13.3523 8.46427 13.057 8.74834C12.7617 9.0324 12.4128 9.17443 12.0101 9.17443C11.594 9.17443 11.2383 9.0324 10.943 8.74834C10.6477 8.46427 10.5 8.08078 10.5 7.59787C10.5 7.10075 10.6477 6.71016 10.943 6.4261C11.2383 6.14203 11.594 6 12.0101 6C12.4128 6 12.7617 6.14203 13.057 6.4261C13.3523 6.71016 13.5 7.10075 13.5 7.59787Z" fill="#D34B3B"/>
</svg>
