<svg width="32" height="32" viewBox="0 0 32 32" fill="none" xmlns="http://www.w3.org/2000/svg">
<path fill-rule="evenodd" clip-rule="evenodd" d="M9.99467 4H22.0067C25.316 4 28 6.68267 28 9.99467V22.0067C28 25.316 25.3173 28 22.0053 28H9.99467C6.684 28 4 25.3173 4 22.0053V9.99467C4 6.684 6.68267 4 9.99467 4V4Z" stroke="currentColor" stroke-width="1.5" stroke-linecap="round" stroke-linejoin="round"/>
<path d="M22.5978 8.9502C22.3498 8.95153 22.1484 9.15286 22.1484 9.40086C22.1484 9.64886 22.3511 9.85019 22.5991 9.85019C22.8471 9.85019 23.0484 9.64886 23.0484 9.40086C23.0498 9.15153 22.8471 8.9502 22.5978 8.9502Z" stroke="currentColor" stroke-width="2" stroke-linecap="round" stroke-linejoin="round"/>
<path d="M19.3933 12.6061C21.2679 14.4806 21.2679 17.5198 19.3933 19.3943C17.5188 21.2688 14.4796 21.2688 12.6051 19.3943C10.7306 17.5198 10.7306 14.4806 12.6051 12.6061C14.4796 10.7316 17.5188 10.7316 19.3933 12.6061" stroke="currentColor" stroke-width="1.5" stroke-linecap="round" stroke-linejoin="round"/>
</svg>
