<svg width="21" height="20" viewBox="0 0 21 20" fill="none" xmlns="http://www.w3.org/2000/svg">
<path d="M9.54646 10.9533C8.57146 9.97831 7.83646 8.88664 7.34813 7.77914C7.2448 7.54497 7.30563 7.27081 7.48646 7.08997L8.16896 6.40831C8.72813 5.84914 8.72813 5.05831 8.2398 4.56997L7.26146 3.59164C6.61063 2.94081 5.55563 2.94081 4.9048 3.59164L4.36146 4.13497C3.74396 4.75247 3.48646 5.64331 3.65313 6.52664C4.0648 8.70414 5.3298 11.0883 7.37063 13.1291C9.41146 15.17 11.7956 16.435 13.9731 16.8466C14.8565 17.0133 15.7473 16.7558 16.3648 16.1383L16.9073 15.5958C17.5581 14.945 17.5581 13.89 16.9073 13.2391L15.9298 12.2616C15.4415 11.7733 14.6498 11.7733 14.1623 12.2616L13.4098 13.015C13.229 13.1958 12.9548 13.2566 12.7206 13.1533C11.6131 12.6641 10.5215 11.9283 9.54646 10.9533Z" fill="currentColor"/>
</svg>
