<svg width="24" height="24" viewBox="0 0 24 24" fill="none" xmlns="http://www.w3.org/2000/svg">
<path fill-rule="evenodd" clip-rule="evenodd" d="M7.36853 7.36853C9.52657 5.21049 13.0254 5.21049 15.1835 7.36853C17.3165 9.50159 17.3412 12.9446 15.2575 15.108C15.2301 15.1288 15.2037 15.1517 15.1787 15.1767C15.1535 15.2018 15.1306 15.2283 15.1098 15.2558C12.9465 17.3412 9.50217 17.3171 7.36853 15.1835C5.21049 13.0254 5.21049 9.52657 7.36853 7.36853ZM15.6869 16.7456C12.9277 18.9763 8.87288 18.8091 6.30787 16.2441C3.56404 13.5003 3.56404 9.05169 6.30787 6.30787C9.05169 3.56404 13.5003 3.56404 16.2441 6.30787C18.8085 8.87221 18.9762 12.9256 16.7474 15.6847L19.5293 18.4667C19.8222 18.7596 19.8222 19.2345 19.5293 19.5274C19.2364 19.8203 18.7615 19.8203 18.4687 19.5274L15.6869 16.7456Z" fill="currentColor"/>
</svg>
