<svg width="91" height="27" viewBox="0 0 91 27" fill="none" xmlns="http://www.w3.org/2000/svg">
<g clip-path="url(#clip0_3468_32696)">
<path d="M5.00966 5.88951C5.70397 5.8883 6.3958 5.97226 7.06966 6.13951C7.76143 6.33423 8.43156 6.59894 9.06966 6.92951V9.73951C8.4037 9.31946 7.68825 8.98357 6.93966 8.73951C6.29852 8.50062 5.62336 8.36558 4.93966 8.33951C4.52646 8.31896 4.11627 8.41977 3.75966 8.62951C3.62411 8.71586 3.51324 8.83586 3.43788 8.97782C3.36252 9.11978 3.32524 9.27884 3.32966 9.43951C3.3417 9.55988 3.38021 9.6761 3.44245 9.77984C3.50469 9.88357 3.58911 9.97225 3.68966 10.0395C4.30994 10.4565 4.96193 10.8243 5.63966 11.1395C6.81411 11.6682 7.89486 12.3842 8.83966 13.2595C9.44278 13.8918 9.7732 14.7358 9.75966 15.6095C9.78245 16.179 9.67337 16.746 9.44093 17.2664C9.2085 17.7868 8.85898 18.2464 8.41966 18.6095C7.382 19.3955 6.09956 19.7887 4.79966 19.7195C3.90313 19.724 3.00955 19.6165 2.13966 19.3995C1.44597 19.2285 0.774725 18.9768 0.139662 18.6495V15.7295C1.43426 16.5387 2.90696 17.0193 4.42966 17.1295C4.93286 17.1538 5.43343 17.0433 5.87966 16.8095C6.04137 16.7358 6.17886 16.6178 6.27621 16.4691C6.37356 16.3204 6.42676 16.1472 6.42966 15.9695C6.43411 15.7616 6.36306 15.5591 6.22966 15.3995C6.06092 15.194 5.86199 15.0153 5.63966 14.8695C5.36966 14.6895 4.53966 14.2595 3.13966 13.5695C2.24278 13.1825 1.43582 12.6139 0.769664 11.8995C0.256296 11.3065 -0.0181622 10.5437 -0.000336915 9.7595C-0.0173042 9.21262 0.0995373 8.66987 0.340037 8.17841C0.580537 7.68696 0.937419 7.26167 1.37966 6.93951C2.43986 6.19689 3.71673 5.82755 5.00966 5.88951Z" fill="#C3CDDC"/>
<path d="M17.1793 5.88944C18.0441 5.84876 18.9075 5.99572 19.7102 6.32024C20.5128 6.64476 21.2358 7.13914 21.8293 7.76944C23.0305 9.22689 23.6376 11.0839 23.5293 12.9694V13.4994H14.1193C14.2094 14.5564 14.7037 15.5378 15.4993 16.2394C16.3669 16.9352 17.4584 17.2907 18.5693 17.2394C19.3953 17.243 20.2151 17.0973 20.9893 16.8094C21.8403 16.476 22.6439 16.0322 23.3793 15.4894V18.0894C21.7175 19.2312 19.7346 19.8128 17.7193 19.7494C16.7796 19.7874 15.8416 19.639 14.9595 19.313C14.0773 18.9869 13.2684 18.4895 12.5793 17.8494C11.9142 17.2027 11.3925 16.4234 11.0479 15.562C10.7034 14.7006 10.5437 13.7765 10.5793 12.8494C10.5378 11.9347 10.6802 11.0209 10.9979 10.1621C11.3157 9.30327 11.8024 8.5169 12.4293 7.84944C13.04 7.20881 13.7783 6.70338 14.5965 6.36577C15.4146 6.02817 16.2945 5.8659 17.1793 5.88944ZM20.2393 11.3794C20.2066 10.546 19.8969 9.74718 19.3593 9.10944C19.1051 8.83625 18.7946 8.62145 18.4493 8.47989C18.104 8.33832 17.7321 8.27334 17.3593 8.28944C16.9701 8.27023 16.5811 8.32937 16.2152 8.46335C15.8493 8.59734 15.514 8.80345 15.2293 9.06944C14.6446 9.70435 14.2921 10.5186 14.2293 11.3794H20.2393Z" fill="#C3CDDC"/>
<path d="M34.5004 6.57063C34.2933 6.43415 34.076 6.31379 33.8504 6.21062C33.4228 6.00459 32.955 5.89533 32.4804 5.89062C31.6883 5.89819 30.9294 6.20962 30.3604 6.76062C29.5752 7.56542 28.9447 8.50776 28.5004 9.54063H28.4504V6.13062H24.9004V19.4306H28.4104V13.3606C28.418 12.6675 28.5785 11.9846 28.8804 11.3606C29.1697 10.7334 29.6052 10.1848 30.1504 9.76062C30.6015 9.38583 31.1642 9.17129 31.7504 9.15062C32.343 9.20454 32.9115 9.41128 33.4004 9.75063L34.5004 6.57063Z" fill="#C3CDDC"/>
<path d="M56.0496 5.89057C56.693 5.85742 57.3357 5.96659 57.9321 6.21031C58.5284 6.45403 59.0636 6.82629 59.4996 7.30057C60.3813 8.3217 60.8361 9.64308 60.7696 10.9906V19.4506H57.2496V11.3506C57.2787 10.6325 57.0598 9.92629 56.6296 9.35057C56.4263 9.1013 56.1678 8.90283 55.8744 8.7709C55.5811 8.63898 55.261 8.57723 54.9396 8.59057C54.3958 8.59143 53.8653 8.75895 53.4196 9.07057C52.8161 9.51489 52.2863 10.0515 51.8496 10.6606V19.5006H48.3496V6.13057H51.8496V8.00057C52.3918 7.32019 53.0738 6.7643 53.8496 6.37057C54.5369 6.04537 55.2893 5.88121 56.0496 5.89057Z" fill="#C3CDDC"/>
<path d="M72.7099 2.61914H72.9899V6.12914H79.6099V8.77914H72.9899V14.9191C72.9791 15.1846 73.0213 15.4495 73.114 15.6985C73.2067 15.9474 73.3481 16.1754 73.5299 16.3691C73.7264 16.5565 73.9589 16.7018 74.2134 16.7964C74.4678 16.8909 74.7388 16.9327 75.0099 16.9191C76.0086 16.8654 76.978 16.5629 77.8299 16.0391V18.8491C76.7152 19.3754 75.5023 19.6616 74.2699 19.6891C73.6325 19.7274 72.9939 19.6383 72.3912 19.4271C71.7886 19.2159 71.2341 18.8869 70.7599 18.4591C70.3295 18.0225 69.995 17.5007 69.7781 16.9273C69.5611 16.3538 69.4663 15.7414 69.4999 15.1291V8.76914H67.4199V8.19914L72.7099 2.61914Z" fill="#C3CDDC"/>
<path d="M80.5005 6.13086L83.6505 13.2809L86.8405 6.13086H90.6005L81.4105 26.1309H77.6605L81.8805 16.9709L76.7305 6.13086H80.5005Z" fill="#C3CDDC"/>
<path d="M40.6199 5.88944C41.4848 5.84876 42.3481 5.99572 43.1508 6.32024C43.9535 6.64476 44.6764 7.13914 45.2699 7.76944C46.4782 9.22347 47.0894 11.082 46.9799 12.9694V13.4994H37.5599C37.6419 14.5478 38.117 15.5265 38.8899 16.2394C39.7575 16.9352 40.849 17.2907 41.9599 17.2394C42.7859 17.243 43.6057 17.0973 44.3799 16.8094C45.2332 16.4741 46.0398 16.0304 46.7799 15.4894V18.0894C45.1138 19.2301 43.1281 19.8114 41.1099 19.7494C40.1702 19.7874 39.2322 19.639 38.3501 19.313C37.4679 18.9869 36.659 18.4895 35.9699 17.8494C35.3048 17.2027 34.7831 16.4234 34.4385 15.562C34.094 14.7006 33.9343 13.7765 33.9699 12.8494C33.9284 11.9347 34.0708 11.0209 34.3885 10.1621C34.7063 9.30327 35.193 8.5169 35.8199 7.84944C36.4363 7.20243 37.1827 6.69327 38.01 6.35545C38.8374 6.01763 39.7268 5.85881 40.6199 5.88944ZM43.6899 11.3794C43.6449 10.5528 43.3326 9.76319 42.7999 9.12944C42.5457 8.85624 42.2352 8.64145 41.8899 8.49988C41.5447 8.35831 41.1728 8.29334 40.7999 8.30944C40.4108 8.29023 40.0217 8.34937 39.6558 8.48336C39.2899 8.61734 38.9547 8.82344 38.6699 9.08944C38.0852 9.72435 37.7327 10.5386 37.6699 11.3994L43.6899 11.3794Z" fill="#C3CDDC"/>
<path d="M64.3802 0C64.9106 0 65.4193 0.210712 65.7944 0.585785C66.1695 0.960858 66.3802 1.46957 66.3802 2C66.3754 2.52121 66.1673 3.01995 65.8002 3.39C65.6224 3.58314 65.4057 3.73646 65.1644 3.83987C64.9231 3.94329 64.6627 3.99445 64.4002 3.99C64.1398 3.99059 63.882 3.93764 63.6428 3.83443C63.4037 3.73121 63.1884 3.57994 63.0102 3.39C62.6395 3.02156 62.4277 2.52263 62.4202 2C62.4157 1.73752 62.4669 1.47706 62.5703 1.23576C62.6737 0.994468 62.827 0.777798 63.0202 0.599998C63.1956 0.414614 63.4063 0.266062 63.6398 0.16304C63.8733 0.0600182 64.125 0.00459532 64.3802 0ZM66.1302 6.13V19.43H62.6302V6.13H66.1302Z" fill="#C3CDDC"/>
</g>
<defs>
<clipPath id="clip0_3468_32696">
<rect width="90.61" height="26.16" fill="white"/>
</clipPath>
</defs>
</svg>
