<svg width="16" height="16" viewBox="0 0 16 16" fill="none" xmlns="http://www.w3.org/2000/svg">
<path d="M8.00012 7.99976C7.22012 7.21976 6.43618 6.5425 6.04551 5.6565C5.96285 5.46917 6.01151 5.24983 6.15618 5.10517L6.70218 4.55983C7.14951 4.1125 7.14951 3.47983 6.75885 3.08917L5.97618 2.3065C5.45551 1.78583 4.61151 1.78583 4.09085 2.3065L3.65618 2.74117C3.16218 3.23517 2.95618 3.94783 3.08951 4.6545C3.41885 6.3965 3.93412 8.39183 5.56679 10.0245C7.19946 11.6572 9.60351 12.5812 11.3455 12.9105C12.0522 13.0438 12.7648 12.8378 13.2588 12.3438L13.6928 11.9098C14.2135 11.3892 14.2135 10.5452 13.6928 10.0245L12.9108 9.2425C12.5202 8.85183 11.8868 8.85183 11.4968 9.2425L10.8948 9.84517C10.7502 9.98983 10.5308 10.0385 10.3435 9.95583C9.45751 9.5645 8.78012 8.77976 8.00012 7.99976Z" stroke="#D34B3B" stroke-linecap="round" stroke-linejoin="round"/>
</svg>
