<svg width="21" height="20" viewBox="0 0 21 20" fill="none" xmlns="http://www.w3.org/2000/svg">
<path d="M18.9575 8.61792H17.2141V8.49609C17.1603 7.8632 16.8781 7.11525 15.8704 7.07802C15.6713 7.06145 15.4717 7.10388 15.2962 7.20008C15.1208 7.29629 14.977 7.44208 14.8827 7.61952C14.8426 7.3103 14.6918 7.02649 14.4585 6.82145C14.2253 6.6164 13.9258 6.50426 13.6163 6.50606C13.3859 6.463 13.148 6.49024 12.9332 6.58431C12.7183 6.67838 12.5362 6.83498 12.4103 7.03403C12.5245 5.12184 12.7026 2.06574 12.7194 1.619C12.7388 1.40022 12.7133 1.17973 12.6446 0.971286C12.5758 0.762843 12.4652 0.570898 12.3196 0.407379C12.1595 0.259558 11.9702 0.147541 11.7641 0.0787099C11.558 0.00987905 11.3397 -0.0142042 11.1237 0.00802273C10.0252 0.0452511 9.65907 1.05718 9.61876 1.58514L9.2089 6.46882C8.9032 5.07445 8.33213 2.43802 8.32877 2.42448C8.30237 2.20624 8.23145 1.99585 8.12046 1.80656C8.00946 1.61727 7.8608 1.45317 7.68382 1.32456C7.49762 1.21391 7.29008 1.14458 7.07515 1.12123C6.86023 1.09789 6.64283 1.12106 6.4375 1.18917C6.05084 1.29823 5.71966 1.55102 5.51079 1.8965C5.30192 2.24198 5.23093 2.65443 5.31215 3.05059C5.57753 4.45173 6.65586 8.59761 6.65586 8.59761H4.92247C4.61927 8.19716 4.22616 7.87486 3.77534 7.65718C3.32453 7.4395 2.82888 7.33264 2.32912 7.34538C1.48608 7.34169 0.674021 7.6653 0.0616098 8.24901C0.032646 8.27795 0.0127553 8.31484 0.00440543 8.35506C-0.0039444 8.39529 -0.00036923 8.4371 0.0146571 8.47531C0.0296835 8.51351 0.0554886 8.54643 0.0889203 8.56998C0.122352 8.59352 0.161936 8.60666 0.202714 8.60776H1.99319C2.04754 8.60776 2.09968 8.6295 2.13811 8.66822C2.17654 8.70693 2.1981 8.75945 2.1981 8.8142V12.537C2.19855 12.564 2.19368 12.5908 2.18375 12.6158C2.17382 12.6408 2.15904 12.6636 2.14028 12.6828C2.12152 12.702 2.09914 12.7173 2.07447 12.7277C2.04979 12.7381 2.02331 12.7435 1.99655 12.7435H0.202714C0.165188 12.7464 0.129193 12.7598 0.0986799 12.782C0.0681672 12.8042 0.0443231 12.8344 0.0297476 12.8694C0.015172 12.9043 0.010427 12.9427 0.0160513 12.9802C0.0216757 13.0177 0.0374304 13.0529 0.0616098 13.0819C0.674663 13.6654 1.48574 13.9911 2.32912 13.9923C2.83235 14.0049 3.33151 13.8985 3.78654 13.6816C4.24157 13.4647 4.63983 13.1434 4.94937 12.7435H5.1845C5.1845 12.8416 5.161 12.9398 5.15764 13.0312C5.10725 14.2157 5.93363 15.6473 7.37811 16.9131C7.20464 17.17 7.11414 17.4747 7.11895 17.7854C7.12376 18.0962 7.22363 18.3979 7.40497 18.6493C7.9391 19.4006 8.81586 19.6646 9.96473 19.871C10.5482 19.9615 11.138 20.0045 11.7284 19.9996C12.2278 20.002 12.727 19.9749 13.2233 19.9184C13.9757 19.8237 15.5109 19.4378 15.9577 18.6594C16.1119 18.4523 16.188 18.1967 16.1727 17.9382C16.1573 17.6798 16.0513 17.4352 15.8737 17.2481C16.1899 16.9597 16.4647 16.6282 16.69 16.2633C17.4861 15.0449 17.4324 13.461 17.3619 12.7435H18.9844C19.5155 12.7435 20.0251 12.5324 20.4025 12.1559C20.78 11.7795 20.9947 11.2682 21 10.7332C21.0028 10.1812 20.7902 9.65025 20.4082 9.25462C20.0262 8.85899 19.5052 8.63034 18.9575 8.61792ZM14.8962 8.4047C14.9082 8.16316 15.0118 7.93547 15.1855 7.7686C15.3593 7.60173 15.59 7.50839 15.8301 7.50783C16.4347 7.50783 16.7169 7.75489 16.7841 8.52315C16.8614 9.42365 16.8704 10.3288 16.8109 11.2307C16.7605 11.7349 16.6027 12.4829 15.8032 12.4592C14.839 12.4287 14.7181 11.7417 14.7181 11.4168C14.7181 10.6012 14.8357 9.47079 14.8962 8.4047ZM12.4472 7.80566C12.4824 7.53991 12.6204 7.29895 12.8313 7.13537C13.0421 6.97178 13.3086 6.89885 13.5726 6.93248C14.2444 6.98663 14.4695 7.27093 14.4695 8.12718C14.4695 8.98343 14.231 10.8178 14.2008 11.0581C14.1706 11.2983 14.0261 12.114 12.9579 12.0158C12.8195 12.0127 12.6832 11.9809 12.5576 11.9225C12.4319 11.864 12.3196 11.78 12.2276 11.6759C12.1356 11.5717 12.0658 11.4496 12.0227 11.3171C11.9796 11.1846 11.964 11.0446 11.9769 10.9058C11.9971 10.4184 12.4472 7.80566 12.4472 7.80566ZM9.49447 7.76505L10.0118 1.61561C10.0362 1.40403 10.0989 1.19871 10.1965 1.00979C10.2782 0.835339 10.4076 0.687953 10.5694 0.584861C10.7312 0.481769 10.9188 0.427249 11.1103 0.427684C11.2686 0.408636 11.4292 0.423506 11.5814 0.471332C11.7337 0.519158 11.8742 0.598862 11.9937 0.705207C12.1996 0.953218 12.2998 1.27316 12.2726 1.5953C12.2457 2.23157 11.8762 8.49608 11.8728 8.557V8.59423H9.64562C9.61203 8.44193 9.55492 8.17456 9.48102 7.82935C9.49054 7.80931 9.49517 7.78725 9.49447 7.76505ZM5.69848 2.98967C5.67701 2.7785 5.6941 2.56516 5.74887 2.36018C5.79208 2.17331 5.88696 2.0026 6.02251 1.86783C6.15807 1.73306 6.32876 1.63974 6.5148 1.59869C6.66471 1.54633 6.82389 1.5265 6.98195 1.5405C7.14 1.5545 7.29333 1.60201 7.43187 1.67991C7.68488 1.87906 7.84917 2.17115 7.88873 2.49216L9.21226 8.58406H7.07577C7.07577 8.58406 5.95042 4.40773 5.69848 2.98967ZM4.60671 12.1546C4.37052 12.4897 4.0708 12.7744 3.72486 12.9922C3.37893 13.21 2.99363 13.3567 2.59115 13.4238H2.55757C2.52177 13.4183 2.48908 13.4002 2.46547 13.3725C2.44185 13.3449 2.42885 13.3096 2.42885 13.2732C2.42885 13.2367 2.44185 13.2014 2.46547 13.1738C2.48908 13.1461 2.52177 13.128 2.55757 13.1225C2.9213 13.061 3.26945 12.9279 3.58212 12.7308C3.89479 12.5337 4.16583 12.2765 4.37982 11.9738C4.59382 11.6712 4.74656 11.329 4.8293 10.9669C4.91203 10.6048 4.92314 10.2298 4.86202 9.86337C4.86141 9.8267 4.87396 9.79102 4.89737 9.76292C4.92077 9.73482 4.95347 9.71617 4.98943 9.71041C5.02539 9.70465 5.06219 9.71215 5.09309 9.73154C5.124 9.75094 5.14692 9.78093 5.15764 9.81599C5.22477 10.2231 5.21061 10.6397 5.11602 11.0412C5.02142 11.4428 4.84827 11.8213 4.60671 12.1546ZM16.3373 16.0433C15.9468 16.7608 15.2895 17.2928 14.5098 17.5223C13.8641 17.6982 13.1836 17.6982 12.5379 17.5223C12.5109 17.5098 12.4815 17.5033 12.4517 17.5031C12.4219 17.5029 12.3925 17.509 12.3652 17.521C12.338 17.5331 12.3135 17.5508 12.2935 17.573C12.2735 17.5952 12.2584 17.6214 12.2491 17.6499C12.2398 17.6784 12.2366 17.7085 12.2397 17.7383C12.2428 17.7682 12.2521 17.797 12.267 17.823C12.2819 17.8489 12.302 17.8715 12.3261 17.889C12.3503 17.9066 12.3778 17.9189 12.4069 17.925C12.7627 18.0286 13.1317 18.0788 13.5021 18.0739C13.8814 18.0739 14.2588 18.0215 14.624 17.9182C14.9471 17.8295 15.2543 17.6901 15.5344 17.5053C15.6645 17.624 15.7432 17.7893 15.7539 17.9657C15.7646 18.1422 15.7063 18.3158 15.5915 18.4496C15.2556 19.0317 13.9119 19.4006 13.1695 19.4954C12.1261 19.6142 11.072 19.6005 10.0319 19.4547C8.95362 19.2754 8.19441 19.0351 7.74762 18.4022C7.61847 18.2276 7.54514 18.0175 7.53734 17.7999C7.52954 17.5822 7.58763 17.3674 7.70395 17.1838C8.26434 17.6105 8.94997 17.8368 9.65235 17.8268C10.15 17.825 10.643 17.7309 11.1069 17.5493C11.1325 17.5383 11.1558 17.5222 11.1752 17.5021C11.1947 17.482 11.21 17.4582 11.2203 17.4321C11.2306 17.406 11.2357 17.3781 11.2352 17.35C11.2348 17.3219 11.2289 17.2942 11.2178 17.2684C11.1949 17.2177 11.1535 17.1778 11.1022 17.157C11.0509 17.1362 10.9937 17.1361 10.9423 17.1567C10.9221 17.1567 9.21564 17.881 7.88873 16.7912C6.41401 15.583 5.53724 14.148 5.57755 13.0481C5.61786 11.9482 6.18555 10.4455 7.60988 10.0021C8.8864 9.59938 10.5392 10.0664 10.9288 10.591C11.5738 11.4608 11.2648 12.2629 10.4955 12.6216C9.4172 13.1564 7.42176 12.8586 7.40161 12.8552C7.37402 12.8508 7.34589 12.8521 7.31878 12.8588C7.29166 12.8654 7.26613 12.8775 7.24365 12.8941C7.22117 12.9108 7.20216 12.9318 7.18776 12.9559C7.17336 12.98 7.16385 13.0067 7.15975 13.0345C7.15548 13.0621 7.15672 13.0903 7.1634 13.1174C7.17008 13.1445 7.18204 13.17 7.19863 13.1924C7.21521 13.2148 7.23608 13.2336 7.25997 13.2477C7.28387 13.2619 7.31033 13.2711 7.3378 13.2748C7.42514 13.2748 9.48438 13.5963 10.6971 13.0041C10.8297 12.938 10.9548 12.8574 11.0699 12.7638L16.9419 12.7367C16.9856 13.4001 17.0562 14.923 16.3239 16.0433H16.3373ZM20.234 10.9667C20.2016 11.2179 20.1199 11.4601 19.9935 11.6792C19.8672 11.8982 19.6989 12.0897 19.4983 12.2426C19.4696 12.2623 19.4357 12.2729 19.401 12.2731C19.3787 12.2718 19.3569 12.2657 19.3372 12.2552C19.3175 12.2447 19.3003 12.23 19.2867 12.2121C19.2747 12.1966 19.2659 12.1789 19.2608 12.1599C19.2556 12.1409 19.2542 12.1211 19.2567 12.1016C19.2592 12.0821 19.2656 12.0632 19.2753 12.0462C19.2851 12.0292 19.2981 12.0143 19.3136 12.0023C19.6539 11.7412 19.8775 11.3548 19.9354 10.9278C19.9933 10.5009 19.8809 10.0682 19.6226 9.7246C19.6074 9.70922 19.5957 9.69076 19.5882 9.67042C19.5806 9.65008 19.5775 9.62835 19.5789 9.60669C19.5804 9.58504 19.5865 9.56396 19.5967 9.54485C19.6069 9.52574 19.6211 9.50905 19.6382 9.49591C19.6554 9.48277 19.6751 9.47347 19.6961 9.46865C19.7171 9.46382 19.7389 9.46357 19.7601 9.46792C19.7812 9.47227 19.8011 9.48112 19.8185 9.49387C19.836 9.50662 19.8505 9.52298 19.8612 9.54185C20.1614 9.94726 20.2905 10.4557 20.2206 10.9565L20.234 10.9667Z" fill="currentColor"/>
</svg>
