<svg width="32" height="32" viewBox="0 0 32 32" fill="none" xmlns="http://www.w3.org/2000/svg">
<path d="M25.4274 6.57223C30.6344 11.7792 30.6344 20.2214 25.4274 25.4284C20.2204 30.6354 11.7782 30.6354 6.57126 25.4284C1.36427 20.2214 1.36427 11.7792 6.57126 6.57223C11.7782 1.36525 20.2205 1.36525 25.4274 6.57223" stroke="currentColor" stroke-width="1.5" stroke-linecap="round" stroke-linejoin="round"/>
<path d="M14.2455 12.8584H15.8655V20.9597H15.8628C14.1948 20.9597 12.3615 19.9464 11.0615 18.0797C9.1095 15.3437 8.57617 13.2757 8.57617 12.8597" stroke="currentColor" stroke-width="1.5" stroke-linecap="round" stroke-linejoin="round"/>
<path d="M22.211 20.9594C22.211 20.9594 21.6217 19.7167 20.4257 18.35C19.6284 17.4154 18.5057 16.91 17.4844 16.91C18.5057 16.91 19.6284 16.4034 20.4257 15.47C21.6217 14.102 22.211 12.8594 22.211 12.8594" stroke="currentColor" stroke-width="1.5" stroke-linecap="round" stroke-linejoin="round"/>
<path d="M17.4846 16.9121H15.8633" stroke="currentColor" stroke-width="1.5" stroke-linecap="round" stroke-linejoin="round"/>
</svg>
