<svg width="35" height="35" viewBox="0 0 35 35" fill="none" xmlns="http://www.w3.org/2000/svg">
<path d="M25.3006 16.9826C23.8068 15.5315 22.1862 14.7386 19.1212 13.4969C16.7396 12.5469 15.3727 11.8737 14.4779 10.5048C14.0125 9.86194 13.7643 9.07155 13.7733 8.26079C13.7719 7.64968 13.915 7.04798 14.1895 6.51084C14.464 5.9737 14.8612 5.51833 15.3445 5.18648C16.1002 4.69814 16.9763 4.46109 17.8599 4.50581C19.2156 4.49414 20.525 5.02877 21.5239 6.00183C22.2007 6.72541 22.7348 7.58491 23.0952 8.53011C23.3041 9.00333 23.4899 9.48769 23.6518 9.98125C23.8209 10.5198 24.0322 11.2454 24.2013 11.2903C24.3982 11.3386 24.5986 11.3686 24.8003 11.38L26.0756 11.3352C26.3483 11.344 26.6208 11.3138 26.8859 11.2454C27.055 11.2005 27.1396 10.8863 27.1396 10.3852V10.1982C27.1396 9.79423 27.0973 9.15844 27.1396 8.29823L27.0973 4.99947L27.1396 0.975172C27.1396 0.474005 27.055 0.227161 26.8436 0.227161C26.6322 0.227161 26.4208 0.406717 26.139 0.728361C25.4344 1.67834 24.7298 2.17202 24.138 2.17202C23.4469 2.08798 22.7948 1.78865 22.2637 1.31179C20.8524 0.413937 19.23 -0.0400089 17.5852 0.00276702C15.835 -0.0301801 14.105 0.404524 12.5543 1.26691C11.087 2.11569 9.89938 3.4208 9.15107 5.00696C8.35724 6.79999 7.96419 8.76341 8.00256 10.7442C7.98862 12.8094 8.63447 14.8186 9.8346 16.444C10.7059 17.6349 11.7729 18.6486 12.9841 19.4361C14.3226 20.3257 15.7383 21.0772 17.2118 21.6801C19.8117 22.7647 21.7705 24.4852 21.7705 27.0134C21.7705 29.1827 19.9808 30.4992 17.8106 30.4992C16.4163 30.5155 15.0657 29.9825 14.0199 29.0032C13.3496 28.2801 12.8014 27.4401 12.3993 26.5198C12.2724 26.2056 12.0611 25.7044 11.8497 25.0237C11.6736 24.6198 11.4621 23.7596 11.2508 23.7147C11.0545 23.6671 10.8525 23.6519 10.6519 23.6698H9.33427C9.06162 23.6615 8.78912 23.6917 8.52396 23.7596C8.35486 23.8045 8.27032 24.1187 8.27032 24.6198V34.0223C8.27032 34.5235 8.3549 34.7703 8.56628 34.7703C8.71224 34.7503 8.85188 34.6947 8.97414 34.6077C9.09641 34.5208 9.19796 34.4049 9.27088 34.2691C10.0812 33.3192 10.7576 32.8255 11.3847 32.8255C12.0875 32.9133 12.7522 33.2117 13.3012 33.6857C14.7548 34.6005 16.4247 35.0547 18.1137 34.9947C19.9203 35.0523 21.7106 34.6171 23.3136 33.7306C24.2946 33.1701 25.1586 32.4047 25.8537 31.4804C26.5488 30.5561 27.0605 29.4921 27.358 28.3524C27.7874 26.9955 28.0016 25.5724 27.9921 24.1411C28.0449 22.8138 27.8324 21.4897 27.3684 20.2559C26.9045 19.022 26.1998 17.9065 25.3006 16.9826V16.9826ZM24.7228 29.2126C24.3564 29.796 23.9689 30.3496 23.9689 30.3496C23.9256 30.4134 23.8684 30.4651 23.8021 30.5003C23.7358 30.5355 23.6624 30.5531 23.5883 30.5516C23.4864 30.5489 23.3878 30.5123 23.3066 30.4468C23.2085 30.3668 23.1439 30.249 23.1267 30.1189C23.1096 29.9888 23.1413 29.8567 23.215 29.7512C23.215 29.7512 23.5884 29.2201 23.9196 28.689C24.4072 27.7352 24.6502 26.6621 24.6242 25.5773C24.6067 24.8544 24.4976 24.1374 24.3 23.4454C24.0221 22.6751 23.6322 21.9557 23.1444 21.3136C22.5309 20.624 21.8172 20.0432 21.0306 19.5932C20.1209 19.0687 19.1794 18.6088 18.2122 18.2168C16.9158 17.6184 15.9082 17.1098 15.2177 16.7208C14.2728 16.1269 13.4137 15.3913 12.667 14.5366C11.9669 13.7638 11.4185 12.851 11.0535 11.8513C10.7243 10.9261 10.5547 9.94549 10.5532 8.95648C10.5309 7.67002 10.83 6.40021 11.4199 5.27624C11.575 4.98451 12.1245 4.00464 12.5614 3.9448C12.6347 3.93266 12.7096 3.93849 12.7804 3.96183C12.8512 3.98517 12.9161 4.02539 12.97 4.07944C13.0187 4.12707 13.0576 4.1849 13.0842 4.24927C13.1107 4.31364 13.1244 4.38316 13.1244 4.45344C13.1244 4.52372 13.1107 4.59324 13.0842 4.65761C13.0576 4.72198 13.0187 4.77981 12.97 4.82745C12.923 4.87155 12.8709 4.90922 12.815 4.93962C12.5879 5.20277 12.3915 5.49414 12.2302 5.80734C11.7218 6.78138 11.4642 7.88047 11.4833 8.99387C11.4868 9.86231 11.6347 10.7233 11.9202 11.5371C12.2401 12.4151 12.7188 13.2181 13.3294 13.9008C14.0129 14.6845 14.801 15.3574 15.6686 15.898C16.3098 16.2795 17.2822 16.7807 18.5435 17.394C19.5398 17.8017 20.5096 18.279 21.4464 18.8227C22.3253 19.3342 23.122 19.9907 23.8068 20.7676C24.3728 21.5131 24.8247 22.3486 25.1456 23.2435C25.3695 24.0328 25.4927 24.8504 25.512 25.6745C25.5342 26.9057 25.2627 28.1227 24.7228 29.2126V29.2126Z" fill="#D34B3B"/>
</svg>
