<?xml version="1.0" standalone="no"?>
<!DOCTYPE svg PUBLIC "-//W3C//DTD SVG 20010904//EN"
 "http://www.w3.org/TR/2001/REC-SVG-20010904/DTD/svg10.dtd">
<svg version="1.0" xmlns="http://www.w3.org/2000/svg"
 width="700.000000pt" height="700.000000pt" viewBox="0 0 700.000000 700.000000"
 preserveAspectRatio="xMidYMid meet">
<metadata>
Created by potrace 1.14, written by Peter Selinger 2001-2017
</metadata>
<g transform="translate(0.000000,700.000000) scale(0.100000,-0.100000)"
fill="#000000" stroke="none">
<path d="M3329 6996 c-2 -2 -34 -6 -70 -10 -88 -8 -245 -40 -344 -70 -299 -89
-535 -226 -735 -426 -183 -182 -295 -352 -389 -590 -46 -115 -113 -330 -124
-397 -3 -16 -10 -48 -15 -73 -10 -44 -14 -65 -27 -160 -3 -25 -8 -61 -11 -80
-14 -86 -12 -479 2 -590 38 -301 166 -636 326 -855 118 -161 283 -340 418
-456 208 -178 655 -443 975 -579 309 -131 433 -199 595 -324 134 -103 231
-212 305 -342 39 -68 88 -193 99 -250 28 -148 25 -278 -9 -397 -31 -105 -76
-179 -164 -267 -94 -93 -170 -140 -301 -184 -103 -34 -153 -41 -315 -40 -199
0 -335 34 -505 126 -184 98 -307 221 -440 438 -87 142 -139 259 -235 535 -79
224 -89 243 -133 254 -43 11 -439 8 -494 -3 -46 -10 -64 -30 -76 -81 -4 -22
-8 -494 -8 -1050 1 -1143 -3 -1081 72 -1072 45 5 91 35 117 77 35 56 196 208
270 254 86 54 177 60 293 21 77 -26 192 -87 229 -122 24 -23 223 -133 239
-133 7 0 16 -4 21 -9 25 -23 289 -103 380 -116 22 -3 60 -9 85 -13 59 -9 479
-9 550 0 106 14 136 20 220 39 538 124 945 428 1188 889 64 121 101 215 151
382 61 206 83 308 107 488 4 30 9 66 11 80 8 50 10 506 3 565 -18 138 -23 164
-42 240 -11 44 -21 88 -23 97 -24 120 -152 397 -251 544 -266 393 -588 614
-1344 921 -74 30 -148 60 -165 68 -16 7 -86 36 -155 65 -133 56 -344 161 -370
185 -9 8 -20 15 -24 15 -16 0 -142 104 -203 167 -137 140 -229 315 -249 470
-44 355 114 658 416 795 125 58 202 72 375 72 120 0 180 -4 240 -18 283 -66
507 -228 672 -485 91 -142 199 -388 283 -646 57 -177 72 -202 124 -211 69 -12
378 -5 479 12 76 12 71 -59 72 1094 0 564 -3 1041 -8 1061 -10 44 -32 58 -72
48 -32 -9 -102 -71 -150 -135 -109 -143 -250 -242 -354 -246 -86 -3 -257 64
-345 136 -132 106 -394 220 -603 260 -43 9 -91 19 -108 22 -31 6 -450 15 -456
10z m-745 -807 c30 -24 47 -74 34 -108 -5 -13 -31 -48 -58 -78 -105 -115 -194
-309 -234 -508 -43 -223 -39 -425 15 -653 90 -379 343 -717 729 -977 134 -90
471 -267 743 -390 304 -137 483 -234 642 -349 144 -104 290 -251 370 -371 193
-289 276 -571 275 -925 -1 -108 -4 -148 -14 -213 -3 -20 -9 -54 -12 -74 -23
-143 -101 -339 -191 -480 -88 -138 -121 -173 -162 -173 -40 0 -89 44 -94 85
-5 37 6 59 92 189 77 116 141 253 157 335 3 12 11 51 19 85 40 173 38 416 -5
601 -6 28 -13 58 -15 68 -19 93 -113 291 -194 410 -106 156 -320 338 -521 443
-30 16 -57 32 -60 35 -7 8 -283 142 -357 173 -202 84 -638 302 -740 370 -245
162 -469 380 -618 601 -82 122 -197 380 -219 490 -3 11 -9 41 -15 68 -6 26
-13 62 -16 80 -3 17 -9 59 -14 92 -9 62 -8 381 2 425 3 14 8 39 10 55 34 228
157 504 294 660 50 58 110 71 157 34z"/>
</g>
</svg>
